<svg width="36" height="36" viewBox="0 0 36 36" fill="none" xmlns="http://www.w3.org/2000/svg">
<g filter="url(#filter0_i_972_211697)">
<path d="M0.5 5.88462C0.5 2.91077 2.91077 0.5 5.88462 0.5H24.7308C30.6785 0.5 35.5 5.32155 35.5 11.2692V30.1154C35.5 33.0892 33.0892 35.5 30.1154 35.5H5.88462C2.91077 35.5 0.5 33.0892 0.5 30.1154V5.88462Z" fill="url(#paint0_linear_972_211697)"/>
</g>
<path d="M27.5853 20.7238C27.7199 20.7547 27.854 20.6706 27.8849 20.536C27.9157 20.4014 27.8317 20.2673 27.6971 20.2364L27.5853 20.7238ZM22.6585 16.2584C22.7769 16.1874 22.8153 16.0338 22.7442 15.9154C22.6732 15.797 22.5196 15.7587 22.4012 15.8297L22.6585 16.2584ZM19.1189 18.7813L27.5853 20.7238L27.6971 20.2364L19.2307 18.2939L19.1189 18.7813ZM19.9662 17.8738L22.6585 16.2584L22.4012 15.8297L19.7089 17.4451L19.9662 17.8738Z" fill="#A1B0FC"/>
<path d="M23.9567 27.1507C24.2254 26.9524 24.4454 26.7631 24.595 26.5966L24.409 26.4295C24.5205 26.3055 24.5545 26.2317 24.5609 26.2057C24.5609 26.2042 24.5609 26.2021 24.5608 26.1994C24.5607 26.1945 24.5603 26.1886 24.5597 26.1816C24.5593 26.1775 24.5588 26.1729 24.5582 26.1679L24.8063 26.1374C24.7988 26.0763 24.7825 26.0057 24.7617 25.9402L24.5234 26.016C24.5173 25.9969 24.511 25.9791 24.5047 25.9632C24.5045 25.9628 24.5042 25.9625 24.5039 25.9621C24.5028 25.9607 24.5016 25.9591 24.5002 25.9573C24.4889 25.9428 24.472 25.9225 24.4485 25.8954C24.4018 25.8414 24.3346 25.7674 24.2462 25.6726L24.429 25.5021C24.2763 25.3384 24.0659 25.1188 23.7988 24.8446L23.6197 25.019C23.4346 24.829 23.2221 24.6125 22.9825 24.3701L23.1603 24.1943C22.9644 23.996 22.7504 23.7805 22.5186 23.5478L22.3415 23.7243C22.1407 23.5227 21.9265 23.3083 21.699 23.0812L21.8756 22.9043C21.6712 22.7002 21.4561 22.486 21.2303 22.2616L21.0541 22.4389L20.7303 22.1173L20.4212 21.8106L20.5973 21.6332L19.979 21.0198L19.8029 21.1972L19.1847 20.5838L19.3608 20.4064L18.7426 19.793L18.5665 19.9704L17.9482 19.357L18.1243 19.1796L17.5061 18.5662L17.33 18.7436L17.0209 18.4369L16.8434 18.2608L17.0195 18.0834L17.3291 17.7714L17.5066 17.9474L18.1257 17.3234L17.9483 17.1473L18.5674 16.5233L18.7449 16.6994L19.364 16.0753L19.1866 15.8992L19.8057 15.2752L19.9832 15.4513L20.6024 14.8273L20.4249 14.6512L20.7345 14.3391L21.0566 14.0143L21.2341 14.1903C21.4602 13.9622 21.6739 13.7463 21.8757 13.542L21.6978 13.3663C21.9265 13.1349 22.1398 12.9185 22.3382 12.7167L22.5165 12.892C22.7494 12.6551 22.962 12.4382 23.1549 12.2405L22.976 12.0659C23.2172 11.8185 23.4277 11.6013 23.609 11.4125L23.7893 11.5856C24.0604 11.3032 24.2669 11.0835 24.4145 10.9206L24.2293 10.7527C24.3176 10.6553 24.382 10.5812 24.4252 10.528C24.4469 10.5013 24.4614 10.4823 24.4702 10.4697C24.4707 10.4689 24.4712 10.4682 24.4717 10.4675C24.4955 10.3952 24.4949 10.3444 24.4808 10.2962L24.7206 10.2258C24.6731 10.0637 24.5383 9.89582 24.293 9.68505L24.13 9.87467C24.0558 9.81085 23.9693 9.74164 23.8692 9.66564L24.0204 9.46656L23.8694 9.66577C23.74 9.56764 23.6091 9.4727 23.4768 9.38094L23.6193 9.17553C23.3457 8.98572 23.0663 8.80921 22.7819 8.64604L22.6575 8.86289C22.3754 8.70104 22.0883 8.55263 21.797 8.41768L21.9021 8.19084C21.6008 8.05128 21.2952 7.92578 20.986 7.81437L20.9012 8.04956C20.5962 7.93966 20.2877 7.84379 19.9765 7.76199L20.0401 7.5202C19.7198 7.436 19.3967 7.36636 19.0717 7.31131L19.03 7.55779C18.7112 7.50379 18.3907 7.46415 18.0691 7.43891L18.0887 7.18968C17.7594 7.16382 17.4291 7.15272 17.0987 7.15642L17.1015 7.4064C16.779 7.41001 16.4565 7.42802 16.1348 7.46049L16.1097 7.21175C15.7818 7.24484 15.4548 7.29259 15.1295 7.35503L15.1766 7.60055C14.8607 7.6612 14.5464 7.73603 14.2345 7.82508L14.1659 7.58469C13.8499 7.67492 13.5365 7.77942 13.2264 7.89823L13.3158 8.13168C13.0161 8.24652 12.7195 8.37504 12.4269 8.51729L12.3176 8.29245C12.0228 8.43578 11.7319 8.59273 11.4458 8.76331L11.5739 8.97803C11.4357 9.06041 11.2987 9.14605 11.1629 9.23496C11.026 9.32525 10.8809 9.42968 10.7306 9.54573L10.5778 9.34785C10.3056 9.55804 10.0204 9.80239 9.73858 10.0649L9.90899 10.2478C9.64625 10.4926 9.38647 10.7534 9.14362 11.0167L8.95984 10.8473C8.69812 11.131 8.45551 11.4178 8.24862 11.6913L8.44802 11.8422C8.33338 11.9937 8.23109 12.1397 8.14375 12.2773L8.14284 12.2787C8.05669 12.4124 7.97366 12.5476 7.89377 12.6843L7.67796 12.5581C7.5135 12.8393 7.36202 13.1263 7.22355 13.4183L7.44943 13.5254C7.31302 13.813 7.18953 14.1055 7.079 14.4019L6.84475 14.3146C6.73113 14.6193 6.63092 14.9281 6.54416 15.2399L6.78502 15.3069C6.69983 15.6131 6.62791 15.9224 6.56931 16.2338L6.32363 16.1876C6.26355 16.5067 6.21717 16.8281 6.18453 17.1506L6.43326 17.1757C6.4013 17.4916 6.38281 17.8086 6.37785 18.1258L6.12788 18.1219C6.12282 18.4462 6.13159 18.7708 6.15426 19.0945L6.40365 19.077C6.4258 19.3933 6.46151 19.7088 6.51083 20.0224L6.26387 20.0613C6.31419 20.3813 6.37836 20.6995 6.45644 21.015L6.69912 20.9549C6.77516 21.2621 6.86468 21.5666 6.96773 21.8674L6.73123 21.9484C6.83601 22.2542 6.95448 22.5564 7.08669 22.854L7.31515 22.7525C7.37931 22.8969 7.44677 23.0402 7.51755 23.1822C7.58835 23.3224 7.6556 23.4526 7.72092 23.5749L7.5004 23.6926C7.65482 23.9818 7.79994 24.2304 7.95542 24.4644L8.16365 24.326C8.31955 24.5606 8.48654 24.7806 8.68718 25.015L8.49722 25.1776C8.67167 25.3815 8.86996 25.595 9.10544 25.8359L9.28421 25.6611C9.38171 25.7609 9.48587 25.8656 9.59776 25.9766C9.70873 26.0867 9.8135 26.1893 9.91335 26.2854L9.73995 26.4655C9.98072 26.6973 10.1944 26.893 10.3978 27.0649L10.5592 26.874C10.7945 27.0729 11.014 27.2379 11.2459 27.3905L11.1085 27.5994C11.3433 27.7538 11.5909 27.8963 11.8776 28.0464L11.9935 27.8249C12.1155 27.8888 12.2452 27.9543 12.3847 28.0231C12.5411 28.0991 12.699 28.1713 12.8583 28.2397L12.7597 28.4694C13.0873 28.61 13.4205 28.7347 13.758 28.8434L13.8347 28.6055C14.1663 28.7123 14.5023 28.8034 14.8411 28.8785L14.7869 29.1226C15.1345 29.1997 15.4851 29.2605 15.8373 29.3048L15.8685 29.0568C16.2139 29.1002 16.5609 29.1275 16.908 29.1384L16.9001 29.3883C17.2557 29.3995 17.6115 29.394 17.966 29.3716L17.9503 29.1221C18.2973 29.1003 18.643 29.0619 18.986 29.0069L19.0255 29.2537C19.3764 29.1975 19.7246 29.1243 20.0687 29.0339L20.0052 28.7921C20.1729 28.7481 20.3396 28.6999 20.5051 28.6476C20.6313 28.6074 20.761 28.5624 20.893 28.5131L20.9804 28.7474C21.2363 28.6518 21.4992 28.5414 21.7614 28.4209L21.657 28.1937C21.9077 28.0785 22.1582 27.9536 22.4015 27.8235L22.5194 28.044C22.7746 27.9075 23.0219 27.7653 23.2537 27.6224L23.1225 27.4096C23.3743 27.2543 23.6062 27.0987 23.8082 26.9496L23.9567 27.1507Z" stroke="#8E9AFF" stroke-width="0.5" stroke-dasharray="1 1"/>
<path d="M17.2147 17.5003L17.2148 17.5002C17.4206 17.4435 17.5956 17.4156 17.7489 17.4138L17.746 17.1638C18.16 17.1591 18.4882 17.3154 18.8038 17.6682L18.6175 17.8348C18.7241 17.954 18.8326 18.1022 18.9464 18.2839C18.9522 18.2953 18.9646 18.3268 18.9769 18.3842L19.2214 18.3317C19.2441 18.4373 19.2571 18.5678 19.2579 18.6994L19.0079 18.7009C19.0083 18.7559 19.0062 18.8103 19.0015 18.8618C18.9907 18.9826 18.9599 19.098 18.9101 19.2073L19.1377 19.3108C19.023 19.5628 18.8274 19.7864 18.5612 19.9706L18.4189 19.7651C18.3169 19.8357 18.2014 19.9009 18.0728 19.9594C17.9603 20.009 17.8452 20.0336 17.73 20.037L17.7376 20.2869C17.4402 20.2959 17.1452 20.1938 16.8898 20.0219L17.0294 19.8145C16.8141 19.6695 16.6309 19.4664 16.5114 19.2413L16.2906 19.3586C16.1448 19.084 16.0785 18.7787 16.1315 18.487L16.3775 18.5316C16.3974 18.4216 16.4393 18.314 16.508 18.2116C16.5614 18.1325 16.6167 18.0573 16.6724 17.9872L16.4767 17.8316C16.6166 17.6556 16.7606 17.5079 16.891 17.4054L17.0455 17.6019C17.13 17.5355 17.1873 17.5078 17.2147 17.5003Z" fill="#3550DC" stroke="#636EC2" stroke-width="0.5" stroke-dasharray="1 1"/>
<path d="M26.4243 25.6998C26.4355 25.6072 26.3943 25.4281 26.3418 25.3069C26.266 25.1627 24.9597 23.8205 22.5216 21.4014L18.8122 17.721L22.5272 13.9768C25.1593 11.3239 26.2593 10.1804 26.3165 10.0299C26.4424 9.68244 26.2794 9.41708 25.6357 8.9281C21.7963 6.01726 16.684 5.84071 12.6409 8.48756C11.6085 9.16815 10.2031 10.573 9.54792 11.6048C7.39264 14.9498 7.14919 19.2239 8.90933 22.7559C9.52706 23.9793 9.89913 24.4867 11.0369 25.6156C12.1747 26.7445 12.6908 27.1183 13.8901 27.7092C16.4855 28.9712 19.4933 29.2022 22.1961 28.3474C23.9807 27.7795 26.3341 26.3015 26.4243 25.6998Z" fill="white"/>
<path d="M12.5684 21.4288L19.2991 17.9288" stroke="#6D777F" stroke-width="0.5"/>
<path d="M18.8159 16.5519C19.6132 16.332 20.0718 16.5314 20.5737 17.3358C20.6389 17.4496 20.6726 17.7306 20.651 17.9705C20.6079 18.4501 20.2719 18.8541 19.7121 19.1083C18.6984 19.5569 17.4628 18.1742 18.0758 17.2613C18.327 16.8894 18.6249 16.6044 18.8159 16.5519Z" fill="#FE9738"/>
<rect x="12.8379" y="5.8728" width="1.61538" height="2.69231" transform="rotate(-21.7239 12.8379 5.8728)" fill="white"/>
<rect x="11.7607" y="5.6051" width="3.23077" height="1.07692" rx="0.538462" transform="rotate(-25.8189 11.7607 5.6051)" fill="white"/>
<circle opacity="0.4" cx="19.4139" cy="8.02209" r="0.538462" transform="rotate(0.678039 19.4139 8.02209)" fill="#3550DC"/>
<circle opacity="0.4" cx="14.0028" cy="10.1121" r="0.538462" transform="rotate(0.678039 14.0028 10.1121)" fill="#3550DC"/>
<circle opacity="0.4" cx="10.1834" cy="14.3749" r="0.538462" transform="rotate(0.678039 10.1834 14.3749)" fill="#3550DC"/>
<circle opacity="0.4" cx="10.1141" cy="20.2976" r="0.538462" transform="rotate(0.678039 10.1141 20.2976)" fill="#3550DC"/>
<circle opacity="0.4" cx="13.8182" cy="25.7264" r="0.538462" transform="rotate(0.678039 13.8182 25.7264)" fill="#3550DC"/>
<circle opacity="0.4" cx="19.1844" cy="27.4054" r="0.538462" transform="rotate(0.678039 19.1844 27.4054)" fill="#3550DC"/>
<defs>
<filter id="filter0_i_972_211697" x="0.5" y="0.5" width="35" height="59" filterUnits="userSpaceOnUse" color-interpolation-filters="sRGB">
<feFlood flood-opacity="0" result="BackgroundImageFix"/>
<feBlend mode="normal" in="SourceGraphic" in2="BackgroundImageFix" result="shape"/>
<feColorMatrix in="SourceAlpha" type="matrix" values="0 0 0 0 0 0 0 0 0 0 0 0 0 0 0 0 0 0 127 0" result="hardAlpha"/>
<feOffset dy="24"/>
<feGaussianBlur stdDeviation="12"/>
<feComposite in2="hardAlpha" operator="arithmetic" k2="-1" k3="1"/>
<feColorMatrix type="matrix" values="0 0 0 0 0.427778 0 0 0 0 0.520292 0 0 0 0 1 0 0 0 1 0"/>
<feBlend mode="normal" in2="shape" result="effect1_innerShadow_972_211697"/>
</filter>
<linearGradient id="paint0_linear_972_211697" x1="18" y1="0.5" x2="18" y2="35.5" gradientUnits="userSpaceOnUse">
<stop stop-color="#3550DC"/>
<stop offset="1" stop-color="#0028F5"/>
</linearGradient>
</defs>
</svg>
