<svg width="120" height="33" viewBox="0 0 120 33" fill="none" xmlns="http://www.w3.org/2000/svg">
<g filter="url(#filter0_i_972_202324)">
<path d="M0 7.93157C0 5.89236 1.6531 4.23926 3.69231 4.23926H16.6154C20.6938 4.23926 24 7.54546 24 11.6239V24.547C24 26.5862 22.3469 28.2393 20.3077 28.2393H3.69231C1.6531 28.2393 0 26.5862 0 24.547V7.93157Z" fill="url(#paint0_linear_972_202324)"/>
</g>
<path d="M18.5553 18.1836C18.6899 18.2145 18.824 18.1304 18.8549 17.9958C18.8857 17.8613 18.8017 17.7271 18.6671 17.6963L18.5553 18.1836ZM15.2349 15.1124C15.3533 15.0414 15.3917 14.8878 15.3207 14.7694C15.2496 14.6511 15.0961 14.6127 14.9777 14.6837L15.2349 15.1124ZM12.7498 16.8516L18.5553 18.1836L18.6671 17.6963L12.8616 16.3643L12.7498 16.8516ZM13.3887 16.2201L15.2349 15.1124L14.9777 14.6837L13.1315 15.7914L13.3887 16.2201Z" fill="#A1B0FC"/>
<path d="M15.7257 22.7602C16.0096 22.5782 16.2523 22.3971 16.4207 22.2379L16.2489 22.0562C16.3146 21.9941 16.3614 21.9416 16.3914 21.9C16.408 21.8769 16.4161 21.8617 16.4198 21.8539C16.4197 21.8526 16.4195 21.8512 16.4194 21.8497L16.4218 21.8494C16.4224 21.8481 16.4227 21.8475 16.4227 21.8475C16.4228 21.8475 16.4226 21.8482 16.4224 21.8494L16.6675 21.8192C16.6623 21.7773 16.6512 21.7289 16.6369 21.684L16.3986 21.7598C16.3963 21.7523 16.3939 21.7453 16.3915 21.7388C16.391 21.7382 16.3904 21.7375 16.3898 21.7367C16.3781 21.7223 16.3603 21.7016 16.3356 21.6738C16.2863 21.6185 16.2148 21.5414 16.1206 21.4423L16.3019 21.2701C16.1433 21.1032 15.9251 20.8786 15.6485 20.598L15.4705 20.7735C15.2789 20.5791 15.0592 20.3576 14.8117 20.1096L14.9887 19.933C14.7862 19.7301 14.5652 19.5094 14.3259 19.2714L14.1496 19.4486C14.0424 19.342 13.9316 19.2319 13.8172 19.1184L13.4992 18.8029L13.6753 18.6254L13.0394 17.9945L12.8633 18.172L12.2274 17.541L12.4035 17.3636L11.7676 16.7326L11.5915 16.9101L11.2736 16.5946L11.0961 16.4186L11.2722 16.2411L11.5906 15.9202L11.7681 16.0962L12.4049 15.4544L12.2275 15.2783L12.8643 14.6364L13.0418 14.8125L13.6786 14.1706L13.5012 13.9946L13.8196 13.6736L14.1499 13.3405L14.3275 13.5164C14.5686 13.273 14.7883 13.0506 14.9876 12.8482L14.8095 12.6728C15.0596 12.4188 15.2774 12.1964 15.4651 12.0035L15.6443 12.1778C15.9256 11.8885 16.1396 11.665 16.2927 11.5003L16.1096 11.3301C16.2052 11.2273 16.2745 11.1501 16.3207 11.0956C16.3425 11.0698 16.3574 11.0512 16.3667 11.0387C16.3752 11.0085 16.3728 10.9923 16.3689 10.9788L16.6087 10.9084C16.5761 10.7972 16.4837 10.6821 16.3155 10.5376L16.1526 10.7272C16.1031 10.6847 16.0451 10.6383 15.9774 10.5868L16.1286 10.3878L15.9776 10.587C15.8543 10.4935 15.7291 10.4043 15.6021 10.3194L15.7411 10.1116C15.4747 9.93345 15.2007 9.77342 14.9206 9.63153L14.8076 9.85456C14.5317 9.7148 14.2497 9.59328 13.9631 9.49002L14.0478 9.25483C13.7479 9.14677 13.4432 9.05805 13.1352 8.98872L13.0803 9.23261C12.7803 9.16508 12.4771 9.11657 12.1725 9.08716L12.1965 8.83832C11.8808 8.80783 11.5635 8.79717 11.2464 8.8064L11.2537 9.05629C10.9478 9.06518 10.6421 9.0932 10.3381 9.14042L10.2997 8.89338C9.98786 8.94181 9.6778 9.00977 9.3712 9.09733L9.43985 9.33772C9.14701 9.42135 8.85735 9.52347 8.57241 9.64417L8.4749 9.41397C8.18582 9.53643 7.90151 9.67736 7.62349 9.83683L7.74788 10.0537C7.61547 10.1296 7.4845 10.2099 7.35514 10.2946C7.26318 10.3553 7.16535 10.4257 7.06359 10.5042L6.91081 10.3064C6.72413 10.4505 6.52856 10.618 6.33534 10.798L6.50574 10.981C6.32701 11.1475 6.15028 11.3249 5.98512 11.504L5.80134 11.3345C5.62188 11.5291 5.45552 11.7258 5.31365 11.9133L5.51304 12.0641C5.43547 12.1667 5.3666 12.265 5.30807 12.3572L5.30716 12.3586C5.21939 12.4949 5.1364 12.6334 5.05819 12.774L4.83971 12.6525C4.67658 12.9458 4.53363 13.2478 4.41098 13.5564L4.64329 13.6487C4.52354 13.95 4.42377 14.2577 4.34411 14.5697L4.10188 14.5078C4.01915 14.8319 3.95743 15.1603 3.91684 15.491L4.16498 15.5214C4.12558 15.8423 4.10675 16.1654 4.1086 16.4882L3.8586 16.4897C3.86051 16.8232 3.88378 17.1566 3.92854 17.4876L4.17629 17.4541C4.21946 17.7735 4.2833 18.0905 4.3679 18.4029L4.12659 18.4682C4.21345 18.789 4.3215 19.1052 4.45086 19.4146L4.68151 19.3181C4.74348 19.4663 4.8105 19.6129 4.88259 19.7576C4.98494 19.9603 5.0759 20.1311 5.16592 20.2848L4.95019 20.4111C5.15865 20.7671 5.36752 21.044 5.6889 21.3901L5.8721 21.22C5.99306 21.3503 6.13136 21.4917 6.29411 21.6531C6.45543 21.8132 6.59702 21.9496 6.72743 22.069L6.55861 22.2534C6.90687 22.5722 7.18445 22.7794 7.53462 22.9816L7.65964 22.7651C7.8132 22.8538 7.9831 22.9425 8.18439 23.0417C8.32594 23.1105 8.46935 23.1747 8.61435 23.2342L8.51937 23.4655C8.82104 23.5894 9.12935 23.6939 9.44206 23.7787L9.50752 23.5374C9.81196 23.62 10.1207 23.6834 10.4316 23.7274L10.3965 23.975C10.7189 24.0206 11.0435 24.0461 11.3679 24.0513L11.3719 23.8013C11.6867 23.8063 12.0014 23.7915 12.3136 23.7568L12.3413 24.0052C12.6642 23.9693 12.9848 23.9128 13.3007 23.8354L13.2412 23.5925C13.3936 23.5552 13.5448 23.5129 13.6945 23.4655C13.8208 23.4253 13.9525 23.3778 14.0872 23.3243L14.1794 23.5567C14.4412 23.4528 14.7105 23.3284 14.9708 23.1941L14.8562 22.9719C15.1166 22.8375 15.3674 22.693 15.5908 22.5498L15.7257 22.7602Z" stroke="#8E9AFF" stroke-width="0.5" stroke-dasharray="1 1"/>
<path d="M11.4823 15.9723L11.4821 15.9724L11.4823 15.9723ZM11.4823 15.9723C11.619 15.9346 11.7321 15.917 11.8285 15.9159L11.8257 15.6659C12.1095 15.6626 12.3346 15.7698 12.551 16.0117L12.3647 16.1784C12.4332 16.255 12.5041 16.3512 12.5794 16.4712C12.58 16.4727 12.581 16.4753 12.5822 16.4789C12.5854 16.4883 12.5891 16.5016 12.5929 16.5193L12.8373 16.4667M11.4823 15.9723L12.8373 16.4667M12.8373 16.4667C12.8529 16.5392 12.8619 16.6286 12.8624 16.7188L12.6124 16.7203C12.6126 16.7558 12.6113 16.7906 12.6083 16.8232C12.6017 16.8971 12.5829 16.9676 12.5524 17.0346L12.7799 17.1381C12.7013 17.3109 12.5672 17.4642 12.3846 17.5906L12.2424 17.385C12.1767 17.4305 12.1018 17.4729 12.0177 17.5112C11.8832 17.5703 11.738 17.5716 11.5925 17.5243L11.5153 17.7621C11.1289 17.6365 10.7994 17.2701 10.7229 16.8808L10.9682 16.8326C10.9396 16.6871 10.9609 16.5491 11.042 16.4282C11.0774 16.3757 11.1141 16.3258 11.151 16.2794L10.9553 16.1238C11.0512 16.0031 11.1499 15.9019 11.2394 15.8315L11.3939 16.0281C11.4191 16.0082 11.4403 15.9941 11.4569 15.9846C11.4733 15.9752 11.4816 15.9726 11.4821 15.9724L12.8373 16.4667Z" fill="#3550DC" stroke="#636EC2" stroke-width="0.5" stroke-dasharray="1 1"/>
<path d="M17.7768 21.5191C17.7845 21.4556 17.7562 21.3328 17.7202 21.2497C17.6683 21.1508 16.7725 20.2304 15.1007 18.5716L12.5571 16.0479L15.1045 13.4804C16.9094 11.6613 17.6637 10.8772 17.7029 10.774C17.7892 10.5358 17.6775 10.3538 17.236 10.0185C14.6033 8.02249 11.0977 7.90142 8.3253 9.71641C7.61738 10.1831 6.65368 11.1464 6.20443 11.854C4.72652 14.1476 4.55958 17.0785 5.76654 19.5004C6.19013 20.3393 6.44526 20.6872 7.22545 21.4613C8.00564 22.2354 8.35954 22.4918 9.1819 22.897C10.9617 23.7623 13.0241 23.9207 14.8775 23.3346C16.1012 22.9452 17.7149 21.9317 17.7768 21.5191Z" fill="white"/>
<path d="M8.27539 18.5904L12.8908 16.1904" stroke="#6D777F" stroke-width="0.5"/>
<path d="M12.5597 15.2462C13.1065 15.0955 13.4209 15.2322 13.7651 15.7838C13.8098 15.8618 13.8329 16.0545 13.8181 16.219C13.7885 16.5478 13.5581 16.8249 13.1743 16.9992C12.4792 17.3068 11.6319 16.3586 12.0522 15.7327C12.2245 15.4777 12.4287 15.2822 12.5597 15.2462Z" fill="#FE9738"/>
<rect x="8.45996" y="7.92346" width="1.10769" height="1.84615" transform="rotate(-21.7239 8.45996 7.92346)" fill="white"/>
<rect x="7.72168" y="7.73987" width="2.21538" height="0.738462" rx="0.369231" transform="rotate(-25.8189 7.72168 7.73987)" fill="white"/>
<circle opacity="0.4" cx="12.9693" cy="9.39726" r="0.369231" transform="rotate(0.678039 12.9693 9.39726)" fill="#3550DC"/>
<circle opacity="0.4" cx="9.25937" cy="10.8304" r="0.369231" transform="rotate(0.678039 9.25937 10.8304)" fill="#3550DC"/>
<circle opacity="0.4" cx="6.64023" cy="13.7535" r="0.369231" transform="rotate(0.678039 6.64023 13.7535)" fill="#3550DC"/>
<circle opacity="0.4" cx="6.59237" cy="17.8147" r="0.369231" transform="rotate(0.678039 6.59237 17.8147)" fill="#3550DC"/>
<circle opacity="0.4" cx="9.13241" cy="21.5374" r="0.369231" transform="rotate(0.678039 9.13241 21.5374)" fill="#3550DC"/>
<circle opacity="0.4" cx="12.8121" cy="22.6886" r="0.369231" transform="rotate(0.678039 12.8121 22.6886)" fill="#3550DC"/>
<g filter="url(#filter1_i_972_202324)">
<path d="M117.776 14.8474C115.877 17.2394 111.993 22.1078 111.656 22.4455L109.123 18.0133L111.656 14.2142L117.776 14.8474Z" fill="url(#paint1_linear_972_202324)"/>
</g>
<path d="M44.6203 23.8542C43.8234 24.5396 42.9308 25.0656 41.9425 25.4322C40.9543 25.7988 39.9302 25.9821 38.8702 25.9821C38.0573 25.9821 37.2723 25.8746 36.5152 25.6594C35.766 25.4522 35.0607 25.1573 34.3993 24.7747C33.7457 24.3842 33.148 23.918 32.6061 23.3761C32.0641 22.8341 31.5979 22.2364 31.2074 21.5829C30.8249 20.9214 30.526 20.2161 30.3108 19.467C30.1036 18.7098 30 17.9248 30 17.1119C30 16.299 30.1036 15.514 30.3108 14.7569C30.526 13.9998 30.8249 13.2945 31.2074 12.6409C31.5979 11.9795 32.0641 11.3778 32.6061 10.8358C33.148 10.2939 33.7457 9.83164 34.3993 9.4491C35.0607 9.05858 35.766 8.75972 36.5152 8.55251C37.2723 8.33733 38.0573 8.22974 38.8702 8.22974C39.9302 8.22974 40.9543 8.41304 41.9425 8.77964C42.9308 9.13828 43.8234 9.66428 44.6203 10.3576L42.8033 13.3463C42.3012 12.8043 41.7074 12.3899 41.022 12.103C40.3366 11.8081 39.6194 11.6607 38.8702 11.6607C38.1131 11.6607 37.4038 11.8041 36.7423 12.091C36.0808 12.3779 35.503 12.7685 35.0089 13.2626C34.5148 13.7487 34.1243 14.3265 33.8374 14.996C33.5505 15.6575 33.407 16.3628 33.407 17.1119C33.407 17.8611 33.5505 18.5664 33.8374 19.2279C34.1243 19.8814 34.5148 20.4552 35.0089 20.9493C35.503 21.4434 36.0808 21.8339 36.7423 22.1208C37.4038 22.4078 38.1131 22.5512 38.8702 22.5512C39.6194 22.5512 40.3366 22.4078 41.022 22.1208C41.7074 21.826 42.3012 21.4076 42.8033 20.8656L44.6203 23.8542Z" fill="#01060B"/>
<path d="M49.5575 25.6116H46.2701V7.7157H49.5575V25.6116Z" fill="#01060B"/>
<path d="M64.4289 19.0964C64.4289 20.0527 64.2576 20.9453 63.9149 21.7742C63.5722 22.595 63.1059 23.3083 62.5162 23.914C61.9264 24.5117 61.2331 24.9859 60.4361 25.3366C59.6471 25.6793 58.7984 25.8506 57.8898 25.8506C56.9892 25.8506 56.1405 25.6793 55.3435 25.3366C54.5545 24.9859 53.8611 24.5117 53.2634 23.914C52.6737 23.3083 52.2074 22.595 51.8647 21.7742C51.5221 20.9453 51.3507 20.0527 51.3507 19.0964C51.3507 18.1241 51.5221 17.2235 51.8647 16.3946C52.2074 15.5658 52.6737 14.8525 53.2634 14.2548C53.8611 13.6491 54.5545 13.1749 55.3435 12.8322C56.1405 12.4895 56.9892 12.3182 57.8898 12.3182C58.7984 12.3182 59.6471 12.4815 60.4361 12.8083C61.2331 13.1271 61.9264 13.5853 62.5162 14.1831C63.1059 14.7728 63.5722 15.4861 63.9149 16.3229C64.2576 17.1518 64.4289 18.0762 64.4289 19.0964ZM61.1414 19.0964C61.1414 18.5704 61.0538 18.0962 60.8784 17.6738C60.7111 17.2434 60.4799 16.8768 60.1851 16.574C59.8902 16.2631 59.5435 16.028 59.145 15.8687C58.7545 15.7013 58.3361 15.6176 57.8898 15.6176C57.4435 15.6176 57.0211 15.7013 56.6226 15.8687C56.2321 16.028 55.8894 16.2631 55.5945 16.574C55.3076 16.8768 55.0805 17.2434 54.9131 17.6738C54.7458 18.0962 54.6621 18.5704 54.6621 19.0964C54.6621 19.5905 54.7458 20.0487 54.9131 20.4711C55.0805 20.8935 55.3076 21.2601 55.5945 21.5709C55.8894 21.8818 56.2321 22.1288 56.6226 22.3121C57.0211 22.4874 57.4435 22.5751 57.8898 22.5751C58.3361 22.5751 58.7545 22.4914 59.145 22.3241C59.5435 22.1567 59.8902 21.9216 60.1851 21.6188C60.4799 21.3159 60.7111 20.9493 60.8784 20.5189C61.0538 20.0886 61.1414 19.6144 61.1414 19.0964Z" fill="#01060B"/>
<path d="M77.4234 15.3546L75.0325 17.7575C74.913 17.4227 74.7496 17.1239 74.5424 16.8609C74.3352 16.5899 74.1001 16.3628 73.8371 16.1795C73.5821 15.9962 73.3031 15.8567 73.0003 15.7611C72.6974 15.6654 72.3866 15.6176 72.0678 15.6176C71.6215 15.6176 71.1991 15.7093 70.8007 15.8926C70.4101 16.0759 70.0674 16.3349 69.7726 16.6696C69.4857 16.9964 69.2585 17.3869 69.0912 17.8411C68.9238 18.2954 68.8401 18.7975 68.8401 19.3474C68.8401 19.7937 68.9238 20.2121 69.0912 20.6026C69.2585 20.9931 69.4857 21.3358 69.7726 21.6307C70.0674 21.9256 70.4101 22.1567 70.8007 22.3241C71.1991 22.4914 71.6215 22.5751 72.0678 22.5751C72.3866 22.5751 72.6934 22.5313 72.9883 22.4436C73.2832 22.356 73.5582 22.2324 73.8132 22.073C74.0762 21.9057 74.3073 21.7064 74.5065 21.4753C74.7138 21.2362 74.8811 20.9732 75.0086 20.6863L77.3995 23.0892C77.0967 23.5195 76.746 23.906 76.3475 24.2487C75.957 24.5914 75.5306 24.8823 75.0684 25.1214C74.6141 25.3605 74.132 25.5398 73.6219 25.6594C73.1198 25.7869 72.6018 25.8506 72.0678 25.8506C71.1673 25.8506 70.3185 25.6833 69.5215 25.3486C68.7325 25.0059 68.0392 24.5396 67.4414 23.9499C66.8517 23.3601 66.3855 22.6708 66.0428 21.8818C65.7001 21.0928 65.5287 20.248 65.5287 19.3474C65.5287 18.3671 65.7001 17.4506 66.0428 16.5979C66.3855 15.7451 66.8517 15.0039 67.4414 14.3743C68.0392 13.7368 68.7325 13.2347 69.5215 12.8681C70.3185 12.5015 71.1673 12.3182 72.0678 12.3182C72.6018 12.3182 73.1238 12.3859 73.6339 12.5214C74.1519 12.6569 74.642 12.8561 75.1043 13.1191C75.5745 13.3741 76.0048 13.689 76.3954 14.0635C76.7938 14.4381 77.1365 14.8685 77.4234 15.3546Z" fill="#01060B"/>
<path d="M82.3128 25.6116H79.0253V7.7157H82.3128V19.0007L87.1783 12.8322H90.932L86.6882 18.1639L90.932 25.6116H87.1783L84.5842 20.9613L82.3128 23.9738V25.6116Z" fill="#01060B"/>
<path d="M96.3713 25.6116H93.1077V16.0599H91.5178V12.8083H93.1077V12.1986C93.1077 11.4096 93.2552 10.6685 93.55 9.97509C93.8529 9.28173 94.2633 8.68002 94.7813 8.16997C95.3073 7.65194 95.917 7.24549 96.6104 6.95061C97.3037 6.64776 98.0449 6.49634 98.8339 6.49634H101.285V9.74796H98.8339C98.4833 9.74796 98.1565 9.81171 97.8536 9.93923C97.5588 10.0588 97.2998 10.2301 97.0766 10.4533C96.8614 10.6685 96.6901 10.9275 96.5626 11.2303C96.4351 11.5252 96.3713 11.848 96.3713 12.1986V12.8083H100.376V16.0599H96.3713V25.6116Z" fill="#01060B"/>
<path d="M106.258 9.32955C106.258 9.6324 106.198 9.91532 106.078 10.1783C105.967 10.4413 105.811 10.6724 105.612 10.8717C105.413 11.063 105.178 11.2184 104.907 11.3379C104.644 11.4495 104.361 11.5053 104.058 11.5053C103.755 11.5053 103.468 11.4495 103.197 11.3379C102.934 11.2184 102.703 11.063 102.504 10.8717C102.313 10.6724 102.157 10.4413 102.038 10.1783C101.926 9.91532 101.87 9.6324 101.87 9.32955C101.87 9.03467 101.926 8.75573 102.038 8.49274C102.157 8.22177 102.313 7.99065 102.504 7.79938C102.703 7.60014 102.934 7.44473 103.197 7.33315C103.468 7.21361 103.755 7.15383 104.058 7.15383C104.361 7.15383 104.644 7.21361 104.907 7.33315C105.178 7.44473 105.413 7.60014 105.612 7.79938C105.811 7.99065 105.967 8.22177 106.078 8.49274C106.198 8.75573 106.258 9.03467 106.258 9.32955ZM105.696 25.6116H102.408V12.8083H105.696V25.6116Z" fill="#01060B"/>
<path d="M113.287 22.4795C113.414 22.5193 113.542 22.5472 113.669 22.5632C113.797 22.5711 113.924 22.5751 114.052 22.5751C114.371 22.5751 114.678 22.5313 114.972 22.4436C115.267 22.356 115.542 22.2324 115.797 22.073C116.06 21.9057 116.291 21.7064 116.491 21.4753C116.698 21.2362 116.865 20.9732 116.993 20.6863L119.384 23.0892C119.081 23.5195 118.73 23.906 118.332 24.2487C117.941 24.5914 117.515 24.8823 117.053 25.1214C116.598 25.3605 116.116 25.5398 115.606 25.6594C115.104 25.7869 114.586 25.8506 114.052 25.8506C113.151 25.8506 112.303 25.6833 111.506 25.3486C110.717 25.0138 110.023 24.5476 109.426 23.9499C108.836 23.3522 108.37 22.6429 108.027 21.822C107.684 20.9931 107.513 20.0846 107.513 19.0964C107.513 18.0842 107.684 17.1597 108.027 16.3229C108.37 15.4861 108.836 14.7728 109.426 14.1831C110.023 13.5933 110.717 13.1351 111.506 12.8083C112.303 12.4815 113.151 12.3182 114.052 12.3182C114.586 12.3182 115.108 12.3819 115.618 12.5094C116.128 12.637 116.61 12.8203 117.065 13.0593C117.527 13.2984 117.957 13.5933 118.356 13.944C118.754 14.2867 119.105 14.6732 119.408 15.1036L113.287 22.4795ZM114.961 15.7491C114.809 15.6933 114.658 15.6575 114.506 15.6415C114.363 15.6256 114.211 15.6176 114.052 15.6176C113.606 15.6176 113.183 15.7013 112.785 15.8687C112.394 16.028 112.052 16.2592 111.757 16.562C111.47 16.8649 111.243 17.2315 111.075 17.6618C110.908 18.0842 110.824 18.5624 110.824 19.0964C110.824 19.2159 110.828 19.3514 110.836 19.5028C110.852 19.6542 110.872 19.8096 110.896 19.969C110.928 20.1205 110.964 20.2679 111.004 20.4114C111.043 20.5548 111.095 20.6823 111.159 20.7939L114.961 15.7491Z" fill="#01060B"/>
<defs>
<filter id="filter0_i_972_202324" x="0" y="4.23926" width="24" height="48" filterUnits="userSpaceOnUse" color-interpolation-filters="sRGB">
<feFlood flood-opacity="0" result="BackgroundImageFix"/>
<feBlend mode="normal" in="SourceGraphic" in2="BackgroundImageFix" result="shape"/>
<feColorMatrix in="SourceAlpha" type="matrix" values="0 0 0 0 0 0 0 0 0 0 0 0 0 0 0 0 0 0 127 0" result="hardAlpha"/>
<feOffset dy="24"/>
<feGaussianBlur stdDeviation="12"/>
<feComposite in2="hardAlpha" operator="arithmetic" k2="-1" k3="1"/>
<feColorMatrix type="matrix" values="0 0 0 0 0.427778 0 0 0 0 0.520292 0 0 0 0 1 0 0 0 1 0"/>
<feBlend mode="normal" in2="shape" result="effect1_innerShadow_972_202324"/>
</filter>
<filter id="filter1_i_972_202324" x="109.123" y="14.2142" width="8.65332" height="32.2313" filterUnits="userSpaceOnUse" color-interpolation-filters="sRGB">
<feFlood flood-opacity="0" result="BackgroundImageFix"/>
<feBlend mode="normal" in="SourceGraphic" in2="BackgroundImageFix" result="shape"/>
<feColorMatrix in="SourceAlpha" type="matrix" values="0 0 0 0 0 0 0 0 0 0 0 0 0 0 0 0 0 0 127 0" result="hardAlpha"/>
<feOffset dy="24"/>
<feGaussianBlur stdDeviation="12"/>
<feComposite in2="hardAlpha" operator="arithmetic" k2="-1" k3="1"/>
<feColorMatrix type="matrix" values="0 0 0 0 0.427778 0 0 0 0 0.520292 0 0 0 0 1 0 0 0 1 0"/>
<feBlend mode="normal" in2="shape" result="effect1_innerShadow_972_202324"/>
</filter>
<linearGradient id="paint0_linear_972_202324" x1="12" y1="4.23926" x2="12" y2="28.2393" gradientUnits="userSpaceOnUse">
<stop stop-color="#3550DC"/>
<stop offset="1" stop-color="#0028F5"/>
</linearGradient>
<linearGradient id="paint1_linear_972_202324" x1="113.45" y1="14.2142" x2="113.45" y2="22.4455" gradientUnits="userSpaceOnUse">
<stop stop-color="#3550DC"/>
<stop offset="1" stop-color="#0028F5"/>
</linearGradient>
</defs>
</svg>
