<svg width="17" height="17" viewBox="0 0 17 17" fill="none" xmlns="http://www.w3.org/2000/svg">
<g clip-path="url(#clip0_53_1449)">
<path d="M14.5205 12.5216C14.2886 13.0573 14.0141 13.5504 13.6961 14.0038C13.2626 14.6218 12.9077 15.0496 12.6341 15.2872C12.2101 15.6771 11.7558 15.8768 11.2693 15.8882C10.9201 15.8882 10.4989 15.7888 10.0086 15.5872C9.51674 15.3866 9.06471 15.2872 8.65138 15.2872C8.2179 15.2872 7.75299 15.3866 7.25571 15.5872C6.75768 15.7888 6.35647 15.8939 6.04972 15.9043C5.5832 15.9241 5.1182 15.7188 4.65405 15.2872C4.3578 15.0288 3.98726 14.5858 3.54336 13.9583C3.0671 13.2882 2.67554 12.5112 2.36879 11.6253C2.04027 10.6684 1.87558 9.74179 1.87558 8.84472C1.87558 7.81714 2.09762 6.93086 2.54237 6.18816C2.8919 5.5916 3.35691 5.12102 3.93889 4.77555C4.52088 4.43009 5.14971 4.25405 5.82692 4.24278C6.19746 4.24278 6.68338 4.3574 7.28723 4.58266C7.88938 4.80868 8.27601 4.9233 8.44552 4.9233C8.57226 4.9233 9.00177 4.78928 9.72989 4.52209C10.4184 4.2743 10.9996 4.1717 11.4757 4.21212C12.7657 4.31623 13.7349 4.82477 14.3794 5.74095C13.2257 6.44002 12.655 7.41914 12.6663 8.67521C12.6767 9.65358 13.0317 10.4677 13.7292 11.1142C14.0453 11.4142 14.3984 11.6461 14.7912 11.8108C14.706 12.0578 14.6161 12.2944 14.5205 12.5216ZM11.5618 0.879019C11.5618 1.64586 11.2816 2.36186 10.7232 3.02458C10.0493 3.81242 9.23422 4.26768 8.35031 4.19584C8.33905 4.10384 8.33252 4.00702 8.33252 3.90527C8.33252 3.1691 8.65299 2.38126 9.22211 1.73709C9.50624 1.41094 9.8676 1.13974 10.3058 0.923408C10.7431 0.710301 11.1567 0.592447 11.5457 0.572266C11.5571 0.67478 11.5618 0.777311 11.5618 0.879019Z" fill="#01060B"/>
</g>
<defs>
<clipPath id="clip0_53_1449">
<rect width="16" height="16" fill="white" transform="translate(0.333374 0.239258)"/>
</clipPath>
</defs>
</svg>
