<svg width="45" height="41" viewBox="0 0 45 41" fill="none" xmlns="http://www.w3.org/2000/svg">
<rect x="0.5" y="12.8984" width="22.061" height="27.1766" rx="5" transform="rotate(-10.7362 0.5 12.8984)" fill="#FF0000"/>
<g filter="url(#filter0_i_642_87851)">
<rect x="8.38403" y="0.851562" width="36" height="36" rx="10" transform="rotate(5.5189 8.38403 0.851562)" fill="#FF0000"/>
<rect x="8.83363" y="1.39733" width="35" height="35" rx="9.5" transform="rotate(5.5189 8.83363 1.39733)" stroke="#FFA191"/>
<path d="M23.6268 10.2667C21.6137 10.443 19.6937 11.2193 18.1288 12.4903C17.6831 12.8503 17.1517 13.3695 16.8284 13.7565C16.7305 13.8765 16.6423 13.9793 16.635 13.9867C16.608 14.0111 16.199 14.5671 16.1035 14.7091C15.6211 15.4267 15.1607 16.3818 14.8888 17.2316C14.715 17.7728 14.5705 18.4389 14.4872 19.0683C14.4235 19.5605 14.4235 20.9516 14.4872 21.4438C14.8472 24.2136 16.2162 26.5818 18.4301 28.2593C19.657 29.1899 21.1239 29.8316 22.6595 30.1107C23.3207 30.2307 23.6709 30.2601 24.4717 30.2577C25.2456 30.2577 25.537 30.2356 26.1982 30.1254C26.6807 30.0446 27.8023 29.7409 27.8023 29.6944C27.8023 29.6871 27.7362 29.5793 27.6529 29.4569C27.5697 29.3344 27.4423 29.1116 27.3688 28.9622C27.2954 28.8152 27.2317 28.6903 27.2268 28.6854C27.2244 28.683 27.1607 28.7026 27.0872 28.7271C26.8374 28.8128 26.2521 28.945 25.8431 29.0087C23.9795 29.3001 22.0056 28.9793 20.3697 28.1197C19.5297 27.6789 18.866 27.1916 18.2023 26.5254C16.8113 25.1369 15.9664 23.4667 15.6799 21.5491C15.359 19.394 15.8635 17.1605 17.0831 15.3336C17.2644 15.0642 17.2986 15.0152 17.5729 14.6724C17.9721 14.1752 18.6039 13.5679 19.1452 13.1638C20.3599 12.2577 21.7141 11.6969 23.1982 11.4887C24.9958 11.234 26.7884 11.5205 28.4146 12.3238C30.528 13.3646 32.1395 15.2038 32.8815 17.4201C33.2023 18.3752 33.337 19.2226 33.337 20.2609C33.337 21.2577 33.1925 22.1613 32.8962 23.0356C32.8423 23.1948 32.7982 23.3393 32.7982 23.354C32.8007 23.3662 32.9207 23.4446 33.0701 23.5254C33.2195 23.6062 33.4423 23.7483 33.5623 23.8389C33.6848 23.9295 33.7876 24.0005 33.7901 23.9981C33.795 23.9932 33.8464 23.8536 33.9076 23.6846C34.5933 21.7842 34.6962 19.7491 34.2064 17.7973C33.8905 16.5458 33.2831 15.2773 32.5117 14.2609C32.4235 14.1434 32.3427 14.043 32.3329 14.0356C32.3256 14.0283 32.2668 13.9573 32.2056 13.8765C31.919 13.5018 31.2407 12.8332 30.7656 12.4609C30.6505 12.3703 30.5182 12.265 30.4717 12.2283C30.4252 12.1891 30.2709 12.0813 30.1288 11.9858C28.7599 11.0601 27.2807 10.5067 25.6227 10.3009C25.2505 10.2544 24.0137 10.2324 23.6268 10.2667Z" fill="white"/>
<path d="M23.7125 11.9505C23.5019 11.9676 23.0366 12.0338 22.7942 12.0827C21.3076 12.3864 20.017 13.0403 18.839 14.086L18.7288 14.184L19.0448 14.4999C19.2186 14.6737 19.3705 14.8427 19.3827 14.8746C19.3974 14.9113 19.395 14.9676 19.3778 15.0264C19.3558 15.1048 19.3313 15.1293 19.2431 15.1684C19.1574 15.2052 19.1231 15.2101 19.0668 15.1905C19.0301 15.1758 18.8586 15.024 18.6872 14.8525L18.3737 14.5415L18.2219 14.7105C17.6635 15.3227 17.1444 16.1333 16.7966 16.9366C16.4072 17.8305 16.1721 18.8248 16.1133 19.8362L16.106 19.9905H16.5664H17.0268L17.1003 20.0566C17.2399 20.1815 17.2031 20.4166 17.0366 20.4803C17.0023 20.495 16.777 20.5048 16.5346 20.5048H16.0962L16.106 20.5954C16.1133 20.6468 16.1256 20.7986 16.1329 20.9333C16.1476 21.1929 16.199 21.575 16.2578 21.8762C16.5517 23.3505 17.2178 24.6852 18.2268 25.8142L18.3615 25.966L18.6823 25.6452C18.9639 25.3635 19.0129 25.3244 19.0986 25.3146C19.2235 25.2999 19.3068 25.344 19.3607 25.4566C19.4317 25.6011 19.4023 25.6525 19.0521 26.0076L18.7337 26.3309L18.8733 26.4558C19.6815 27.1978 20.7076 27.7954 21.8268 28.1799C22.4366 28.388 23.5215 28.5864 24.0578 28.5864H24.2023V28.1309V27.6754L24.2856 27.5921C24.4007 27.477 24.5182 27.477 24.6333 27.5921L24.7166 27.6754V28.1358V28.5938L25.0227 28.5791C25.3484 28.5619 25.8554 28.4933 26.2276 28.4174C26.4823 28.3635 26.9917 28.2264 27.0382 28.197C27.0652 28.1823 27.0603 28.1211 27.0137 27.8982C26.9403 27.5284 26.9354 26.7864 27.0015 26.4435C27.2439 25.2117 27.9419 24.2101 28.9901 23.5929C29.6072 23.2305 30.2146 23.0566 30.9419 23.0346C31.395 23.0199 31.6815 23.0468 32.0586 23.1374C32.1884 23.1693 32.2986 23.1937 32.2986 23.1913C32.3207 23.1619 32.5044 22.5717 32.5656 22.3268C32.6978 21.8125 32.8227 21.0044 32.8227 20.6468V20.5317L32.355 20.5244L31.8872 20.517L31.8162 20.4362C31.7231 20.3333 31.7182 20.1962 31.8039 20.0958L31.8627 20.0272L32.3378 20.015L32.8105 20.0027L32.8031 19.7578C32.7615 18.2909 32.1419 16.5693 31.2113 15.3252C31.0129 15.0607 30.7093 14.6982 30.6137 14.6101L30.555 14.5538L30.2635 14.8501C29.8888 15.2272 29.8399 15.2542 29.6758 15.1782C29.5852 15.1342 29.5411 15.0533 29.5411 14.9284C29.5411 14.8476 29.5705 14.8109 29.8644 14.5146C30.2341 14.1399 30.2293 14.2011 29.9084 13.9293C28.5958 12.8174 27.0676 12.1562 25.3778 11.9676C25.2088 11.948 24.9909 11.9333 24.8954 11.9333H24.7166V12.3815C24.7166 12.8811 24.7068 12.9129 24.5525 12.9791C24.4472 13.0231 24.3248 12.9889 24.2513 12.8958C24.2072 12.837 24.2023 12.7978 24.2023 12.384V11.9333L24.0137 11.9382C23.9084 11.9407 23.7737 11.9456 23.7125 11.9505ZM24.866 15.5015C25.057 15.5897 25.177 15.6901 25.275 15.8468C25.4293 16.0868 25.4268 16.0672 25.4268 17.8403V19.4517L25.5101 19.5815C25.6864 19.8558 25.7525 20.1938 25.6888 20.495C25.5835 20.9848 25.2064 21.3717 24.7411 21.4623L24.5819 21.4942L23.5411 22.5276C22.0962 23.9652 21.5207 24.5211 21.4007 24.5995C21.1778 24.7464 20.8521 24.7733 20.5778 24.6705C20.0097 24.455 19.7868 23.7423 20.1321 23.2427C20.1737 23.1815 20.8864 22.464 21.7142 21.6435L23.2203 20.157L23.2497 20.0174C23.2839 19.8533 23.3721 19.6427 23.4554 19.535L23.5142 19.4566L23.5215 17.7962L23.5288 16.1333L23.595 15.9913C23.6317 15.9129 23.6978 15.8052 23.7395 15.7513C23.9942 15.4305 24.4815 15.3203 24.866 15.5015Z" fill="white"/>
<path d="M24.2879 15.9561C24.1924 15.9978 24.1165 16.0835 24.0675 16.1961C24.0357 16.2745 24.0308 16.4802 24.0308 17.6876C24.0308 19.01 24.0332 19.0859 24.0748 19.0688C24.0969 19.059 24.2022 19.0394 24.3075 19.0247C24.4912 19.0002 24.6699 19.0149 24.8585 19.0712L24.9124 19.0859V17.6753C24.9124 16.3357 24.9099 16.2574 24.8659 16.1717C24.8095 16.0614 24.7287 15.9831 24.6357 15.9488C24.5426 15.9121 24.3785 15.917 24.2879 15.9561Z" fill="white"/>
<path d="M24.2121 19.5753C23.7468 19.7614 23.5901 20.3467 23.9109 20.7116C24.0627 20.8831 24.1974 20.9516 24.4105 20.9663C24.6431 20.981 24.7974 20.9296 24.9566 20.7876C25.1207 20.6406 25.1917 20.4741 25.1917 20.2488C25.1917 20.0357 25.1305 19.8888 24.9811 19.7443C24.8439 19.6096 24.6946 19.5459 24.4962 19.5337C24.3786 19.5288 24.3052 19.5386 24.2121 19.5753Z" fill="white"/>
<path d="M21.9443 22.1451C21.1484 22.9337 20.5435 23.5508 20.519 23.5998C20.4382 23.7688 20.4994 24.0112 20.6488 24.1214C20.7908 24.2292 21.0063 24.2414 21.1361 24.1484C21.239 24.0774 23.9329 21.4153 23.9329 21.3859C23.9329 21.3786 23.8863 21.3468 23.83 21.3149C23.6806 21.2292 23.519 21.0725 23.4186 20.9157L23.3304 20.7737L21.9443 22.1451Z" fill="white"/>
<path d="M30.5085 23.5731C29.1689 23.7935 28.0277 24.7756 27.6334 26.0491C27.5232 26.4091 27.4864 26.6197 27.4693 27.0042C27.4424 27.5968 27.5526 28.1454 27.8024 28.6768C27.9175 28.9193 28.1256 29.2523 28.2481 29.3968C28.2799 29.4311 28.346 29.5095 28.395 29.5707C28.5101 29.7103 28.8603 30.0066 29.1028 30.1707C29.9036 30.7144 30.9958 30.8956 31.973 30.6507C32.6097 30.4915 33.1485 30.1854 33.6309 29.7103C34.1379 29.2131 34.4685 28.6278 34.6277 27.9421C34.6889 27.6899 34.6938 27.6189 34.6962 27.1633C34.6962 26.6148 34.6742 26.4556 34.5346 26.0221C34.4513 25.765 34.2579 25.3682 34.084 25.1038C33.9052 24.8344 33.4007 24.3421 33.102 24.1438C32.7199 23.8891 32.2742 23.7029 31.8162 23.6001C31.5689 23.5462 30.7779 23.5291 30.5085 23.5731ZM31.2554 24.3005C31.6717 24.3666 32.0195 24.7217 32.0881 25.1478C32.1591 25.5789 31.9093 26.0393 31.5003 26.2303C31.3803 26.2866 31.3338 26.294 31.0962 26.294C30.8636 26.294 30.8073 26.2866 30.6922 26.2352C30.2807 26.054 30.0628 25.6915 30.0848 25.2311C30.0922 25.0597 30.1093 24.9887 30.1632 24.8784C30.3322 24.5307 30.6677 24.3054 31.0595 24.276C31.0791 24.276 31.1673 24.2858 31.2554 24.3005ZM31.8211 26.8793C31.9289 26.9233 32.0489 27.0556 32.0856 27.1609C32.1028 27.2172 32.1126 27.614 32.1126 28.4417C32.1126 29.4629 32.1077 29.6515 32.0758 29.7274C32.0268 29.845 31.9754 29.9013 31.8628 29.9576C31.7795 29.9993 31.7109 30.0042 31.0864 30.0042C30.4889 30.0042 30.3885 29.9993 30.3126 29.9625C30.2048 29.9111 30.0873 29.7397 30.0677 29.6025C30.0603 29.5487 30.0554 28.978 30.0603 28.3389C30.0677 27.0776 30.0652 27.107 30.2073 26.9748C30.3346 26.8548 30.3909 26.8474 31.0864 26.845C31.5983 26.845 31.7575 26.8523 31.8211 26.8793Z" fill="white"/>
<path d="M30.9566 24.8188C30.9076 24.831 30.8244 24.88 30.7705 24.9241C30.5207 25.1396 30.5329 25.4923 30.7974 25.7053C30.8856 25.7764 30.9076 25.7812 31.0791 25.7812C31.2505 25.7812 31.2774 25.7739 31.3705 25.7078C31.5738 25.5608 31.6423 25.2719 31.5223 25.0613C31.417 24.8727 31.1623 24.7625 30.9566 24.8188Z" fill="white"/>
<path d="M30.5942 28.4269V29.4922H31.0963H31.5983V28.4269V27.3616H31.0963H30.5942V28.4269Z" fill="white"/>
</g>
<defs>
<filter id="filter0_i_642_87851" x="4.92188" y="0.851562" width="39.2952" height="43.2969" filterUnits="userSpaceOnUse" color-interpolation-filters="sRGB">
<feFlood flood-opacity="0" result="BackgroundImageFix"/>
<feBlend mode="normal" in="SourceGraphic" in2="BackgroundImageFix" result="shape"/>
<feColorMatrix in="SourceAlpha" type="matrix" values="0 0 0 0 0 0 0 0 0 0 0 0 0 0 0 0 0 0 127 0" result="hardAlpha"/>
<feOffset dy="4"/>
<feGaussianBlur stdDeviation="2"/>
<feComposite in2="hardAlpha" operator="arithmetic" k2="-1" k3="1"/>
<feColorMatrix type="matrix" values="0 0 0 0 1 0 0 0 0 0.4125 0 0 0 0 0.4125 0 0 0 1 0"/>
<feBlend mode="normal" in2="shape" result="effect1_innerShadow_642_87851"/>
</filter>
</defs>
</svg>
