<svg width="48" height="48" viewBox="0 0 48 48" fill="none" xmlns="http://www.w3.org/2000/svg">
<path d="M19 2.88675C22.094 1.10042 25.906 1.10042 29 2.88675L39.7846 9.11325C42.8786 10.8996 44.7846 14.2008 44.7846 17.7735V30.2265C44.7846 33.7992 42.8786 37.1004 39.7846 38.8868L29 45.1132C25.906 46.8996 22.094 46.8996 19 45.1132L8.21539 38.8868C5.12138 37.1004 3.21539 33.7992 3.21539 30.2265V17.7735C3.21539 14.2008 5.12138 10.8996 8.21539 9.11325L19 2.88675Z" fill="#8000FF"/>
<path d="M20 33V32C20 31.4696 20.2107 30.9609 20.5858 30.5858C20.9609 30.2107 21.4696 30 22 30H26C26.5304 30 27.0391 30.2107 27.4142 30.5858C27.7893 30.9609 28 31.4696 28 32V33M29 22H31C31.5304 22 32.0391 22.2107 32.4142 22.5858C32.7893 22.9609 33 23.4696 33 24V25M15 25V24C15 23.4696 15.2107 22.9609 15.5858 22.5858C15.9609 22.2107 16.4696 22 17 22H19M22 25C22 25.5304 22.2107 26.0391 22.5858 26.4142C22.9609 26.7893 23.4696 27 24 27C24.5304 27 25.0391 26.7893 25.4142 26.4142C25.7893 26.0391 26 25.5304 26 25C26 24.4696 25.7893 23.9609 25.4142 23.5858C25.0391 23.2107 24.5304 23 24 23C23.4696 23 22.9609 23.2107 22.5858 23.5858C22.2107 23.9609 22 24.4696 22 25ZM27 17C27 17.5304 27.2107 18.0391 27.5858 18.4142C27.9609 18.7893 28.4696 19 29 19C29.5304 19 30.0391 18.7893 30.4142 18.4142C30.7893 18.0391 31 17.5304 31 17C31 16.4696 30.7893 15.9609 30.4142 15.5858C30.0391 15.2107 29.5304 15 29 15C28.4696 15 27.9609 15.2107 27.5858 15.5858C27.2107 15.9609 27 16.4696 27 17ZM17 17C17 17.5304 17.2107 18.0391 17.5858 18.4142C17.9609 18.7893 18.4696 19 19 19C19.5304 19 20.0391 18.7893 20.4142 18.4142C20.7893 18.0391 21 17.5304 21 17C21 16.4696 20.7893 15.9609 20.4142 15.5858C20.0391 15.2107 19.5304 15 19 15C18.4696 15 17.9609 15.2107 17.5858 15.5858C17.2107 15.9609 17 16.4696 17 17Z" stroke="white" stroke-linecap="round" stroke-linejoin="round"/>
</svg>
