<svg width="17" height="17" viewBox="0 0 17 17" fill="none" xmlns="http://www.w3.org/2000/svg">
<g clip-path="url(#clip0_53_1454)">
<path d="M9.00001 0.239258C4.58183 0.239258 1.00001 3.83949 1.00001 8.28038C1.00001 12.3119 3.95455 15.6406 7.80437 16.2221V10.4116H5.8251V8.29792H7.80437V6.89146C7.80437 4.56282 8.9331 3.5405 10.8586 3.5405C11.7807 3.5405 12.2684 3.60922 12.4993 3.64065V5.48572H11.1858C10.3684 5.48572 10.0829 6.26461 10.0829 7.14256V8.29792H12.4786L12.1535 10.4116H10.0829V16.2393C13.9876 15.7067 17 12.351 17 8.28038C17 3.83949 13.4182 0.239258 9.00001 0.239258Z" fill="#0080FF"/>
</g>
<defs>
<clipPath id="clip0_53_1454">
<rect width="16" height="16" fill="white" transform="translate(0.666664 0.239258)"/>
</clipPath>
</defs>
</svg>
