<svg width="42" height="14" viewBox="0 0 42 14" fill="none" xmlns="http://www.w3.org/2000/svg">
<path fill-rule="evenodd" clip-rule="evenodd" d="M10.6753 13.4859H7.10103L4.42078 3.2606C4.29356 2.79024 4.02344 2.37441 3.62611 2.17842C2.63452 1.6859 1.54185 1.29393 0.349854 1.09624V0.702567H6.1077C6.90237 0.702567 7.49837 1.29393 7.5977 1.98073L8.98837 9.3566L12.5609 0.702567H16.0358L10.6753 13.4859ZM18.0227 13.4859H14.6471L17.4267 0.702567H20.8023L18.0227 13.4859ZM25.1696 4.24245C25.2689 3.55395 25.8649 3.16027 26.5602 3.16027C27.6529 3.06143 28.8432 3.25912 29.8365 3.74993L30.4325 0.997615C29.4392 0.60394 28.3465 0.40625 27.3549 0.40625C24.0786 0.40625 21.6946 2.17694 21.6946 4.63442C21.6946 6.50395 23.3833 7.48559 24.5753 8.07695C25.8649 8.66661 26.3616 9.06029 26.2622 9.64995C26.2622 10.5344 25.2689 10.9281 24.2773 10.9281C23.0853 10.9281 21.8933 10.6333 20.8024 10.1408L20.2064 12.8948C21.3984 13.3856 22.688 13.5833 23.88 13.5833C27.5536 13.6804 29.8365 11.9114 29.8365 9.25627C29.8365 5.91259 25.1696 5.7166 25.1696 4.24245ZM41.6501 13.4859L38.9699 0.702567H36.0909C35.4949 0.702567 34.8989 1.09624 34.7003 1.6859L29.7371 13.4859H33.212L33.9056 11.6181H38.1752L38.5725 13.4859H41.6501ZM36.5872 4.14314L37.5788 8.96097H34.7992L36.5872 4.14314Z" fill="#172B85"/>
</svg>
