<svg width="24" height="14" viewBox="0 0 24 14" fill="none" xmlns="http://www.w3.org/2000/svg">
<path fill-rule="evenodd" clip-rule="evenodd" d="M12 12.2507C10.8084 13.279 9.26276 13.8997 7.57377 13.8997C3.80511 13.8997 0.75 10.8091 0.75 6.99674C0.75 3.18432 3.80511 0.09375 7.57377 0.09375C9.26276 0.09375 10.8084 0.714502 12 1.74278C13.1916 0.714502 14.7372 0.09375 16.4262 0.09375C20.1949 0.09375 23.25 3.18432 23.25 6.99674C23.25 10.8091 20.1949 13.8997 16.4262 13.8997C14.7372 13.8997 13.1916 13.279 12 12.2507Z" fill="#ED0006"/>
<path fill-rule="evenodd" clip-rule="evenodd" d="M12 12.2507C13.4672 10.9846 14.3975 9.10055 14.3975 6.99674C14.3975 4.89292 13.4672 3.00892 12 1.74278C13.1916 0.714502 14.7372 0.09375 16.4262 0.09375C20.1949 0.09375 23.25 3.18432 23.25 6.99674C23.25 10.8091 20.1949 13.8997 16.4262 13.8997C14.7372 13.8997 13.1916 13.279 12 12.2507Z" fill="#F9A000"/>
<path fill-rule="evenodd" clip-rule="evenodd" d="M12 12.25C13.4672 10.9839 14.3976 9.09992 14.3976 6.99611C14.3976 4.89231 13.4672 3.00832 12 1.74219C10.5329 3.00832 9.60254 4.89231 9.60254 6.99611C9.60254 9.09992 10.5329 10.9839 12 12.25Z" fill="#FF5E00"/>
</svg>
