<svg width="30" height="27" viewBox="0 0 30 27" fill="none" xmlns="http://www.w3.org/2000/svg">
<rect y="6.24219" width="22.061" height="18.5476" rx="5" transform="rotate(-10.7362 0 6.24219)" fill="#0C1C29"/>
<rect x="5.75776" y="0.743035" width="23" height="23" rx="4.5" transform="rotate(5.5189 5.75776 0.743035)" fill="#01060B"/>
<rect x="5.75776" y="0.743035" width="23" height="23" rx="4.5" transform="rotate(5.5189 5.75776 0.743035)" stroke="#F9F9FA"/>
<path d="M14.7651 19.146C14.1849 19.0144 13.6276 18.7967 13.1118 18.5M17.4318 7.44336C18.7572 7.74607 19.9406 8.48982 20.7882 9.55283C21.6358 10.6158 22.0974 11.9351 22.0974 13.2947C22.0974 14.6543 21.6358 15.9735 20.7882 17.0366C19.9406 18.0996 18.7572 18.8433 17.4318 19.146M11.1511 16.69C10.7874 16.1617 10.5112 15.5782 10.3331 14.962M10.1811 12.2947C10.2878 11.6614 10.4931 11.0614 10.7811 10.5114L10.8938 10.308M12.7031 8.34736C13.3269 7.91796 14.0266 7.61117 14.7651 7.44336M14.0984 13.2947L15.4318 14.628L18.0984 11.9614" stroke="white" stroke-linecap="round" stroke-linejoin="round"/>
</svg>
