<svg width="30" height="27" viewBox="0 0 30 27" fill="none" xmlns="http://www.w3.org/2000/svg">
<rect y="6.13477" width="22.061" height="18.5476" rx="5" transform="rotate(-10.7362 0 6.13477)" fill="#0C1C29"/>
<rect x="5.75776" y="0.635613" width="23" height="23" rx="4.5" transform="rotate(5.5189 5.75776 0.635613)" fill="#01060B"/>
<rect x="5.75776" y="0.635613" width="23" height="23" rx="4.5" transform="rotate(5.5189 5.75776 0.635613)" stroke="#F9F9FA"/>
<path d="M18.0984 7.1875V9.85417C18.0984 10.031 18.1687 10.2005 18.2937 10.3256C18.4187 10.4506 18.5883 10.5208 18.7651 10.5208H21.4318M18.0984 7.1875H15.4318C15.0781 7.1875 14.739 7.32798 14.489 7.57802C14.2389 7.82807 14.0984 8.16721 14.0984 8.52083V15.1875C14.0984 15.5411 14.2389 15.8803 14.489 16.1303C14.739 16.3804 15.0781 16.5208 15.4318 16.5208H20.0984C20.4521 16.5208 20.7912 16.3804 21.0412 16.1303C21.2913 15.8803 21.4318 15.5411 21.4318 15.1875V10.5208M18.0984 7.1875L21.4318 10.5208M18.7651 16.5208V17.8542C18.7651 18.2078 18.6246 18.5469 18.3746 18.797C18.1245 19.047 17.7854 19.1875 17.4318 19.1875H12.7651C12.4115 19.1875 12.0723 19.047 11.8223 18.797C11.5722 18.5469 11.4318 18.2078 11.4318 17.8542V11.1875C11.4318 10.8339 11.5722 10.4947 11.8223 10.2447C12.0723 9.99464 12.4115 9.85417 12.7651 9.85417H14.0984" stroke="white" stroke-linecap="round" stroke-linejoin="round"/>
</svg>
