<svg width="30" height="28" viewBox="0 0 30 28" fill="none" xmlns="http://www.w3.org/2000/svg">
<rect y="6.93945" width="22.061" height="18.5476" rx="5" transform="rotate(-10.7362 0 6.93945)" fill="#0C1C29"/>
<rect x="5.75776" y="1.4403" width="23" height="23" rx="4.5" transform="rotate(5.5189 5.75776 1.4403)" fill="#01060B"/>
<rect x="5.75776" y="1.4403" width="23" height="23" rx="4.5" transform="rotate(5.5189 5.75776 1.4403)" stroke="#F9F9FA"/>
<g clip-path="url(#clip0_829_203938)">
<path d="M22.0865 13.6162C22.0149 12.4758 21.6191 11.3795 20.9457 10.4563C20.2722 9.53305 19.3492 8.82136 18.285 8.40488C17.2209 7.9884 16.06 7.88446 14.9388 8.10529C13.8176 8.32611 12.7828 8.86251 11.9561 9.6514C11.1294 10.4403 10.5451 11.4489 10.2721 12.5585C9.99902 13.6681 10.0485 14.8326 10.4147 15.9151C10.781 16.9975 11.4487 17.9529 12.3393 18.6688C13.23 19.3847 14.3066 19.8313 15.4425 19.9562M16.0985 10.6589V13.9922L16.7651 14.6589M19.9651 19.8703L18.5171 20.6289C18.4742 20.6513 18.4258 20.6613 18.3775 20.6577C18.3292 20.6542 18.2828 20.6374 18.2435 20.609C18.2043 20.5806 18.1736 20.5419 18.1551 20.4972C18.1365 20.4524 18.1308 20.4034 18.1385 20.3556L18.4151 18.7483L17.2438 17.6103C17.2089 17.5765 17.1841 17.5335 17.1724 17.4863C17.1607 17.4391 17.1624 17.3896 17.1775 17.3434C17.1926 17.2971 17.2204 17.2561 17.2577 17.2249C17.295 17.1937 17.3403 17.1736 17.3885 17.1669L19.0071 16.9323L19.7311 15.4703C19.7528 15.4267 19.7862 15.3901 19.8275 15.3645C19.8688 15.3388 19.9165 15.3253 19.9651 15.3253C20.0138 15.3253 20.0614 15.3388 20.1028 15.3645C20.1441 15.3901 20.1775 15.4267 20.1991 15.4703L20.9231 16.9323L22.5418 17.1669C22.5898 17.1738 22.635 17.194 22.6721 17.2253C22.7093 17.2565 22.7369 17.2975 22.752 17.3436C22.767 17.3897 22.7689 17.4392 22.7573 17.4863C22.7457 17.5334 22.7212 17.5763 22.6865 17.6103L21.5151 18.7483L21.7911 20.3549C21.7994 20.4028 21.7941 20.4521 21.7758 20.4971C21.7575 20.5422 21.7269 20.5812 21.6875 20.6097C21.6482 20.6383 21.6016 20.6552 21.5531 20.6586C21.5046 20.662 21.4561 20.6517 21.4131 20.6289L19.9651 19.8703Z" stroke="white" stroke-linecap="round" stroke-linejoin="round"/>
</g>
<defs>
<clipPath id="clip0_829_203938">
<rect width="16" height="16" fill="white" transform="translate(8.09845 5.99219)"/>
</clipPath>
</defs>
</svg>
