<svg width="30" height="27" viewBox="0 0 30 27" fill="none" xmlns="http://www.w3.org/2000/svg">
<rect y="6.63477" width="22.061" height="18.5476" rx="5" transform="rotate(-10.7362 0 6.63477)" fill="#0C1C29"/>
<rect x="5.75776" y="1.13561" width="23" height="23" rx="4.5" transform="rotate(5.5189 5.75776 1.13561)" fill="#01060B"/>
<rect x="5.75776" y="1.13561" width="23" height="23" rx="4.5" transform="rotate(5.5189 5.75776 1.13561)" stroke="#F9F9FA"/>
<path d="M15.9618 19.6875H11.4318C11.0782 19.6875 10.739 19.547 10.489 19.297C10.2389 19.0469 10.0984 18.7078 10.0984 18.3542V10.3542C10.0984 10.0005 10.2389 9.66141 10.489 9.41136C10.739 9.16131 11.0782 9.02083 11.4318 9.02083H19.4318C19.7854 9.02083 20.1245 9.16131 20.3746 9.41136C20.6246 9.66141 20.7651 10.0005 20.7651 10.3542V13.0208H10.0984M18.0984 7.6875V10.3542M12.7651 7.6875V10.3542M20.0985 16.6848V17.6875L20.7651 18.3542M17.4318 17.6875C17.4318 18.3947 17.7127 19.073 18.2128 19.5731C18.7129 20.0732 19.3912 20.3542 20.0985 20.3542C20.8057 20.3542 21.484 20.0732 21.9841 19.5731C22.4842 19.073 22.7651 18.3947 22.7651 17.6875C22.7651 16.9803 22.4842 16.302 21.9841 15.8019C21.484 15.3018 20.8057 15.0208 20.0985 15.0208C19.3912 15.0208 18.7129 15.3018 18.2128 15.8019C17.7127 16.302 17.4318 16.9803 17.4318 17.6875Z" stroke="white" stroke-linecap="round" stroke-linejoin="round"/>
</svg>
