<svg width="30" height="27" viewBox="0 0 30 27" fill="none" xmlns="http://www.w3.org/2000/svg">
<rect y="6.04492" width="22.061" height="18.5476" rx="5" transform="rotate(-10.7362 0 6.04492)" fill="#0C1C29"/>
<rect x="5.75777" y="0.545769" width="23" height="23" rx="4.5" transform="rotate(5.5189 5.75777 0.545769)" fill="#01060B"/>
<rect x="5.75777" y="0.545769" width="23" height="23" rx="4.5" transform="rotate(5.5189 5.75777 0.545769)" stroke="#F9F9FA"/>
<path d="M22.0985 13.0976C22.0985 11.9104 21.7462 10.7498 21.0863 9.76284C20.4265 8.77586 19.4886 8.00683 18.3915 7.5531C17.2943 7.09937 16.0873 6.98133 14.923 7.21393C13.7588 7.44652 12.6897 8.01929 11.8511 8.85974C11.0125 9.70019 10.4421 10.7705 10.2121 11.9353C9.98212 13.1001 10.1028 14.3069 10.559 15.403C11.0152 16.4991 11.7863 17.4353 12.7747 18.0929C13.7632 18.7506 14.9245 19.1003 16.1118 19.0976M16.0985 9.76431V13.0976L16.7651 13.7643M22.7651 15.7643C22.7651 18.431 21.0985 19.7643 20.4318 19.7643C19.7651 19.7643 18.0985 18.431 18.0985 15.7643C18.7651 15.7643 19.7651 15.431 20.4318 14.7643C21.0985 15.431 22.0985 15.7643 22.7651 15.7643Z" stroke="white" stroke-linecap="round" stroke-linejoin="round"/>
</svg>
