<svg width="30" height="27" viewBox="0 0 30 27" fill="none" xmlns="http://www.w3.org/2000/svg">
<rect y="6.43945" width="22.061" height="18.5476" rx="5" transform="rotate(-10.7362 0 6.43945)" fill="#0C1C29"/>
<rect x="5.75777" y="0.940301" width="23" height="23" rx="4.5" transform="rotate(5.5189 5.75777 0.940301)" fill="#01060B"/>
<rect x="5.75777" y="0.940301" width="23" height="23" rx="4.5" transform="rotate(5.5189 5.75777 0.940301)" stroke="#F9F9FA"/>
<path d="M22.0891 13.826C22.1608 12.5396 21.8165 11.2644 21.1072 10.1889C20.3979 9.1134 19.3613 8.29477 18.1507 7.8541C16.9401 7.41343 15.6198 7.37412 14.3851 7.74201C13.1504 8.10989 12.0669 8.86541 11.2949 9.89681C10.5229 10.9282 10.1034 12.1807 10.0985 13.469C10.0935 14.7573 10.5033 16.013 11.2673 17.0504C12.0313 18.0877 13.109 18.8516 14.3408 19.229C15.5726 19.6064 16.8931 19.5773 18.1071 19.146M16.0985 10.158V13.4913L18.0985 15.4913M20.7651 16.158V18.158M20.7651 20.158V20.1646" stroke="white" stroke-linecap="round" stroke-linejoin="round"/>
</svg>
