<svg width="30" height="27" viewBox="0 0 30 27" fill="none" xmlns="http://www.w3.org/2000/svg">
<rect y="6.04492" width="22.061" height="18.5476" rx="5" transform="rotate(-10.7362 0 6.04492)" fill="#0C1C29"/>
<rect x="5.75776" y="0.545769" width="23" height="23" rx="4.5" transform="rotate(5.5189 5.75776 0.545769)" fill="#01060B"/>
<rect x="5.75776" y="0.545769" width="23" height="23" rx="4.5" transform="rotate(5.5189 5.75776 0.545769)" stroke="#F9F9FA"/>
<path d="M14.7651 18.431C14.7651 18.7846 14.9056 19.1238 15.1557 19.3738C15.4057 19.6238 15.7448 19.7643 16.0985 19.7643C16.4521 19.7643 16.7912 19.6238 17.0413 19.3738C17.2913 19.1238 17.4318 18.7846 17.4318 18.431M14.7651 18.431C14.7651 18.0774 14.9056 17.7382 15.1557 17.4882C15.4057 17.2381 15.7448 17.0977 16.0985 17.0977C16.4521 17.0977 16.7912 17.2381 17.0413 17.4882C17.2913 17.7382 17.4318 18.0774 17.4318 18.431M14.7651 18.431H10.7651M17.4318 18.431H21.4318M14.0985 9.09766H18.0985M14.0985 11.0977H16.0985M16.0985 15.0977L14.7651 13.7643H12.7651C12.5883 13.7643 12.4188 13.6941 12.2937 13.5691C12.1687 13.444 12.0985 13.2745 12.0985 13.0977V7.76432C12.0985 7.58751 12.1687 7.41794 12.2937 7.29292C12.4188 7.16789 12.5883 7.09766 12.7651 7.09766H19.4318C19.6086 7.09766 19.7782 7.16789 19.9032 7.29292C20.0282 7.41794 20.0985 7.58751 20.0985 7.76432V13.0977C20.0985 13.2745 20.0282 13.444 19.9032 13.5691C19.7782 13.6941 19.6086 13.7643 19.4318 13.7643H17.4318L16.0985 15.0977Z" stroke="white" stroke-linecap="round" stroke-linejoin="round"/>
</svg>
