<svg width="30" height="27" viewBox="0 0 30 27" fill="none" xmlns="http://www.w3.org/2000/svg">
<rect y="6.63477" width="22.061" height="18.5476" rx="5" transform="rotate(-10.7362 0 6.63477)" fill="#0C1C29"/>
<rect x="5.75777" y="1.13561" width="23" height="23" rx="4.5" transform="rotate(5.5189 5.75777 1.13561)" fill="#01060B"/>
<rect x="5.75777" y="1.13561" width="23" height="23" rx="4.5" transform="rotate(5.5189 5.75777 1.13561)" stroke="#F9F9FA"/>
<path d="M22.0871 14.053C22.1613 12.8378 21.864 11.6288 21.2348 10.5866C20.6057 9.54436 19.6743 8.71818 18.5645 8.21778C17.4546 7.71738 16.2188 7.56643 15.0212 7.78497C13.8235 8.00351 12.7207 8.58121 11.8591 9.44135C10.9976 10.3015 10.4181 11.4034 10.1975 12.6006C9.977 13.7979 10.1259 15.034 10.6245 16.1446C11.123 17.2553 11.9477 18.188 12.9888 18.8189C14.03 19.4498 15.2385 19.7491 16.4538 19.677M20.7651 20.3543V16.3543M20.7651 16.3543L22.7651 18.3543M20.7651 16.3543L18.7651 18.3543M16.0985 10.3543V13.6876L17.7651 15.3543" stroke="white" stroke-linecap="round" stroke-linejoin="round"/>
</svg>
