<svg width="30" height="27" viewBox="0 0 30 27" fill="none" xmlns="http://www.w3.org/2000/svg">
<rect y="6.04492" width="22.061" height="18.5476" rx="5" transform="rotate(-10.7362 0 6.04492)" fill="#0C1C29"/>
<rect x="5.75776" y="0.545769" width="23" height="23" rx="4.5" transform="rotate(5.5189 5.75776 0.545769)" fill="#01060B"/>
<rect x="5.75776" y="0.545769" width="23" height="23" rx="4.5" transform="rotate(5.5189 5.75776 0.545769)" stroke="#F9F9FA"/>
<path d="M18.7651 7.09766V9.76432M13.4318 7.09766V9.76432M10.7651 12.431H21.4318M15.4318 15.0977H16.0984V17.0977M10.7651 9.76432C10.7651 9.4107 10.9056 9.07156 11.1556 8.82151C11.4057 8.57147 11.7448 8.43099 12.0984 8.43099H20.0984C20.4521 8.43099 20.7912 8.57147 21.0412 8.82151C21.2913 9.07156 21.4318 9.4107 21.4318 9.76432V17.7643C21.4318 18.1179 21.2913 18.4571 21.0412 18.7071C20.7912 18.9572 20.4521 19.0977 20.0984 19.0977H12.0984C11.7448 19.0977 11.4057 18.9572 11.1556 18.7071C10.9056 18.4571 10.7651 18.1179 10.7651 17.7643V9.76432Z" stroke="white" stroke-linecap="round" stroke-linejoin="round"/>
</svg>
