<svg width="98" height="74" viewBox="0 0 98 74" fill="none" xmlns="http://www.w3.org/2000/svg">
<g clip-path="url(#clip0_992_4365)">
<path d="M1 3.4C1 2.07452 2.07452 1 3.4 1H94.6C95.9253 1 97 2.07452 97 3.4V6.28H1V3.4Z" fill="white"/>
<mask id="mask0_992_4365" style="mask-type:luminance" maskUnits="userSpaceOnUse" x="1" y="1" width="96" height="6">
<path d="M1 3.4C1 2.07452 2.07452 1 3.4 1H94.6C95.9253 1 97 2.07452 97 3.4V6.28H1V3.4Z" fill="white"/>
</mask>
<g mask="url(#mask0_992_4365)">
<path d="M0.759995 3.40001C0.759995 1.94198 1.94196 0.76001 3.39999 0.76001H94.6C96.0582 0.76001 97.24 1.94198 97.24 3.40001H96.76C96.76 2.20708 95.7928 1.24001 94.6 1.24001H3.39999C2.20706 1.24001 1.23999 2.20708 1.23999 3.40001H0.759995ZM0.759995 6.28001V3.40001C0.759995 1.94198 1.94196 0.76001 3.39999 0.76001V1.24001C2.20706 1.24001 1.23999 2.20708 1.23999 3.40001V6.28001H0.759995ZM94.6 0.76001C96.0582 0.76001 97.24 1.94198 97.24 3.40001V6.28001H96.76V3.40001C96.76 2.20708 95.7928 1.24001 94.6 1.24001V0.76001Z" fill="#E5E7EB"/>
</g>
<path d="M4.11999 4.36001C4.51764 4.36001 4.83999 4.03766 4.83999 3.64001C4.83999 3.24237 4.51764 2.92001 4.11999 2.92001C3.72235 2.92001 3.39999 3.24237 3.39999 3.64001C3.39999 4.03766 3.72235 4.36001 4.11999 4.36001Z" fill="#D00C0C"/>
<path d="M6.52 4.36001C6.91765 4.36001 7.24 4.03766 7.24 3.64001C7.24 3.24237 6.91765 2.92001 6.52 2.92001C6.12236 2.92001 5.8 3.24237 5.8 3.64001C5.8 4.03766 6.12236 4.36001 6.52 4.36001Z" fill="#03C95A"/>
<path d="M8.92 4.36001C9.31764 4.36001 9.64 4.03766 9.64 3.64001C9.64 3.24237 9.31764 2.92001 8.92 2.92001C8.52235 2.92001 8.2 3.24237 8.2 3.64001C8.2 4.03766 8.52235 4.36001 8.92 4.36001Z" fill="#FFC107"/>
<path d="M1 6H98V71.6679C98 72.9557 96.9658 74 95.6905 74H3.30952C2.03401 74 1 72.9557 1 71.6679V6Z" fill="#01060B"/>
<mask id="mask1_992_4365" style="mask-type:luminance" maskUnits="userSpaceOnUse" x="1" y="6" width="96" height="5">
<path d="M1 6.28H97V10.12H1V6.28Z" fill="white"/>
</mask>
<g mask="url(#mask1_992_4365)">
<path d="M97 9.88H1V10.36H97V9.88Z" fill="#E5E7EB"/>
</g>
<path d="M9.24 7H3.96C3.42981 7 3 7.42981 3 7.96C3 8.49019 3.42981 8.92 3.96 8.92H9.24C9.77019 8.92 10.2 8.49019 10.2 7.96C10.2 7.42981 9.77019 7 9.24 7Z" fill="#3550DC"/>
<path d="M24.28 7.23999H17.08C16.6824 7.23999 16.36 7.56235 16.36 7.95999C16.36 8.35764 16.6824 8.67999 17.08 8.67999H24.28C24.6776 8.67999 25 8.35764 25 7.95999C25 7.56235 24.6776 7.23999 24.28 7.23999Z" fill="white"/>
<path d="M33.88 7.23999H26.68C26.2823 7.23999 25.96 7.56235 25.96 7.95999C25.96 8.35764 26.2823 8.67999 26.68 8.67999H33.88C34.2776 8.67999 34.6 8.35764 34.6 7.95999C34.6 7.56235 34.2776 7.23999 33.88 7.23999Z" fill="white"/>
<path d="M39.16 7.23999H36.28C35.8824 7.23999 35.56 7.56235 35.56 7.95999C35.56 8.35764 35.8824 8.67999 36.28 8.67999H39.16C39.5576 8.67999 39.88 8.35764 39.88 7.95999C39.88 7.56235 39.5576 7.23999 39.16 7.23999Z" fill="white"/>
<path d="M50.68 7.23999H41.56C41.1624 7.23999 40.84 7.56235 40.84 7.95999C40.84 8.35764 41.1624 8.67999 41.56 8.67999H50.68C51.0776 8.67999 51.4 8.35764 51.4 7.95999C51.4 7.56235 51.0776 7.23999 50.68 7.23999Z" fill="white"/>
<path d="M57.88 7.23999H53.08C52.6823 7.23999 52.36 7.56235 52.36 7.95999C52.36 8.35764 52.6823 8.67999 53.08 8.67999H57.88C58.2776 8.67999 58.6 8.35764 58.6 7.95999C58.6 7.56235 58.2776 7.23999 57.88 7.23999Z" fill="white"/>
<path d="M82.12 9.15999C82.6502 9.15999 83.08 8.73018 83.08 8.19999C83.08 7.6698 82.6502 7.23999 82.12 7.23999C81.5898 7.23999 81.16 7.6698 81.16 8.19999C81.16 8.73018 81.5898 9.15999 82.12 9.15999Z" fill="white"/>
<path d="M85 9.15999C85.5302 9.15999 85.96 8.73018 85.96 8.19999C85.96 7.6698 85.5302 7.23999 85 7.23999C84.4698 7.23999 84.04 7.6698 84.04 8.19999C84.04 8.73018 84.4698 9.15999 85 9.15999Z" fill="white"/>
<path d="M87.88 9.15999C88.4102 9.15999 88.84 8.73018 88.84 8.19999C88.84 7.6698 88.4102 7.23999 87.88 7.23999C87.3498 7.23999 86.92 7.6698 86.92 8.19999C86.92 8.73018 87.3498 9.15999 87.88 9.15999Z" fill="white"/>
<path d="M90.76 9.15999C91.2902 9.15999 91.72 8.73018 91.72 8.19999C91.72 7.6698 91.2902 7.23999 90.76 7.23999C90.2298 7.23999 89.8 7.6698 89.8 8.19999C89.8 8.73018 90.2298 9.15999 90.76 9.15999Z" fill="white"/>
<path d="M93.64 9.15999C94.1702 9.15999 94.6 8.73018 94.6 8.19999C94.6 7.6698 94.1702 7.23999 93.64 7.23999C93.1098 7.23999 92.68 7.6698 92.68 8.19999C92.68 8.73018 93.1098 9.15999 93.64 9.15999Z" fill="white"/>
<path d="M91 12H27C24.7909 12 23 13.7909 23 16V66C23 68.2091 24.7909 70 27 70H91C93.2091 70 95 68.2091 95 66V16C95 13.7909 93.2091 12 91 12Z" fill="white"/>
<path d="M13.72 16.84H6.52C6.12236 16.84 5.8 17.1624 5.8 17.56C5.8 17.9576 6.12236 18.28 6.52 18.28H13.72C14.1176 18.28 14.44 17.9576 14.44 17.56C14.44 17.1624 14.1176 16.84 13.72 16.84Z" fill="white"/>
<path d="M13.72 19.24H6.52C6.12236 19.24 5.8 19.5623 5.8 19.96C5.8 20.3576 6.12236 20.68 6.52 20.68H13.72C14.1176 20.68 14.44 20.3576 14.44 19.96C14.44 19.5623 14.1176 19.24 13.72 19.24Z" fill="white"/>
<path d="M9.4 21.64H6.52C6.12236 21.64 5.8 21.9624 5.8 22.36C5.8 22.7577 6.12236 23.08 6.52 23.08H9.4C9.79765 23.08 10.12 22.7577 10.12 22.36C10.12 21.9624 9.79765 21.64 9.4 21.64Z" fill="white"/>
<path d="M15.64 24.04H6.52C6.12236 24.04 5.8 24.3624 5.8 24.76C5.8 25.1577 6.12236 25.48 6.52 25.48H15.64C16.0376 25.48 16.36 25.1577 16.36 24.76C16.36 24.3624 16.0376 24.04 15.64 24.04Z" fill="white"/>
<path d="M11.32 26.44H6.52C6.12236 26.44 5.8 26.7624 5.8 27.16C5.8 27.5576 6.12236 27.88 6.52 27.88H11.32C11.7176 27.88 12.04 27.5576 12.04 27.16C12.04 26.7624 11.7176 26.44 11.32 26.44Z" fill="white"/>
<path d="M15.64 28.84H6.52C6.12236 28.84 5.8 29.1624 5.8 29.56C5.8 29.9576 6.12236 30.28 6.52 30.28H15.64C16.0376 30.28 16.36 29.9576 16.36 29.56C16.36 29.1624 16.0376 28.84 15.64 28.84Z" fill="white"/>
<path d="M10.36 31.24H6.52C6.12236 31.24 5.8 31.5623 5.8 31.96C5.8 32.3576 6.12236 32.68 6.52 32.68H10.36C10.7576 32.68 11.08 32.3576 11.08 31.96C11.08 31.5623 10.7576 31.24 10.36 31.24Z" fill="white"/>
<path d="M18.04 33.64H6.52C6.12236 33.64 5.8 33.9624 5.8 34.36C5.8 34.7577 6.12236 35.08 6.52 35.08H18.04C18.4376 35.08 18.76 34.7577 18.76 34.36C18.76 33.9624 18.4376 33.64 18.04 33.64Z" fill="white"/>
<path d="M13.72 36.04H6.52C6.12236 36.04 5.8 36.3624 5.8 36.76C5.8 37.1577 6.12236 37.48 6.52 37.48H13.72C14.1176 37.48 14.44 37.1577 14.44 36.76C14.44 36.3624 14.1176 36.04 13.72 36.04Z" fill="white"/>
<path d="M18.04 38.44H6.52C6.12236 38.44 5.8 38.7624 5.8 39.16C5.8 39.5576 6.12236 39.88 6.52 39.88H18.04C18.4376 39.88 18.76 39.5576 18.76 39.16C18.76 38.7624 18.4376 38.44 18.04 38.44Z" fill="white"/>
<path d="M5.7998 64.392H18.7598" stroke="white" stroke-width="0.2"/>
<path d="M10.3399 66.36C10.3399 66.6141 10.134 66.82 9.87992 66.82C9.62587 66.82 9.41992 66.6141 9.41992 66.36C9.41992 66.106 9.62587 65.9 9.87992 65.9C10.134 65.9 10.3399 66.106 10.3399 66.36Z" fill="white" stroke="white"/>
<path d="M12.7403 66.36C12.7403 66.6141 12.5344 66.82 12.2803 66.82C12.0263 66.82 11.8203 66.6141 11.8203 66.36C11.8203 66.106 12.0263 65.9 12.2803 65.9C12.5344 65.9 12.7403 66.106 12.7403 66.36Z" fill="white" stroke="white"/>
<path d="M15.1397 66.36C15.1397 66.6141 14.9338 66.82 14.6797 66.82C14.4257 66.82 14.2197 66.6141 14.2197 66.36C14.2197 66.106 14.4257 65.9 14.6797 65.9C14.9338 65.9 15.1397 66.106 15.1397 66.36Z" fill="white" stroke="white"/>
<path d="M58.16 72.04H39.44C39.1749 72.04 38.96 71.8251 38.96 71.56C38.96 71.2949 39.1749 71.08 39.44 71.08H58.16C58.4251 71.08 58.64 71.2949 58.64 71.56C58.64 71.8251 58.4251 72.04 58.16 72.04Z" fill="#EDF2F4"/>
</g>
<rect x="0.5" y="0.5" width="97" height="73" rx="5.5" stroke="#01060B"/>
<defs>
<clipPath id="clip0_992_4365">
<rect x="1" y="1" width="96" height="72" rx="5" fill="white"/>
</clipPath>
</defs>
</svg>
