<svg width="99" height="74" viewBox="0 0 99 74" fill="none" xmlns="http://www.w3.org/2000/svg">
<g clip-path="url(#clip0_992_4301)">
<path d="M1.24005 1H97.2401V6.28H1.24005V1Z" fill="white"/>
<path d="M4.36008 4.36C4.75772 4.36 5.08008 4.03764 5.08008 3.64C5.08008 3.24235 4.75772 2.92 4.36008 2.92C3.96243 2.92 3.64008 3.24235 3.64008 3.64C3.64008 4.03764 3.96243 4.36 4.36008 4.36Z" fill="#FF0000"/>
<path d="M6.76007 4.36C7.15771 4.36 7.48007 4.03764 7.48007 3.64C7.48007 3.24235 7.15771 2.92 6.76007 2.92C6.36242 2.92 6.04007 3.24235 6.04007 3.64C6.04007 4.03764 6.36242 4.36 6.76007 4.36Z" fill="#3EB780"/>
<path d="M9.16006 4.36C9.55771 4.36 9.88006 4.03764 9.88006 3.64C9.88006 3.24235 9.55771 2.92 9.16006 2.92C8.76242 2.92 8.44006 3.24235 8.44006 3.64C8.44006 4.03764 8.76242 4.36 9.16006 4.36Z" fill="#FFCA18"/>
<path d="M1.36041 6.40002H97.4805V73H1.36041V6.40002Z" fill="#01060B"/>
<path d="M0.360413 6.40002H5.88041V73H2.64041C1.3812 73 0.360413 71.9772 0.360413 70.7159V6.40002Z" fill="#01060B"/>
<path d="M4.59975 8.23999H3.63975C3.10956 8.23999 2.67975 8.6698 2.67975 9.19999C2.67975 9.73018 3.10956 10.16 3.63975 10.16H4.59975C5.12994 10.16 5.55975 9.73018 5.55975 9.19999C5.55975 8.6698 5.12994 8.23999 4.59975 8.23999Z" fill="#01060B"/>
<path d="M4.60008 12.04C4.60008 11.7749 4.38517 11.56 4.12008 11.56C3.85498 11.56 3.64008 11.7749 3.64008 12.04V13.48C3.64008 13.7451 3.85498 13.96 4.12008 13.96C4.38517 13.96 4.60008 13.7451 4.60008 13.48V12.04Z" fill="white"/>
<path d="M4.60008 15.4C4.60008 15.1349 4.38517 14.92 4.12008 14.92C3.85498 14.92 3.64008 15.1349 3.64008 15.4V16.36C3.64008 16.6251 3.85498 16.84 4.12008 16.84C4.38517 16.84 4.60008 16.6251 4.60008 16.36V15.4Z" fill="white"/>
<path d="M4.60008 18.28C4.60008 18.0149 4.38517 17.8 4.12008 17.8C3.85498 17.8 3.64008 18.0149 3.64008 18.28V19.72C3.64008 19.9851 3.85498 20.2 4.12008 20.2C4.38517 20.2 4.60008 19.9851 4.60008 19.72V18.28Z" fill="white"/>
<path d="M4.60008 21.64C4.60008 21.3749 4.38517 21.16 4.12008 21.16C3.85498 21.16 3.64008 21.3749 3.64008 21.64V22.6C3.64008 22.8651 3.85498 23.08 4.12008 23.08C4.38517 23.08 4.60008 22.8651 4.60008 22.6V21.64Z" fill="white"/>
<path d="M4.60008 24.52C4.60008 24.2549 4.38517 24.04 4.12008 24.04C3.85498 24.04 3.64008 24.2549 3.64008 24.52V25.96C3.64008 26.2251 3.85498 26.44 4.12008 26.44C4.38517 26.44 4.60008 26.2251 4.60008 25.96V24.52Z" fill="white"/>
<path d="M4.60008 27.88C4.60008 27.6149 4.38517 27.4 4.12008 27.4C3.85498 27.4 3.64008 27.6149 3.64008 27.88V29.32C3.64008 29.5851 3.85498 29.8 4.12008 29.8C4.38517 29.8 4.60008 29.5851 4.60008 29.32V27.88Z" fill="white"/>
<path d="M4.60008 31.24C4.60008 30.9749 4.38517 30.76 4.12008 30.76C3.85498 30.76 3.64008 30.9749 3.64008 31.24V32.2C3.64008 32.4651 3.85498 32.68 4.12008 32.68C4.38517 32.68 4.60008 32.4651 4.60008 32.2V31.24Z" fill="white"/>
<path d="M4.60008 34.12C4.60008 33.8549 4.38517 33.64 4.12008 33.64C3.85498 33.64 3.64008 33.8549 3.64008 34.12V35.08C3.64008 35.3451 3.85498 35.56 4.12008 35.56C4.38517 35.56 4.60008 35.3451 4.60008 35.08V34.12Z" fill="white"/>
<path d="M4.60008 37C4.60008 36.7349 4.38517 36.52 4.12008 36.52C3.85498 36.52 3.64008 36.7349 3.64008 37V38.44C3.64008 38.7051 3.85498 38.92 4.12008 38.92C4.38517 38.92 4.60008 38.7051 4.60008 38.44V37Z" fill="white"/>
<path d="M15.4005 8.71997H8.20053C7.80288 8.71997 7.48053 9.04233 7.48053 9.43997C7.48053 9.83762 7.80288 10.16 8.20053 10.16H15.4005C15.7982 10.16 16.1205 9.83762 16.1205 9.43997C16.1205 9.04233 15.7982 8.71997 15.4005 8.71997Z" fill="white"/>
<path d="M15.4005 11.12H8.20053C7.80288 11.12 7.48053 11.4424 7.48053 11.84C7.48053 12.2376 7.80288 12.56 8.20053 12.56H15.4005C15.7982 12.56 16.1205 12.2376 16.1205 11.84C16.1205 11.4424 15.7982 11.12 15.4005 11.12Z" fill="white"/>
<path d="M11.0805 13.52H8.20053C7.80288 13.52 7.48053 13.8424 7.48053 14.24C7.48053 14.6377 7.80288 14.96 8.20053 14.96H11.0805C11.4782 14.96 11.8005 14.6377 11.8005 14.24C11.8005 13.8424 11.4782 13.52 11.0805 13.52Z" fill="white"/>
<path d="M17.3205 15.92H8.20053C7.80288 15.92 7.48053 16.2423 7.48053 16.64C7.48053 17.0376 7.80288 17.36 8.20053 17.36H17.3205C17.7182 17.36 18.0405 17.0376 18.0405 16.64C18.0405 16.2423 17.7182 15.92 17.3205 15.92Z" fill="white"/>
<path d="M13.0005 18.32H8.20053C7.80288 18.32 7.48053 18.6424 7.48053 19.04C7.48053 19.4377 7.80288 19.76 8.20053 19.76H13.0005C13.3982 19.76 13.7205 19.4377 13.7205 19.04C13.7205 18.6424 13.3982 18.32 13.0005 18.32Z" fill="white"/>
<path d="M17.3205 20.72H8.20053C7.80288 20.72 7.48053 21.0423 7.48053 21.44C7.48053 21.8376 7.80288 22.16 8.20053 22.16H17.3205C17.7182 22.16 18.0405 21.8376 18.0405 21.44C18.0405 21.0423 17.7182 20.72 17.3205 20.72Z" fill="white"/>
<path d="M12.0405 23.12H8.20053C7.80288 23.12 7.48053 23.4424 7.48053 23.84C7.48053 24.2376 7.80288 24.56 8.20053 24.56H12.0405C12.4382 24.56 12.7605 24.2376 12.7605 23.84C12.7605 23.4424 12.4382 23.12 12.0405 23.12Z" fill="white"/>
<path d="M19.7205 25.52H8.20053C7.80288 25.52 7.48053 25.8424 7.48053 26.24C7.48053 26.6377 7.80288 26.96 8.20053 26.96H19.7205C20.1182 26.96 20.4405 26.6377 20.4405 26.24C20.4405 25.8424 20.1182 25.52 19.7205 25.52Z" fill="white"/>
<path d="M15.4005 27.92H8.20053C7.80288 27.92 7.48053 28.2423 7.48053 28.64C7.48053 29.0376 7.80288 29.36 8.20053 29.36H15.4005C15.7982 29.36 16.1205 29.0376 16.1205 28.64C16.1205 28.2423 15.7982 27.92 15.4005 27.92Z" fill="white"/>
<path d="M19.7205 30.32H8.20053C7.80288 30.32 7.48053 30.6424 7.48053 31.04C7.48053 31.4377 7.80288 31.76 8.20053 31.76H19.7205C20.1182 31.76 20.4405 31.4377 20.4405 31.04C20.4405 30.6424 20.1182 30.32 19.7205 30.32Z" fill="white"/>
<path d="M90.1749 7.71997H27.8399C25.0785 7.71997 22.8399 9.95855 22.8399 12.72V65.12C22.8399 67.8814 25.0785 70.12 27.8399 70.12H90.1749C92.9363 70.12 95.1749 67.8814 95.1749 65.12V12.72C95.1749 9.95855 92.9363 7.71997 90.1749 7.71997Z" fill="white"/>
<path d="M68.2001 72.04H49.4801C49.215 72.04 49.0001 71.8251 49.0001 71.56C49.0001 71.2949 49.215 71.08 49.4801 71.08H68.2001C68.4652 71.08 68.6801 71.2949 68.6801 71.56C68.6801 71.8251 68.4652 72.04 68.2001 72.04Z" fill="white"/>
</g>
<rect x="0.500061" y="0.5" width="97.48" height="73" rx="4.5" stroke="#01060B"/>
<defs>
<clipPath id="clip0_992_4301">
<rect x="1.00006" y="1" width="96.48" height="72" rx="4" fill="white"/>
</clipPath>
</defs>
</svg>
