<svg width="120" height="33" viewBox="0 0 120 33" fill="none" xmlns="http://www.w3.org/2000/svg">
<g filter="url(#filter0_i_1109_18489)">
<path d="M0 7.93157C0 5.89236 1.6531 4.23926 3.69231 4.23926H16.6154C20.6938 4.23926 24 7.54546 24 11.6239V24.547C24 26.5862 22.3469 28.2393 20.3077 28.2393H3.69231C1.6531 28.2393 0 26.5862 0 24.547V7.93157Z" fill="url(#paint0_linear_1109_18489)"/>
</g>
<path d="M18.5553 18.1835C18.6899 18.2144 18.824 18.1303 18.8549 17.9957C18.8857 17.8611 18.8017 17.727 18.6671 17.6961L18.5553 18.1835ZM15.2349 15.1123C15.3533 15.0413 15.3917 14.8877 15.3207 14.7693C15.2496 14.6509 15.0961 14.6125 14.9777 14.6836L15.2349 15.1123ZM12.7498 16.8515L18.5553 18.1835L18.6671 17.6961L12.8616 16.3641L12.7498 16.8515ZM13.3887 16.22L15.2349 15.1123L14.9777 14.6836L13.1315 15.7913L13.3887 16.22Z" fill="#A1B0FC"/>
<path d="M15.7257 22.7598C16.0096 22.5778 16.2523 22.3968 16.4207 22.2375L16.2489 22.0559C16.3146 21.9937 16.3614 21.9412 16.3914 21.8996C16.408 21.8765 16.4161 21.8613 16.4198 21.8535C16.4197 21.8522 16.4195 21.8509 16.4194 21.8494L16.4218 21.8491C16.4224 21.8478 16.4227 21.8471 16.4227 21.8472C16.4228 21.8472 16.4226 21.8478 16.4224 21.849L16.6675 21.8188C16.6623 21.7769 16.6512 21.7285 16.6369 21.6836L16.3986 21.7594C16.3963 21.7519 16.3939 21.7449 16.3915 21.7385C16.391 21.7378 16.3904 21.7371 16.3898 21.7364C16.3781 21.7219 16.3603 21.7012 16.3356 21.6734C16.2863 21.6181 16.2148 21.5411 16.1206 21.4419L16.3019 21.2697C16.1433 21.1028 15.9251 20.8782 15.6485 20.5976L15.4705 20.7731C15.2789 20.5787 15.0592 20.3573 14.8117 20.1093L14.9887 19.9327C14.7862 19.7297 14.5652 19.509 14.3259 19.271L14.1496 19.4482C14.0424 19.3416 13.9316 19.2316 13.8172 19.118L13.4992 18.8025L13.6753 18.6251L13.0394 17.9941L12.8633 18.1716L12.2274 17.5407L12.4035 17.3632L11.7676 16.7323L11.5915 16.9097L11.2736 16.5943L11.0961 16.4182L11.2722 16.2407L11.5906 15.9198L11.7681 16.0959L12.4049 15.454L12.2275 15.2779L12.8643 14.6361L13.0418 14.8121L13.6786 14.1703L13.5012 13.9942L13.8196 13.6733L14.1499 13.3401L14.3275 13.516C14.5686 13.2726 14.7883 13.0502 14.9876 12.8478L14.8095 12.6724C15.0596 12.4184 15.2774 12.196 15.4651 12.0031L15.6443 12.1774C15.9256 11.8882 16.1396 11.6647 16.2927 11.4999L16.1096 11.3297C16.2052 11.2269 16.2745 11.1498 16.3207 11.0952C16.3425 11.0694 16.3574 11.0508 16.3667 11.0383C16.3752 11.0082 16.3728 10.9919 16.3689 10.9784L16.6087 10.908C16.5761 10.7968 16.4837 10.6817 16.3155 10.5372L16.1526 10.7268C16.1031 10.6844 16.0451 10.6379 15.9774 10.5865L16.1286 10.3874L15.9776 10.5866C15.8543 10.4932 15.7291 10.404 15.6021 10.319L15.7411 10.1112C15.4747 9.93309 15.2007 9.77305 14.9206 9.63116L14.8076 9.85419C14.5317 9.71444 14.2497 9.59291 13.9631 9.48966L14.0478 9.25446C13.7479 9.1464 13.4432 9.05768 13.1352 8.98835L13.0803 9.23225C12.7803 9.16471 12.4771 9.11621 12.1725 9.08679L12.1965 8.83795C11.8808 8.80747 11.5635 8.79681 11.2464 8.80603L11.2537 9.05592C10.9478 9.06482 10.6421 9.09284 10.3381 9.14005L10.2997 8.89301C9.98786 8.94144 9.6778 9.00941 9.3712 9.09697L9.43985 9.33736C9.14701 9.42098 8.85735 9.52311 8.57241 9.64381L8.4749 9.41361C8.18582 9.53606 7.90151 9.67699 7.62349 9.83646L7.74788 10.0533C7.61547 10.1293 7.4845 10.2096 7.35514 10.2943C7.26318 10.3549 7.16535 10.4253 7.06359 10.5039L6.91081 10.306C6.72413 10.4501 6.52856 10.6177 6.33534 10.7977L6.50574 10.9806C6.32701 11.1471 6.15028 11.3246 5.98512 11.5036L5.80134 11.3342C5.62188 11.5287 5.45552 11.7254 5.31365 11.913L5.51304 12.0638C5.43547 12.1663 5.3666 12.2647 5.30807 12.3569L5.30716 12.3583C5.21939 12.4945 5.1364 12.633 5.05819 12.7737L4.83971 12.6521C4.67658 12.9455 4.53363 13.2475 4.41098 13.556L4.64329 13.6484C4.52354 13.9496 4.42377 14.2573 4.34411 14.5693L4.10188 14.5075C4.01915 14.8315 3.95743 15.16 3.91684 15.4906L4.16498 15.5211C4.12558 15.842 4.10675 16.165 4.1086 16.4879L3.8586 16.4893C3.86051 16.8228 3.88378 17.1562 3.92854 17.4873L4.17629 17.4538C4.21946 17.7731 4.2833 18.0901 4.3679 18.4025L4.12659 18.4678C4.21345 18.7886 4.3215 19.1048 4.45086 19.4142L4.68151 19.3178C4.74348 19.466 4.8105 19.6125 4.88259 19.7572C4.98494 19.9599 5.0759 20.1307 5.16592 20.2844L4.95019 20.4108C5.15865 20.7667 5.36752 21.0436 5.6889 21.3897L5.8721 21.2196C5.99306 21.3499 6.13136 21.4913 6.29411 21.6528C6.45543 21.8128 6.59702 21.9492 6.72743 22.0686L6.55861 22.253C6.90687 22.5719 7.18445 22.779 7.53462 22.9812L7.65964 22.7647C7.8132 22.8534 7.9831 22.9421 8.18439 23.0413C8.32594 23.1101 8.46935 23.1743 8.61435 23.2339L8.51937 23.4651C8.82104 23.589 9.12935 23.6935 9.44206 23.7783L9.50752 23.5371C9.81196 23.6197 10.1207 23.6831 10.4316 23.7271L10.3965 23.9746C10.7189 24.0203 11.0435 24.0458 11.3679 24.0509L11.3719 23.8009C11.6867 23.8059 12.0014 23.7911 12.3136 23.7564L12.3413 24.0049C12.6642 23.969 12.9848 23.9124 13.3007 23.835L13.2412 23.5922C13.3936 23.5548 13.5448 23.5125 13.6945 23.4652C13.8208 23.4249 13.9525 23.3774 14.0872 23.324L14.1794 23.5563C14.4412 23.4524 14.7105 23.3281 14.9708 23.1937L14.8562 22.9715C15.1166 22.8371 15.3674 22.6926 15.5908 22.5494L15.7257 22.7598Z" stroke="#8E9AFF" stroke-width="0.5" stroke-dasharray="1 1"/>
<path d="M11.4823 15.9721L11.4821 15.9721L11.4823 15.9721ZM11.4823 15.9721C11.619 15.9344 11.7321 15.9167 11.8285 15.9156L11.8257 15.6657C12.1095 15.6624 12.3346 15.7696 12.551 16.0115L12.3647 16.1782C12.4332 16.2547 12.5041 16.351 12.5794 16.471C12.58 16.4725 12.581 16.475 12.5822 16.4787C12.5854 16.488 12.5891 16.5014 12.5929 16.519L12.8373 16.4665M11.4823 15.9721L12.8373 16.4665M12.8373 16.4665C12.8529 16.5389 12.8619 16.6284 12.8624 16.7186L12.6124 16.7201C12.6126 16.7555 12.6113 16.7903 12.6083 16.8229C12.6017 16.8969 12.5829 16.9674 12.5524 17.0343L12.7799 17.1379C12.7013 17.3106 12.5672 17.464 12.3846 17.5903L12.2424 17.3848C12.1767 17.4302 12.1018 17.4726 12.0177 17.5109C11.8832 17.5701 11.738 17.5713 11.5925 17.5241L11.5153 17.7618C11.1289 17.6363 10.7994 17.2698 10.7229 16.8806L10.9682 16.8324C10.9396 16.6868 10.9609 16.5488 11.042 16.428C11.0774 16.3755 11.1141 16.3256 11.151 16.2791L10.9553 16.1236C11.0512 16.0028 11.1499 15.9016 11.2394 15.8313L11.3939 16.0278C11.4191 16.008 11.4403 15.9938 11.4569 15.9843C11.4733 15.975 11.4816 15.9723 11.4821 15.9721L12.8373 16.4665Z" fill="#3550DC" stroke="#636EC2" stroke-width="0.5" stroke-dasharray="1 1"/>
<path d="M17.7768 21.5188C17.7845 21.4554 17.7562 21.3326 17.7202 21.2494C17.6683 21.1505 16.7725 20.2302 15.1007 18.5714L12.5571 16.0477L15.1045 13.4802C16.9094 11.6611 17.6637 10.877 17.7029 10.7738C17.7892 10.5355 17.6775 10.3536 17.236 10.0182C14.6033 8.02224 11.0977 7.90118 8.3253 9.71616C7.61738 10.1829 6.65368 11.1462 6.20443 11.8537C4.72652 14.1474 4.55958 17.0782 5.76654 19.5001C6.19013 20.3391 6.44526 20.687 7.22545 21.4611C8.00564 22.2352 8.35954 22.4915 9.1819 22.8967C10.9617 23.7621 13.0241 23.9205 14.8775 23.3343C16.1012 22.9449 17.7149 21.9315 17.7768 21.5188Z" fill="white"/>
<path d="M8.27539 18.5899L12.8908 16.1899" stroke="#858896" stroke-width="0.5"/>
<path d="M12.5597 15.246C13.1065 15.0952 13.4209 15.2319 13.7651 15.7835C13.8098 15.8615 13.8329 16.0543 13.8181 16.2187C13.7885 16.5476 13.5581 16.8246 13.1743 16.9989C12.4792 17.3066 11.6319 16.3584 12.0522 15.7325C12.2245 15.4774 12.4287 15.282 12.5597 15.246Z" fill="#FE9738"/>
<rect x="8.45996" y="7.92334" width="1.10769" height="1.84615" transform="rotate(-21.7239 8.45996 7.92334)" fill="white"/>
<rect x="7.72168" y="7.73975" width="2.21538" height="0.738462" rx="0.369231" transform="rotate(-25.8189 7.72168 7.73975)" fill="white"/>
<circle opacity="0.4" cx="12.9693" cy="9.39701" r="0.369231" transform="rotate(0.678039 12.9693 9.39701)" fill="#3550DC"/>
<circle opacity="0.4" cx="9.25937" cy="10.8301" r="0.369231" transform="rotate(0.678039 9.25937 10.8301)" fill="#3550DC"/>
<circle opacity="0.4" cx="6.64023" cy="13.753" r="0.369231" transform="rotate(0.678039 6.64023 13.753)" fill="#3550DC"/>
<circle opacity="0.4" cx="6.59237" cy="17.8145" r="0.369231" transform="rotate(0.678039 6.59237 17.8145)" fill="#3550DC"/>
<circle opacity="0.4" cx="9.13241" cy="21.5371" r="0.369231" transform="rotate(0.678039 9.13241 21.5371)" fill="#3550DC"/>
<circle opacity="0.4" cx="12.8121" cy="22.6885" r="0.369231" transform="rotate(0.678039 12.8121 22.6885)" fill="#3550DC"/>
<g filter="url(#filter1_i_1109_18489)">
<path d="M117.776 14.8475C115.877 17.2395 111.993 22.1079 111.656 22.4456L109.123 18.0134L111.656 14.2144L117.776 14.8475Z" fill="url(#paint1_linear_1109_18489)"/>
</g>
<path d="M44.6203 23.8545C43.8234 24.5399 42.9308 25.0659 41.9425 25.4325C40.9543 25.7991 39.9302 25.9824 38.8702 25.9824C38.0573 25.9824 37.2723 25.8748 36.5152 25.6596C35.766 25.4524 35.0607 25.1575 34.3993 24.775C33.7457 24.3845 33.148 23.9182 32.6061 23.3763C32.0641 22.8344 31.5979 22.2366 31.2074 21.5831C30.8249 20.9217 30.526 20.2163 30.3108 19.4672C30.1036 18.7101 30 17.9251 30 17.1122C30 16.2993 30.1036 15.5142 30.3108 14.7571C30.526 14 30.8249 13.2947 31.2074 12.6412C31.5979 11.9797 32.0641 11.378 32.6061 10.8361C33.148 10.2941 33.7457 9.83188 34.3993 9.44934C35.0607 9.05883 35.766 8.75996 36.5152 8.55275C37.2723 8.33757 38.0573 8.22998 38.8702 8.22998C39.9302 8.22998 40.9543 8.41328 41.9425 8.77989C42.9308 9.13852 43.8234 9.66452 44.6203 10.3579L42.8033 13.3465C42.3012 12.8046 41.7074 12.3901 41.022 12.1032C40.3366 11.8084 39.6194 11.6609 38.8702 11.6609C38.1131 11.6609 37.4038 11.8044 36.7423 12.0913C36.0808 12.3782 35.503 12.7687 35.0089 13.2628C34.5148 13.749 34.1243 14.3268 33.8374 14.9962C33.5505 15.6577 33.407 16.363 33.407 17.1122C33.407 17.8613 33.5505 18.5666 33.8374 19.2281C34.1243 19.8816 34.5148 20.4554 35.0089 20.9496C35.503 21.4437 36.0808 21.8342 36.7423 22.1211C37.4038 22.408 38.1131 22.5515 38.8702 22.5515C39.6194 22.5515 40.3366 22.408 41.022 22.1211C41.7074 21.8262 42.3012 21.4078 42.8033 20.8659L44.6203 23.8545Z" fill="#F0F0F3"/>
<path d="M49.5575 25.6118H46.2701V7.71594H49.5575V25.6118Z" fill="#F0F0F3"/>
<path d="M64.4289 19.0966C64.4289 20.053 64.2576 20.9456 63.9149 21.7744C63.5722 22.5953 63.1059 23.3086 62.5162 23.9143C61.9264 24.512 61.2331 24.9862 60.4361 25.3368C59.6471 25.6795 58.7984 25.8509 57.8898 25.8509C56.9892 25.8509 56.1405 25.6795 55.3435 25.3368C54.5545 24.9862 53.8611 24.512 53.2634 23.9143C52.6737 23.3086 52.2074 22.5953 51.8647 21.7744C51.5221 20.9456 51.3507 20.053 51.3507 19.0966C51.3507 18.1243 51.5221 17.2237 51.8647 16.3949C52.2074 15.566 52.6737 14.8528 53.2634 14.255C53.8611 13.6493 54.5545 13.1752 55.3435 12.8325C56.1405 12.4898 56.9892 12.3184 57.8898 12.3184C58.7984 12.3184 59.6471 12.4818 60.4361 12.8085C61.2331 13.1273 61.9264 13.5856 62.5162 14.1833C63.1059 14.7731 63.5722 15.4864 63.9149 16.3232C64.2576 17.152 64.4289 18.0765 64.4289 19.0966ZM61.1414 19.0966C61.1414 18.5706 61.0538 18.0964 60.8784 17.674C60.7111 17.2437 60.4799 16.8771 60.1851 16.5742C59.8902 16.2634 59.5435 16.0283 59.145 15.8689C58.7545 15.7015 58.3361 15.6179 57.8898 15.6179C57.4435 15.6179 57.0211 15.7015 56.6226 15.8689C56.2321 16.0283 55.8894 16.2634 55.5945 16.5742C55.3076 16.8771 55.0805 17.2437 54.9131 17.674C54.7458 18.0964 54.6621 18.5706 54.6621 19.0966C54.6621 19.5907 54.7458 20.049 54.9131 20.4714C55.0805 20.8938 55.3076 21.2604 55.5945 21.5712C55.8894 21.882 56.2321 22.1291 56.6226 22.3124C57.0211 22.4877 57.4435 22.5754 57.8898 22.5754C58.3361 22.5754 58.7545 22.4917 59.145 22.3243C59.5435 22.157 59.8902 21.9218 60.1851 21.619C60.4799 21.3162 60.7111 20.9496 60.8784 20.5192C61.0538 20.0888 61.1414 19.6146 61.1414 19.0966Z" fill="#F0F0F3"/>
<path d="M77.4234 15.3549L75.0325 17.7577C74.913 17.423 74.7496 17.1241 74.5424 16.8611C74.3352 16.5901 74.1001 16.363 73.8371 16.1797C73.5821 15.9964 73.3031 15.8569 73.0003 15.7613C72.6974 15.6657 72.3866 15.6179 72.0678 15.6179C71.6215 15.6179 71.1991 15.7095 70.8007 15.8928C70.4101 16.0761 70.0674 16.3351 69.7726 16.6698C69.4857 16.9966 69.2585 17.3871 69.0912 17.8414C68.9238 18.2957 68.8401 18.7977 68.8401 19.3476C68.8401 19.794 68.9238 20.2124 69.0912 20.6029C69.2585 20.9934 69.4857 21.3361 69.7726 21.631C70.0674 21.9258 70.4101 22.157 70.8007 22.3243C71.1991 22.4917 71.6215 22.5754 72.0678 22.5754C72.3866 22.5754 72.6934 22.5315 72.9883 22.4439C73.2832 22.3562 73.5582 22.2327 73.8132 22.0733C74.0762 21.9059 74.3073 21.7067 74.5065 21.4755C74.7138 21.2365 74.8811 20.9735 75.0086 20.6866L77.3995 23.0894C77.0967 23.5198 76.746 23.9063 76.3475 24.249C75.957 24.5917 75.5306 24.8826 75.0684 25.1217C74.6141 25.3608 74.132 25.5401 73.6219 25.6596C73.1198 25.7871 72.6018 25.8509 72.0678 25.8509C71.1673 25.8509 70.3185 25.6835 69.5215 25.3488C68.7325 25.0061 68.0392 24.5399 67.4414 23.9501C66.8517 23.3604 66.3855 22.671 66.0428 21.882C65.7001 21.093 65.5287 20.2482 65.5287 19.3476C65.5287 18.3674 65.7001 17.4509 66.0428 16.5981C66.3855 15.7454 66.8517 15.0042 67.4414 14.3746C68.0392 13.737 68.7325 13.2349 69.5215 12.8683C70.3185 12.5017 71.1673 12.3184 72.0678 12.3184C72.6018 12.3184 73.1238 12.3862 73.6339 12.5216C74.1519 12.6571 74.642 12.8564 75.1043 13.1194C75.5745 13.3744 76.0048 13.6892 76.3954 14.0638C76.7938 14.4383 77.1365 14.8687 77.4234 15.3549Z" fill="#F0F0F3"/>
<path d="M82.3128 25.6118H79.0253V7.71594H82.3128V19.001L87.1783 12.8325H90.932L86.6882 18.1642L90.932 25.6118H87.1783L84.5842 20.9615L82.3128 23.974V25.6118Z" fill="#F0F0F3"/>
<path d="M96.3713 25.6118H93.1077V16.0602H91.5178V12.8085H93.1077V12.1989C93.1077 11.4099 93.2552 10.6687 93.55 9.97534C93.8529 9.28198 94.2633 8.68027 94.7813 8.17021C95.3073 7.65218 95.917 7.24573 96.6104 6.95085C97.3037 6.64801 98.0449 6.49658 98.8339 6.49658H101.285V9.7482H98.8339C98.4833 9.7482 98.1565 9.81196 97.8536 9.93947C97.5588 10.059 97.2998 10.2304 97.0766 10.4535C96.8614 10.6687 96.6901 10.9277 96.5626 11.2306C96.4351 11.5254 96.3713 11.8482 96.3713 12.1989V12.8085H100.376V16.0602H96.3713V25.6118Z" fill="#F0F0F3"/>
<path d="M106.258 9.32979C106.258 9.63264 106.198 9.91556 106.078 10.1786C105.967 10.4416 105.811 10.6727 105.612 10.8719C105.413 11.0632 105.178 11.2186 104.907 11.3381C104.644 11.4497 104.361 11.5055 104.058 11.5055C103.755 11.5055 103.468 11.4497 103.197 11.3381C102.934 11.2186 102.703 11.0632 102.504 10.8719C102.313 10.6727 102.157 10.4416 102.038 10.1786C101.926 9.91556 101.87 9.63264 101.87 9.32979C101.87 9.03492 101.926 8.75598 102.038 8.49298C102.157 8.22201 102.313 7.99089 102.504 7.79962C102.703 7.60038 102.934 7.44497 103.197 7.3334C103.468 7.21385 103.755 7.15408 104.058 7.15408C104.361 7.15408 104.644 7.21385 104.907 7.3334C105.178 7.44497 105.413 7.60038 105.612 7.79962C105.811 7.99089 105.967 8.22201 106.078 8.49298C106.198 8.75598 106.258 9.03492 106.258 9.32979ZM105.696 25.6118H102.408V12.8085H105.696V25.6118Z" fill="#F0F0F3"/>
<path d="M113.287 22.4797C113.414 22.5196 113.542 22.5475 113.669 22.5634C113.797 22.5714 113.924 22.5754 114.052 22.5754C114.371 22.5754 114.678 22.5315 114.972 22.4439C115.267 22.3562 115.542 22.2327 115.797 22.0733C116.06 21.9059 116.291 21.7067 116.491 21.4755C116.698 21.2365 116.865 20.9735 116.993 20.6866L119.384 23.0894C119.081 23.5198 118.73 23.9063 118.332 24.249C117.941 24.5917 117.515 24.8826 117.053 25.1217C116.598 25.3608 116.116 25.5401 115.606 25.6596C115.104 25.7871 114.586 25.8509 114.052 25.8509C113.151 25.8509 112.303 25.6835 111.506 25.3488C110.717 25.0141 110.023 24.5478 109.426 23.9501C108.836 23.3524 108.37 22.6431 108.027 21.8222C107.684 20.9934 107.513 20.0848 107.513 19.0966C107.513 18.0845 107.684 17.16 108.027 16.3232C108.37 15.4864 108.836 14.7731 109.426 14.1833C110.023 13.5936 110.717 13.1353 111.506 12.8085C112.303 12.4818 113.151 12.3184 114.052 12.3184C114.586 12.3184 115.108 12.3822 115.618 12.5097C116.128 12.6372 116.61 12.8205 117.065 13.0596C117.527 13.2987 117.957 13.5936 118.356 13.9442C118.754 14.2869 119.105 14.6734 119.408 15.1038L113.287 22.4797ZM114.961 15.7494C114.809 15.6936 114.658 15.6577 114.506 15.6418C114.363 15.6258 114.211 15.6179 114.052 15.6179C113.606 15.6179 113.183 15.7015 112.785 15.8689C112.394 16.0283 112.052 16.2594 111.757 16.5623C111.47 16.8651 111.243 17.2317 111.075 17.6621C110.908 18.0845 110.824 18.5626 110.824 19.0966C110.824 19.2162 110.828 19.3516 110.836 19.5031C110.852 19.6545 110.872 19.8099 110.896 19.9693C110.928 20.1207 110.964 20.2681 111.004 20.4116C111.043 20.5551 111.095 20.6826 111.159 20.7941L114.961 15.7494Z" fill="#F0F0F3"/>
<defs>
<filter id="filter0_i_1109_18489" x="0" y="4.23926" width="24" height="48" filterUnits="userSpaceOnUse" color-interpolation-filters="sRGB">
<feFlood flood-opacity="0" result="BackgroundImageFix"/>
<feBlend mode="normal" in="SourceGraphic" in2="BackgroundImageFix" result="shape"/>
<feColorMatrix in="SourceAlpha" type="matrix" values="0 0 0 0 0 0 0 0 0 0 0 0 0 0 0 0 0 0 127 0" result="hardAlpha"/>
<feOffset dy="24"/>
<feGaussianBlur stdDeviation="12"/>
<feComposite in2="hardAlpha" operator="arithmetic" k2="-1" k3="1"/>
<feColorMatrix type="matrix" values="0 0 0 0 0.427778 0 0 0 0 0.520292 0 0 0 0 1 0 0 0 1 0"/>
<feBlend mode="normal" in2="shape" result="effect1_innerShadow_1109_18489"/>
</filter>
<filter id="filter1_i_1109_18489" x="109.123" y="14.2144" width="8.65332" height="32.2314" filterUnits="userSpaceOnUse" color-interpolation-filters="sRGB">
<feFlood flood-opacity="0" result="BackgroundImageFix"/>
<feBlend mode="normal" in="SourceGraphic" in2="BackgroundImageFix" result="shape"/>
<feColorMatrix in="SourceAlpha" type="matrix" values="0 0 0 0 0 0 0 0 0 0 0 0 0 0 0 0 0 0 127 0" result="hardAlpha"/>
<feOffset dy="24"/>
<feGaussianBlur stdDeviation="12"/>
<feComposite in2="hardAlpha" operator="arithmetic" k2="-1" k3="1"/>
<feColorMatrix type="matrix" values="0 0 0 0 0.427778 0 0 0 0 0.520292 0 0 0 0 1 0 0 0 1 0"/>
<feBlend mode="normal" in2="shape" result="effect1_innerShadow_1109_18489"/>
</filter>
<linearGradient id="paint0_linear_1109_18489" x1="12" y1="4.23926" x2="12" y2="28.2393" gradientUnits="userSpaceOnUse">
<stop stop-color="#3550DC"/>
<stop offset="1" stop-color="#0028F5"/>
</linearGradient>
<linearGradient id="paint1_linear_1109_18489" x1="113.45" y1="14.2144" x2="113.45" y2="22.4456" gradientUnits="userSpaceOnUse">
<stop stop-color="#3550DC"/>
<stop offset="1" stop-color="#0028F5"/>
</linearGradient>
</defs>
</svg>
