<svg width="96" height="72" viewBox="0 0 96 72" fill="none" xmlns="http://www.w3.org/2000/svg">
<g clip-path="url(#clip0_992_4410)">
<path d="M-3.05176e-05 0H96V5.28H-3.05176e-05V0Z" fill="white"/>
<mask id="mask0_992_4410" style="mask-type:luminance" maskUnits="userSpaceOnUse" x="0" y="0" width="96" height="6">
<path d="M-3.05176e-05 0H96V5.28H-3.05176e-05V0Z" fill="white"/>
</mask>
<g mask="url(#mask0_992_4410)">
<path d="M-2.06679e-05 9.79006e-06V-0.23999H-0.240021V9.79006e-06H-2.06679e-05ZM96 9.79006e-06H96.24V-0.23999H96V9.79006e-06ZM-2.06679e-05 0.24001H96V-0.23999H-2.06679e-05V0.24001ZM95.76 9.79006e-06V5.28001H96.24V9.79006e-06H95.76ZM0.239979 5.28001V9.79006e-06H-0.240021V5.28001H0.239979Z" fill="white"/>
</g>
<path d="M3.36056 4.08001C3.75821 4.08001 4.08056 3.75766 4.08056 3.36001C4.08056 2.96237 3.75821 2.64001 3.36056 2.64001C2.96292 2.64001 2.64056 2.96237 2.64056 3.36001C2.64056 3.75766 2.96292 4.08001 3.36056 4.08001Z" fill="#FF0000"/>
<path d="M5.75998 4.08001C6.15762 4.08001 6.47998 3.75766 6.47998 3.36001C6.47998 2.96237 6.15762 2.64001 5.75998 2.64001C5.36233 2.64001 5.03998 2.96237 5.03998 3.36001C5.03998 3.75766 5.36233 4.08001 5.75998 4.08001Z" fill="#3EB780"/>
<path d="M8.16037 4.08001C8.55801 4.08001 8.88037 3.75766 8.88037 3.36001C8.88037 2.96237 8.55801 2.64001 8.16037 2.64001C7.76272 2.64001 7.44037 2.96237 7.44037 3.36001C7.44037 3.75766 7.76272 4.08001 8.16037 4.08001Z" fill="#FFCA18"/>
<path d="M0.119965 5.39999H95.88V71.88H0.119965V5.39999Z" fill="#01060B"/>
<path d="M15.0064 14H3.27474C2.92451 14 2.64059 14.4298 2.64059 14.96C2.64059 15.4902 2.92451 15.92 3.27474 15.92H15.0064C15.3567 15.92 15.6406 15.4902 15.6406 14.96C15.6406 14.4298 15.3567 14 15.0064 14Z" fill="white"/>
<path d="M6.22059 18.84C6.75078 18.84 7.18059 18.4102 7.18059 17.88C7.18059 17.3499 6.75078 16.92 6.22059 16.92C5.6904 16.92 5.26059 17.3499 5.26059 17.88C5.26059 18.4102 5.6904 18.84 6.22059 18.84Z" fill="white"/>
<path d="M9.1406 18.84C9.6708 18.84 10.1006 18.4102 10.1006 17.88C10.1006 17.3499 9.6708 16.92 9.1406 16.92C8.61041 16.92 8.1806 17.3499 8.1806 17.88C8.1806 18.4102 8.61041 18.84 9.1406 18.84Z" fill="white"/>
<path d="M12.0606 18.84C12.5908 18.84 13.0206 18.4102 13.0206 17.88C13.0206 17.3499 12.5908 16.92 12.0606 16.92C11.5304 16.92 11.1006 17.3499 11.1006 17.88C11.1006 18.4102 11.5304 18.84 12.0606 18.84Z" fill="white"/>
<path d="M0.119965 5.39999H95.88V71.88H0.119965V5.39999Z" stroke="#F9FAFB" stroke-width="0.5"/>
<path d="M9.53017 10.08H2.97074C2.65573 10.08 2.40036 10.5098 2.40036 11.04C2.40036 11.5701 2.65573 12 2.97074 12H9.53017C9.84519 12 10.1006 11.5701 10.1006 11.04C10.1006 10.5098 9.84519 10.08 9.53017 10.08Z" fill="#01060B"/>
<path d="M10.3204 22.76H3.12036C2.72272 22.76 2.40036 23.0824 2.40036 23.48C2.40036 23.8777 2.72272 24.2 3.12036 24.2H10.3204C10.718 24.2 11.0404 23.8777 11.0404 23.48C11.0404 23.0824 10.718 22.76 10.3204 22.76Z" fill="white"/>
<path d="M10.3204 25.16H3.12036C2.72272 25.16 2.40036 25.4824 2.40036 25.88C2.40036 26.2777 2.72272 26.6 3.12036 26.6H10.3204C10.718 26.6 11.0404 26.2777 11.0404 25.88C11.0404 25.4824 10.718 25.16 10.3204 25.16Z" fill="white"/>
<path d="M6.00036 27.5601H3.12036C2.72272 27.5601 2.40036 27.8824 2.40036 28.2801C2.40036 28.6777 2.72272 29.0001 3.12036 29.0001H6.00036C6.39801 29.0001 6.72036 28.6777 6.72036 28.2801C6.72036 27.8824 6.39801 27.5601 6.00036 27.5601Z" fill="white"/>
<path d="M12.2404 29.96H3.12036C2.72272 29.96 2.40036 30.2823 2.40036 30.68C2.40036 31.0776 2.72272 31.4 3.12036 31.4H12.2404C12.638 31.4 12.9604 31.0776 12.9604 30.68C12.9604 30.2823 12.638 29.96 12.2404 29.96Z" fill="white"/>
<path d="M7.92036 32.36H3.12036C2.72272 32.36 2.40036 32.6823 2.40036 33.08C2.40036 33.4776 2.72272 33.8 3.12036 33.8H7.92036C8.31801 33.8 8.64036 33.4776 8.64036 33.08C8.64036 32.6823 8.31801 32.36 7.92036 32.36Z" fill="white"/>
<path d="M12.2404 34.76H3.12036C2.72272 34.76 2.40036 35.0824 2.40036 35.48C2.40036 35.8777 2.72272 36.2 3.12036 36.2H12.2404C12.638 36.2 12.9604 35.8777 12.9604 35.48C12.9604 35.0824 12.638 34.76 12.2404 34.76Z" fill="white"/>
<path d="M6.96036 37.16H3.12036C2.72272 37.16 2.40036 37.4824 2.40036 37.88C2.40036 38.2777 2.72272 38.6 3.12036 38.6H6.96036C7.35801 38.6 7.68036 38.2777 7.68036 37.88C7.68036 37.4824 7.35801 37.16 6.96036 37.16Z" fill="white"/>
<path d="M14.6404 39.5601H3.12036C2.72272 39.5601 2.40036 39.8824 2.40036 40.2801C2.40036 40.6777 2.72272 41.0001 3.12036 41.0001H14.6404C15.038 41.0001 15.3604 40.6777 15.3604 40.2801C15.3604 39.8824 15.038 39.5601 14.6404 39.5601Z" fill="white"/>
<path d="M10.3204 41.96H3.12036C2.72272 41.96 2.40036 42.2823 2.40036 42.68C2.40036 43.0776 2.72272 43.4 3.12036 43.4H10.3204C10.718 43.4 11.0404 43.0776 11.0404 42.68C11.0404 42.2823 10.718 41.96 10.3204 41.96Z" fill="white"/>
<path d="M14.6404 44.36H3.12036C2.72272 44.36 2.40036 44.6823 2.40036 45.08C2.40036 45.4776 2.72272 45.8 3.12036 45.8H14.6404C15.038 45.8 15.3604 45.4776 15.3604 45.08C15.3604 44.6823 15.038 44.36 14.6404 44.36Z" fill="white"/>
<mask id="mask1_992_4410" style="mask-type:luminance" maskUnits="userSpaceOnUse" x="17" y="5" width="79" height="5">
<path d="M17.76 5.28H96V9.12H17.76V5.28Z" fill="white"/>
</mask>
<g mask="url(#mask1_992_4410)">
<path d="M17.76 5.52001H96V5.04001H17.76V5.52001Z" fill="white"/>
</g>
<path d="M89.5998 9.12H21.76C19.5508 9.12 17.76 10.9109 17.76 13.12V65.12C17.76 67.3291 19.5508 69.12 21.76 69.12H89.5998C91.809 69.12 93.5998 67.3291 93.5998 65.12V13.12C93.5998 10.9109 91.809 9.12 89.5998 9.12Z" fill="white"/>
<path d="M65.04 71.04H46.32C46.0549 71.04 45.84 70.8251 45.84 70.56C45.84 70.2949 46.0549 70.08 46.32 70.08H65.04C65.3051 70.08 65.52 70.2949 65.52 70.56C65.52 70.8251 65.3051 71.04 65.04 71.04Z" fill="white"/>
</g>
<rect x="0.499969" y="0.5" width="95" height="71" rx="4.5" stroke="#01060B"/>
<defs>
<clipPath id="clip0_992_4410">
<rect x="-3.05176e-05" width="96" height="72" rx="5" fill="white"/>
</clipPath>
</defs>
</svg>
