<svg width="275" height="28" viewBox="0 0 275 28" fill="none" xmlns="http://www.w3.org/2000/svg">
<path d="M-143.48 24.5687C-144.221 24.1262 -144.124 23.5797 -143.48 23.0201V24.5687C-139.999 26.6465 -118.033 26.4324 -47.4165 14.5212C59.6539 -3.53885 85.6711 11.8653 116.191 17.4427C146.711 23.0201 196.976 17.7067 233.5 14.5212C270.024 11.3358 280.799 19.8346 298.811 14.5212C316.823 9.20782 410.885 8.41105 415.388 10.0046C418.99 11.2794 419.224 33.1994 418.89 44L-143.48 39.485V24.5687Z" fill="#3550DC" fill-opacity="0.2"/>
<path d="M-143.48 18.5687C-144.221 18.1262 -144.124 17.5797 -143.48 17.0201V18.5687C-139.999 20.6465 -118.033 20.4324 -47.4165 8.52122C59.6539 -9.53885 85.6711 5.86533 116.191 11.4427C146.711 17.0201 196.976 11.7067 233.5 8.52122C270.024 5.33577 280.799 13.8346 298.811 8.52122C316.823 3.20782 410.885 2.41105 415.388 4.00459C418.99 5.27941 419.224 27.1994 418.89 38L-143.48 33.485V18.5687Z" fill="#3550DC" fill-opacity="0.2"/>
</svg>
