<svg width="44" height="41" viewBox="0 0 44 41" fill="none" xmlns="http://www.w3.org/2000/svg">
<rect y="12.8984" width="22.061" height="27.1766" rx="5" transform="rotate(-10.7362 0 12.8984)" fill="#01B664"/>
<g filter="url(#filter0_i_642_87841)">
<rect x="7.88403" y="0.851562" width="36" height="36" rx="10" transform="rotate(5.5189 7.88403 0.851562)" fill="#3EBE74"/>
<rect x="8.33363" y="1.39733" width="35" height="35" rx="9.5" transform="rotate(5.5189 8.33363 1.39733)" stroke="#9FDCB1"/>
<path d="M23.208 12.4174C22.8354 12.4841 22.4891 12.7381 22.3235 13.0712C22.1925 13.3289 22.1486 13.7832 22.2275 14.0646C22.3009 14.3318 22.5348 14.6384 22.7705 14.7844C22.9482 14.8939 22.9749 14.8999 23.591 14.9697L24.2238 15.0446L24.2067 15.2209L24.1897 15.3972L23.7992 15.4005C23.1007 15.4049 22.2353 15.5779 21.5664 15.8418C21.41 15.902 21.2763 15.9404 21.264 15.9255C21.2518 15.9107 21.1501 15.7229 21.0369 15.5135C20.8166 15.1021 20.7258 15.0146 20.5218 15.0359C20.4598 15.0402 20.3633 15.0822 20.3076 15.1282C20.2224 15.1952 20.2012 15.2377 20.1887 15.3665C20.1756 15.5021 20.1996 15.5729 20.3787 15.9153L20.5837 16.3081L20.4961 16.3647C19.1825 17.2096 18.2903 18.2972 17.7844 19.672C17.5852 20.2106 17.4874 20.6563 17.4232 21.3208C17.3171 22.4193 17.4429 23.3486 17.836 24.3448C18.119 25.0634 18.45 25.6053 18.9913 26.236C20.3936 27.8738 22.4713 28.6837 24.6899 28.46C27.4788 28.1785 29.7623 26.0447 30.3543 23.1759C30.4457 22.7262 30.504 21.8387 30.4704 21.4076C30.3698 20.1112 29.9205 18.9521 29.1217 17.9407C28.9477 17.722 28.6949 17.4341 28.5569 17.3044C28.4192 17.1713 28.3069 17.0578 28.3076 17.051C28.3083 17.0442 28.4173 16.9076 28.5493 16.7458C28.8592 16.3719 28.9154 16.2508 28.8663 16.0852C28.8245 15.9511 28.6604 15.8086 28.5383 15.7968C28.3789 15.7814 28.2609 15.8693 27.9771 16.2217C27.8215 16.4154 27.6837 16.5664 27.6738 16.562C27.6643 16.5542 27.5251 16.4723 27.3702 16.3752C26.9891 16.1399 26.5872 15.9437 26.1871 15.7989C25.8531 15.6777 25.2327 15.5116 25.0394 15.493C24.9343 15.4828 24.9343 15.4828 24.952 15.2997L24.9697 15.1166L25.6084 15.1647C26.2231 15.2138 26.2505 15.213 26.4458 15.1395C26.7051 15.0413 26.9934 14.7852 27.1166 14.537C27.2479 14.2759 27.2918 13.8216 27.2129 13.5402C27.1337 13.2622 26.9332 12.9998 26.6683 12.8373L26.4519 12.7035L24.9099 12.5477C23.7578 12.4295 23.3262 12.3981 23.208 12.4174ZM24.4772 18.0532C24.6413 18.1614 24.6399 18.175 24.468 19.955L24.3078 21.613L25.6494 21.7529L26.9911 21.8928L27.0786 22.0142C27.2359 22.2279 27.1281 22.5289 26.8781 22.5663C26.8364 22.5725 26.1139 22.5061 25.2802 22.4222L23.7588 22.2649L23.6713 22.1435L23.5835 22.0255L23.7679 20.1167C23.9685 18.0759 23.9628 18.0993 24.1449 18.0211C24.2556 17.9736 24.3675 17.9844 24.4772 18.0532Z" fill="white"/>
</g>
<defs>
<filter id="filter0_i_642_87841" x="4.42188" y="0.851562" width="39.2952" height="43.2969" filterUnits="userSpaceOnUse" color-interpolation-filters="sRGB">
<feFlood flood-opacity="0" result="BackgroundImageFix"/>
<feBlend mode="normal" in="SourceGraphic" in2="BackgroundImageFix" result="shape"/>
<feColorMatrix in="SourceAlpha" type="matrix" values="0 0 0 0 0 0 0 0 0 0 0 0 0 0 0 0 0 0 127 0" result="hardAlpha"/>
<feOffset dy="4"/>
<feGaussianBlur stdDeviation="2"/>
<feComposite in2="hardAlpha" operator="arithmetic" k2="-1" k3="1"/>
<feColorMatrix type="matrix" values="0 0 0 0 0.0885354 0 0 0 0 0.827865 0 0 0 0 0.49292 0 0 0 1 0"/>
<feBlend mode="normal" in2="shape" result="effect1_innerShadow_642_87841"/>
</filter>
</defs>
</svg>
