<svg width="48" height="48" viewBox="0 0 48 48" fill="none" xmlns="http://www.w3.org/2000/svg">
<path d="M19 2.88675C22.094 1.10042 25.906 1.10042 29 2.88675L39.7846 9.11325C42.8786 10.8996 44.7846 14.2008 44.7846 17.7735V30.2265C44.7846 33.7992 42.8786 37.1004 39.7846 38.8868L29 45.1132C25.906 46.8996 22.094 46.8996 19 45.1132L8.21539 38.8868C5.12138 37.1004 3.21539 33.7992 3.21539 30.2265V17.7735C3.21539 14.2008 5.12138 10.8996 8.21539 9.11325L19 2.88675Z" fill="#01B664"/>
<path d="M18 33V31C18 29.9391 18.4214 28.9217 19.1716 28.1716C19.9217 27.4214 20.9391 27 22 27H22.5M20 19C20 20.0609 20.4214 21.0783 21.1716 21.8284C21.9217 22.5786 22.9391 23 24 23C25.0609 23 26.0783 22.5786 26.8284 21.8284C27.5786 21.0783 28 20.0609 28 19C28 17.9391 27.5786 16.9217 26.8284 16.1716C26.0783 15.4214 25.0609 15 24 15C22.9391 15 21.9217 15.4214 21.1716 16.1716C20.4214 16.9217 20 17.9391 20 19ZM29.8 32.817L27.628 33.955C27.5635 33.9885 27.491 34.0035 27.4186 33.9982C27.3461 33.9929 27.2765 33.9676 27.2176 33.9251C27.1587 33.8826 27.1127 33.8245 27.0849 33.7574C27.0571 33.6903 27.0485 33.6167 27.06 33.545L27.475 31.134L25.718 29.427C25.6656 29.3763 25.6284 29.3119 25.6108 29.2411C25.5933 29.1703 25.5959 29.096 25.6186 29.0266C25.6412 28.9573 25.6829 28.8957 25.7388 28.8489C25.7948 28.8021 25.8627 28.772 25.935 28.762L28.363 28.41L29.449 26.217C29.4815 26.1517 29.5315 26.0967 29.5935 26.0583C29.6556 26.0199 29.7271 25.9995 29.8 25.9995C29.8729 25.9995 29.9444 26.0199 30.0065 26.0583C30.0685 26.0967 30.1185 26.1517 30.151 26.217L31.237 28.41L33.665 28.762C33.737 28.7723 33.8047 28.8027 33.8605 28.8495C33.9162 28.8963 33.9577 28.9578 33.9802 29.027C34.0028 29.0962 34.0056 29.1703 33.9882 29.241C33.9709 29.3117 33.9341 29.3761 33.882 29.427L32.125 31.134L32.539 33.544C32.5514 33.6158 32.5435 33.6898 32.516 33.7573C32.4885 33.8249 32.4426 33.8834 32.3836 33.9262C32.3245 33.969 32.2547 33.9944 32.1819 33.9995C32.1092 34.0046 32.0364 33.9891 31.972 33.955L29.8 32.817Z" stroke="white" stroke-linecap="round" stroke-linejoin="round"/>
</svg>
