<svg width="48" height="48" viewBox="0 0 48 48" fill="none" xmlns="http://www.w3.org/2000/svg">
<path d="M19 2.88675C22.094 1.10042 25.906 1.10042 29 2.88675L39.7846 9.11325C42.8786 10.8996 44.7846 14.2008 44.7846 17.7735V30.2265C44.7846 33.7992 42.8786 37.1004 39.7846 38.8868L29 45.1132C25.906 46.8996 22.094 46.8996 19 45.1132L8.21539 38.8868C5.12138 37.1004 3.21539 33.7992 3.21539 30.2265V17.7735C3.21539 14.2008 5.12138 10.8996 8.21539 9.11325L19 2.88675Z" fill="#FF7F00"/>
<path d="M18 33V31C18 29.9391 18.4214 28.9217 19.1716 28.1716C19.9217 27.4214 20.9391 27 22 27H25.5M34 34L29 29M29 34L34 29M20 19C20 20.0609 20.4214 21.0783 21.1716 21.8284C21.9217 22.5786 22.9391 23 24 23C25.0609 23 26.0783 22.5786 26.8284 21.8284C27.5786 21.0783 28 20.0609 28 19C28 17.9391 27.5786 16.9217 26.8284 16.1716C26.0783 15.4214 25.0609 15 24 15C22.9391 15 21.9217 15.4214 21.1716 16.1716C20.4214 16.9217 20 17.9391 20 19Z" stroke="white" stroke-linecap="round" stroke-linejoin="round"/>
</svg>
