<svg width="17" height="17" viewBox="0 0 17 17" fill="none" xmlns="http://www.w3.org/2000/svg">
<path fill-rule="evenodd" clip-rule="evenodd" d="M16.18 8.92152C16.18 8.35425 16.1291 7.80879 16.0345 7.28516H8.5V10.3797H12.8055C12.62 11.3797 12.0564 12.227 11.2091 12.7942V14.8015H13.7945C15.3073 13.4088 16.18 11.3579 16.18 8.92152Z" fill="#0092E4"/>
<path fill-rule="evenodd" clip-rule="evenodd" d="M8.49994 16.7398C10.6599 16.7398 12.4708 16.0234 13.7945 14.8016L11.209 12.7943C10.4927 13.2743 9.5763 13.5579 8.49994 13.5579C6.4163 13.5579 4.65266 12.1507 4.02357 10.2598H1.35085V12.3325C2.66721 14.947 5.37266 16.7398 8.49994 16.7398Z" fill="#5CB85C"/>
<path fill-rule="evenodd" clip-rule="evenodd" d="M4.02364 10.2592C3.86364 9.77921 3.77273 9.26648 3.77273 8.73921C3.77273 8.21194 3.86364 7.69921 4.02364 7.21921V5.14648H1.35091C0.809091 6.22648 0.5 7.4483 0.5 8.73921C0.5 10.0301 0.809091 11.2519 1.35091 12.3319L4.02364 10.2592Z" fill="#FDA700"/>
<path fill-rule="evenodd" clip-rule="evenodd" d="M8.49994 3.92108C9.67448 3.92108 10.729 4.32471 11.5581 5.11744L13.8527 2.82289C12.4672 1.53199 10.6563 0.739258 8.49994 0.739258C5.37266 0.739258 2.66721 2.53199 1.35085 5.14653L4.02357 7.21926C4.65266 5.32835 6.4163 3.92108 8.49994 3.92108Z" fill="#E41F07"/>
</svg>
