<svg width="30" height="27" viewBox="0 0 30 27" fill="none" xmlns="http://www.w3.org/2000/svg">
<rect y="6.43945" width="22.061" height="18.5476" rx="5" transform="rotate(-10.7362 0 6.43945)" fill="#0C1C29"/>
<rect x="5.75776" y="0.940301" width="23" height="23" rx="4.5" transform="rotate(5.5189 5.75776 0.940301)" fill="#01060B"/>
<rect x="5.75776" y="0.940301" width="23" height="23" rx="4.5" transform="rotate(5.5189 5.75776 0.940301)" stroke="#F9F9FA"/>
<path d="M10.4984 11.4922H21.6984M10.4984 15.4922H21.6984M15.7651 7.49219C14.642 9.29193 14.0466 11.3708 14.0466 13.4922C14.0466 15.6136 14.642 17.6924 15.7651 19.4922M16.4318 7.49219C17.5549 9.29193 18.1503 11.3708 18.1503 13.4922C18.1503 15.6136 17.5549 17.6924 16.4318 19.4922M10.0984 13.4922C10.0984 14.2801 10.2536 15.0603 10.5552 15.7883C10.8567 16.5162 11.2987 17.1777 11.8558 17.7348C12.413 18.292 13.0744 18.7339 13.8023 19.0355C14.5303 19.337 15.3105 19.4922 16.0984 19.4922C16.8864 19.4922 17.6666 19.337 18.3946 19.0355C19.1225 18.7339 19.7839 18.292 20.3411 17.7348C20.8982 17.1777 21.3402 16.5162 21.6417 15.7883C21.9433 15.0603 22.0985 14.2801 22.0985 13.4922C22.0985 11.9009 21.4663 10.3748 20.3411 9.24955C19.2159 8.12433 17.6897 7.49219 16.0984 7.49219C14.5072 7.49219 12.981 8.12433 11.8558 9.24955C10.7306 10.3748 10.0984 11.9009 10.0984 13.4922Z" stroke="white" stroke-linecap="round" stroke-linejoin="round"/>
</svg>
