<svg width="30" height="27" viewBox="0 0 30 27" fill="none" xmlns="http://www.w3.org/2000/svg">
<rect y="6.74219" width="22.061" height="18.5476" rx="5" transform="rotate(-10.7362 0 6.74219)" fill="#0C1C29"/>
<rect x="5.75776" y="1.24303" width="23" height="23" rx="4.5" transform="rotate(5.5189 5.75776 1.24303)" fill="#01060B"/>
<rect x="5.75776" y="1.24303" width="23" height="23" rx="4.5" transform="rotate(5.5189 5.75776 1.24303)" stroke="#F9F9FA"/>
<path d="M14.7651 19.1283C14.7651 19.4819 14.9056 19.821 15.1557 20.0711C15.4057 20.3211 15.7448 20.4616 16.0985 20.4616C16.4521 20.4616 16.7912 20.3211 17.0413 20.0711C17.2913 19.821 17.4318 19.4819 17.4318 19.1283M14.7651 19.1283C14.7651 18.7746 14.9056 18.4355 15.1557 18.1854C15.4057 17.9354 15.7448 17.7949 16.0985 17.7949C16.4521 17.7949 16.7912 17.9354 17.0413 18.1854C17.2913 18.4355 17.4318 18.7746 17.4318 19.1283M14.7651 19.1283H10.7651M17.4318 19.1283H21.4318M14.7651 11.1283H17.4318M16.0985 15.7949L14.7651 14.4616H12.7651C12.5883 14.4616 12.4188 14.3914 12.2937 14.2663C12.1687 14.1413 12.0985 13.9717 12.0985 13.7949V8.46159C12.0985 8.28478 12.1687 8.11521 12.2937 7.99018C12.4188 7.86516 12.5883 7.79492 12.7651 7.79492H19.4318C19.6086 7.79492 19.7782 7.86516 19.9032 7.99018C20.0282 8.11521 20.0985 8.28478 20.0985 8.46159V13.7949C20.0985 13.9717 20.0282 14.1413 19.9032 14.2663C19.7782 14.3914 19.6086 14.4616 19.4318 14.4616H17.4318L16.0985 15.7949Z" stroke="white" stroke-linecap="round" stroke-linejoin="round"/>
</svg>
