<svg width="30" height="28" viewBox="0 0 30 28" fill="none" xmlns="http://www.w3.org/2000/svg">
<rect y="6.93945" width="22.061" height="18.5476" rx="5" transform="rotate(-10.7362 0 6.93945)" fill="#0C1C29"/>
<rect x="5.75776" y="1.4403" width="23" height="23" rx="4.5" transform="rotate(5.5189 5.75776 1.4403)" fill="#01060B"/>
<rect x="5.75776" y="1.4403" width="23" height="23" rx="4.5" transform="rotate(5.5189 5.75776 1.4403)" stroke="#F9F9FA"/>
<g clip-path="url(#clip0_829_203927)">
<path d="M22.0985 13.9922C22.0985 12.8055 21.7466 11.6455 21.0873 10.6588C20.428 9.67207 19.4909 8.90304 18.3946 8.44891C17.2982 7.99479 16.0918 7.87597 14.9279 8.10748C13.764 8.33899 12.6949 8.91043 11.8558 9.74955C11.0167 10.5887 10.4453 11.6578 10.2137 12.8216C9.98223 13.9855 10.101 15.1919 10.5552 16.2883C11.0093 17.3846 11.7783 18.3217 12.765 18.981C13.7517 19.6403 14.9118 19.9922 16.0985 19.9922M16.0985 10.6589V13.9922L16.7651 14.6589M18.7651 16.6589H22.7651V20.6589H18.7651V16.6589Z" stroke="white" stroke-linecap="round" stroke-linejoin="round"/>
</g>
<defs>
<clipPath id="clip0_829_203927">
<rect width="16" height="16" fill="white" transform="translate(8.09845 5.99219)"/>
</clipPath>
</defs>
</svg>
