<svg width="30" height="27" viewBox="0 0 30 27" fill="none" xmlns="http://www.w3.org/2000/svg">
<rect y="6.54492" width="22.061" height="18.5476" rx="5" transform="rotate(-10.7362 0 6.54492)" fill="#0C1C29"/>
<rect x="5.75776" y="1.04577" width="23" height="23" rx="4.5" transform="rotate(5.5189 5.75776 1.04577)" fill="#01060B"/>
<rect x="5.75776" y="1.04577" width="23" height="23" rx="4.5" transform="rotate(5.5189 5.75776 1.04577)" stroke="#F9F9FA"/>
<path d="M10.7651 16.2637L14.7651 11.597L18.0984 14.9303L21.4318 10.9303M17.4318 14.9303C17.4318 15.1071 17.502 15.2767 17.627 15.4017C17.7521 15.5268 17.9216 15.597 18.0984 15.597C18.2753 15.597 18.4448 15.5268 18.5699 15.4017C18.6949 15.2767 18.7651 15.1071 18.7651 14.9303C18.7651 14.7535 18.6949 14.584 18.5699 14.4589C18.4448 14.3339 18.2753 14.2637 18.0984 14.2637C17.9216 14.2637 17.7521 14.3339 17.627 14.4589C17.502 14.584 17.4318 14.7535 17.4318 14.9303ZM14.0984 11.597C14.0984 11.7738 14.1687 11.9434 14.2937 12.0684C14.4187 12.1934 14.5883 12.2637 14.7651 12.2637C14.9419 12.2637 15.1115 12.1934 15.2365 12.0684C15.3615 11.9434 15.4318 11.7738 15.4318 11.597C15.4318 11.4202 15.3615 11.2506 15.2365 11.1256C15.1115 11.0006 14.9419 10.9303 14.7651 10.9303C14.5883 10.9303 14.4187 11.0006 14.2937 11.1256C14.1687 11.2506 14.0984 11.4202 14.0984 11.597ZM10.0984 16.2637C10.0984 16.4405 10.1687 16.6101 10.2937 16.7351C10.4187 16.8601 10.5883 16.9303 10.7651 16.9303C10.9419 16.9303 11.1115 16.8601 11.2365 16.7351C11.3615 16.6101 11.4318 16.4405 11.4318 16.2637C11.4318 16.0869 11.3615 15.9173 11.2365 15.7923C11.1115 15.6672 10.9419 15.597 10.7651 15.597C10.5883 15.597 10.4187 15.6672 10.2937 15.7923C10.1687 15.9173 10.0984 16.0869 10.0984 16.2637ZM20.7651 10.9303C20.7651 11.1071 20.8354 11.2767 20.9604 11.4017C21.0854 11.5268 21.255 11.597 21.4318 11.597C21.6086 11.597 21.7782 11.5268 21.9032 11.4017C22.0282 11.2767 22.0985 11.1071 22.0985 10.9303C22.0985 10.7535 22.0282 10.584 21.9032 10.4589C21.7782 10.3339 21.6086 10.2637 21.4318 10.2637C21.255 10.2637 21.0854 10.3339 20.9604 10.4589C20.8354 10.584 20.7651 10.7535 20.7651 10.9303Z" stroke="white" stroke-linecap="round" stroke-linejoin="round"/>
</svg>
