<svg width="30" height="27" viewBox="0 0 30 27" fill="none" xmlns="http://www.w3.org/2000/svg">
<rect y="6.13477" width="22.061" height="18.5476" rx="5" transform="rotate(-10.7362 0 6.13477)" fill="#0C1C29"/>
<rect x="5.75776" y="0.635613" width="23" height="23" rx="4.5" transform="rotate(5.5189 5.75776 0.635613)" fill="#01060B"/>
<rect x="5.75776" y="0.635613" width="23" height="23" rx="4.5" transform="rotate(5.5189 5.75776 0.635613)" stroke="#F9F9FA"/>
<path d="M13.8051 7.6475C13.0772 7.94882 12.4157 8.39056 11.8585 8.9475M10.5584 10.8942C10.2562 11.621 10.0999 12.4003 10.0984 13.1875M10.5585 15.4808C10.8598 16.2088 11.3015 16.8703 11.8585 17.4275M13.8051 18.7275C14.532 19.0298 15.3112 19.1861 16.0984 19.1875M18.3918 18.7275C19.1197 18.4262 19.7812 17.9844 20.3385 17.4275M21.6384 15.4808C21.9407 14.754 22.097 13.9747 22.0984 13.1875M21.6384 10.8942C21.3371 10.1662 20.8954 9.50475 20.3384 8.9475M18.3918 7.6475C17.6649 7.3452 16.8857 7.1889 16.0984 7.1875M14.7651 13.1875C14.7651 13.5411 14.9056 13.8803 15.1556 14.1303C15.4057 14.3804 15.7448 14.5208 16.0984 14.5208C16.4521 14.5208 16.7912 14.3804 17.0413 14.1303C17.2913 13.8803 17.4318 13.5411 17.4318 13.1875C17.4318 12.8339 17.2913 12.4947 17.0413 12.2447C16.7912 11.9946 16.4521 11.8542 16.0984 11.8542C15.7448 11.8542 15.4057 11.9946 15.1556 12.2447C14.9056 12.4947 14.7651 12.8339 14.7651 13.1875Z" stroke="white" stroke-linecap="round" stroke-linejoin="round"/>
</svg>
