<svg width="30" height="27" viewBox="0 0 30 27" fill="none" xmlns="http://www.w3.org/2000/svg">
<rect y="6.24219" width="22.061" height="18.5476" rx="5" transform="rotate(-10.7362 0 6.24219)" fill="#0C1C29"/>
<rect x="5.75777" y="0.743035" width="23" height="23" rx="4.5" transform="rotate(5.5189 5.75777 0.743035)" fill="#01060B"/>
<rect x="5.75777" y="0.743035" width="23" height="23" rx="4.5" transform="rotate(5.5189 5.75777 0.743035)" stroke="#F9F9FA"/>
<path d="M12.4318 9.96159H19.7651M12.4318 16.6283H19.7651M16.0985 13.2949C15.0376 13.2949 14.0202 13.7163 13.27 14.4665C12.5199 15.2166 12.0985 16.2341 12.0985 17.2949V18.6283C12.0985 18.8051 12.1687 18.9746 12.2937 19.0997C12.4187 19.2247 12.5883 19.2949 12.7651 19.2949H19.4318C19.6086 19.2949 19.7782 19.2247 19.9032 19.0997C20.0282 18.9746 20.0985 18.8051 20.0985 18.6283V17.2949C20.0985 16.2341 19.677 15.2166 18.9269 14.4665C18.1767 13.7163 17.1593 13.2949 16.0985 13.2949ZM16.0985 13.2949C15.0376 13.2949 14.0202 12.8735 13.27 12.1233C12.5199 11.3732 12.0985 10.3558 12.0985 9.29492V7.96159C12.0985 7.78478 12.1687 7.61521 12.2937 7.49018C12.4187 7.36516 12.5883 7.29492 12.7651 7.29492H19.4318C19.6086 7.29492 19.7782 7.36516 19.9032 7.49018C20.0282 7.61521 20.0985 7.78478 20.0985 7.96159V9.29492C20.0985 10.3558 19.677 11.3732 18.9269 12.1233C18.1767 12.8735 17.1593 13.2949 16.0985 13.2949Z" stroke="white" stroke-linecap="round" stroke-linejoin="round"/>
</svg>
