<svg width="204" height="204" viewBox="0 0 204 204" fill="none" xmlns="http://www.w3.org/2000/svg">
<path d="M173.096 145.924C172.819 146.372 172.538 146.817 172.252 147.259L160.987 139.992C161.226 139.621 161.463 139.247 161.695 138.871L173.096 145.924Z" fill="#F9B801"/>
<path d="M164.358 157.628C164.008 158.02 163.654 158.41 163.296 158.796L153.463 149.683C153.764 149.359 154.061 149.032 154.356 148.702L164.358 157.628Z" fill="#F9B801"/>
<path d="M153.721 167.636C153.308 167.962 152.892 168.284 152.472 168.602L144.371 157.92C144.724 157.653 145.073 157.383 145.421 157.109L153.721 167.636Z" fill="#F9B801"/>
<path d="M141.508 175.645C141.044 175.894 140.578 176.139 140.11 176.38L133.987 164.454C134.38 164.252 134.772 164.046 135.161 163.837L141.508 175.645Z" fill="#E8EEFE"/>
<path d="M128.089 181.412C127.589 181.577 127.088 181.737 126.585 181.893L122.626 169.084C123.048 168.954 123.47 168.819 123.89 168.681L128.089 181.412Z" fill="#E8EEFE"/>
<path d="M113.76 183.979C113.822 184.411 113.523 184.812 113.091 184.871C112.659 184.929 112.264 184.622 112.209 184.19L110.716 172.33C110.671 171.967 110.928 171.635 111.291 171.586C111.654 171.537 111.991 171.788 112.043 172.15L113.76 183.979Z" fill="#E8EEFE"/>
<path d="M99.2915 185.59C98.7652 185.574 98.2392 185.554 97.7134 185.528L98.3739 172.138C98.8156 172.159 99.2575 172.177 99.6995 172.191L99.2915 185.59Z" fill="#E8EEFE"/>
<path d="M84.7872 183.875C84.2718 183.768 83.7574 183.656 83.244 183.539L86.2196 170.468C86.6508 170.566 87.0829 170.66 87.5159 170.75L84.7872 183.875Z" fill="#E8EEFE"/>
<path d="M70.8012 179.668C70.3122 179.473 69.825 179.273 69.3398 179.069L74.54 166.712C74.9476 166.884 75.3569 167.051 75.7676 167.215L70.8012 179.668Z" fill="#E8EEFE"/>
<path d="M57.7582 173.095C57.3105 172.818 56.8654 172.537 56.423 172.252L63.69 160.986C64.0616 161.226 64.4355 161.462 64.8116 161.694L57.7582 173.095Z" fill="#E8EEFE"/>
<path d="M46.0548 164.358C45.662 164.007 45.2725 163.653 44.8863 163.295L53.9992 153.462C54.3235 153.763 54.6507 154.06 54.9807 154.355L46.0548 164.358Z" fill="#E8EEFE"/>
<path d="M36.0464 153.721C35.7204 153.307 35.3983 152.891 35.0802 152.471L45.762 144.37C46.0292 144.723 46.2998 145.073 46.5736 145.42L36.0464 153.721Z" fill="#E8EEFE"/>
<path d="M28.0371 141.507C27.7879 141.043 27.543 140.577 27.3026 140.109L39.2288 133.986C39.4308 134.379 39.6365 134.771 39.8458 135.161L28.0371 141.507Z" fill="#E8EEFE"/>
<path d="M22.2704 128.089C22.1054 127.589 21.9452 127.087 21.7898 126.584L34.5981 122.625C34.7286 123.048 34.8632 123.469 35.0018 123.889L22.2704 128.089Z" fill="#E8EEFE"/>
<path d="M18.9213 113.872C18.8457 113.351 18.7751 112.83 18.7093 112.307L32.0105 110.633C32.0657 111.071 32.1251 111.51 32.1886 111.947L18.9213 113.872Z" fill="#E8EEFE"/>
<path d="M18.0918 99.2906C18.1078 98.7644 18.1288 98.2383 18.1548 97.7125L31.5447 98.373C31.5229 98.8147 31.5052 99.2566 31.4918 99.6986L18.0918 99.2906Z" fill="#E8EEFE"/>
<path d="M19.807 84.7864C19.9141 84.2709 20.0262 83.7565 20.143 83.2432L33.2148 86.2188C33.1166 86.65 33.0225 87.0821 32.9325 87.5151L19.807 84.7864Z" fill="#E8EEFE"/>
<path d="M24.0147 70.8003C24.2098 70.3113 24.4094 69.8241 24.6136 69.3389L36.9701 74.5392C36.7986 74.9468 36.6309 75.356 36.467 75.7668L24.0147 70.8003Z" fill="#E8EEFE"/>
<path d="M30.5872 57.7574C30.8642 57.3097 31.1454 56.8646 31.4308 56.4222L42.6965 63.6891C42.4568 64.0608 42.2206 64.4346 41.9879 64.8107L30.5872 57.7574Z" fill="#E8EEFE"/>
<path d="M39.3248 46.0539C39.6753 45.6611 40.0295 45.2716 40.3873 44.8855L50.22 53.9983C49.9194 54.3227 49.6219 54.6498 49.3274 54.9798L39.3248 46.0539Z" fill="#E8EEFE"/>
<path d="M49.9618 36.0455C50.3752 35.7195 50.7916 35.3975 51.2111 35.0794L59.312 45.7612C58.9596 46.0284 58.6098 46.2989 58.2625 46.5727L49.9618 36.0455Z" fill="#E8EEFE"/>
<path d="M62.1752 28.0362C62.6389 27.787 63.105 27.5422 63.5733 27.3017L69.6963 39.228C69.3028 39.4299 68.9114 39.6356 68.5218 39.845L62.1752 28.0362Z" fill="#E8EEFE"/>
<path d="M75.5938 22.2695C76.0938 22.1046 76.5953 21.9444 77.0983 21.7889L81.0572 34.5972C80.6347 34.7278 80.2134 34.8624 79.7935 35.0009L75.5938 22.2695Z" fill="#E8EEFE"/>
<path d="M89.81 18.9205C90.331 18.8449 90.8527 18.7742 91.375 18.7084L93.0497 32.0096C92.6109 32.0649 92.1727 32.1242 91.7351 32.1877L89.81 18.9205Z" fill="#E8EEFE"/>
<path d="M104.392 18.091C104.918 18.107 105.444 18.128 105.97 18.1539L105.309 31.5438C104.868 31.522 104.426 31.5044 103.984 31.4909L104.392 18.091Z" fill="#F9B801"/>
<path d="M118.896 19.8061C119.411 19.9133 119.926 20.0253 120.439 20.1422L117.464 33.2139C117.032 33.1158 116.6 33.0217 116.167 32.9317L118.896 19.8061Z" fill="#F9B801"/>
<path d="M132.882 24.0139C133.371 24.2089 133.858 24.4086 134.343 24.6128L129.143 36.9693C128.736 36.7977 128.326 36.63 127.916 36.4662L132.882 24.0139Z" fill="#F9B801"/>
<path d="M145.925 30.5864C146.373 30.8634 146.818 31.1446 147.26 31.4299L139.993 42.6957C139.622 42.456 139.248 42.2197 138.872 41.9871L145.925 30.5864Z" fill="#F9B801"/>
<path d="M157.628 39.3239C158.021 39.6744 158.411 40.0286 158.797 40.3865L149.684 50.2192C149.36 49.9186 149.032 49.621 148.703 49.3266L157.628 39.3239Z" fill="#F9B801"/>
<path d="M167.637 49.9609C167.963 50.3743 168.285 50.7908 168.603 51.2103L157.921 59.3112C157.654 58.9588 157.383 58.609 157.11 58.2617L167.637 49.9609Z" fill="#F9B801"/>
<path d="M175.646 62.1743C175.895 62.6381 176.14 63.1041 176.381 63.5725L164.454 69.6954C164.252 69.302 164.047 68.9105 163.837 68.521L175.646 62.1743Z" fill="#F9B801"/>
<path d="M181.413 75.593C181.578 76.0929 181.738 76.5944 181.893 77.0974L169.085 81.0563C168.955 80.6338 168.82 80.2126 168.681 79.7926L181.413 75.593Z" fill="#F9B801"/>
<path d="M184.762 89.8091C184.837 90.3301 184.908 90.8518 184.974 91.3742L171.673 93.0488C171.617 92.6101 171.558 92.1718 171.495 91.7342L184.762 89.8091Z" fill="#F9B801"/>
<path d="M185.591 104.391C185.575 104.917 185.554 105.443 185.528 105.969L172.139 105.308C172.16 104.867 172.178 104.425 172.191 103.983L185.591 104.391Z" fill="#F9B801"/>
<path d="M183.876 118.895C183.769 119.411 183.657 119.925 183.54 120.438L170.468 117.463C170.567 117.031 170.661 116.599 170.751 116.166L183.876 118.895Z" fill="#F9B801"/>
<path d="M179.668 132.881C179.473 133.37 179.274 133.857 179.07 134.343L166.713 129.142C166.885 128.735 167.052 128.325 167.216 127.915L179.668 132.881Z" fill="#F9B801"/>
</svg>
