<svg width="432" height="424" viewBox="0 0 432 424" fill="none" xmlns="http://www.w3.org/2000/svg">
<path d="M323.913 317.442C383.511 259.035 383.511 164.34 323.913 105.933C264.314 47.5266 167.686 47.5266 108.087 105.933C48.4889 164.34 48.4889 259.035 108.087 317.442C167.686 375.848 264.314 375.848 323.913 317.442Z" fill="#2C48DD"/>
<path d="M395.709 168.547C386.455 131.545 365.586 98.9634 337.114 74.7476C336.298 74.0527 335.034 74.2458 334.462 75.1445C334.454 75.1572 334.446 75.169 334.438 75.1817C333.979 75.901 334.127 76.835 334.781 77.3916C362.703 101.14 383.169 133.091 392.244 169.377C392.475 170.302 393.419 170.872 394.363 170.647L394.408 170.637C395.354 170.411 395.941 169.474 395.709 168.547Z" fill="#2847CF"/>
<path d="M396.556 194.098C396.97 198.199 397.242 202.341 397.366 206.519C397.395 207.493 398.234 208.252 399.227 208.188L399.263 208.186C400.223 208.125 400.964 207.337 400.935 206.394C400.822 202.576 400.505 197.781 400.133 193.757C400.042 192.769 399.13 192.066 398.127 192.195C398.112 192.197 398.097 192.199 398.081 192.201C397.131 192.32 396.462 193.164 396.556 194.098Z" fill="#2847CF"/>
<path d="M369.54 312.695C384.923 290.305 395.359 264.392 399.271 236.465C399.434 235.299 398.366 234.31 397.189 234.542C397.174 234.545 397.158 234.548 397.143 234.55C396.401 234.695 395.837 235.277 395.734 236.012C391.895 263.385 381.66 288.781 366.583 310.729C366.152 311.356 366.183 312.181 366.665 312.772L366.688 312.801C367.432 313.713 368.875 313.664 369.54 312.695Z" fill="#2847CF"/>
<path d="M351.112 330.218C339.262 343.178 325.505 354.428 310.277 363.544C309.249 364.159 309.132 365.573 310.058 366.33L310.087 366.353C310.677 366.836 311.518 366.899 312.173 366.507C327.683 357.217 341.696 345.755 353.768 332.551C354.42 331.838 354.349 330.734 353.616 330.1C353.605 330.091 353.594 330.081 353.582 330.071C352.857 329.443 351.758 329.511 351.112 330.218Z" fill="#2847CF"/>
<path d="M64.4182 312.9C65.4082 312.456 65.7482 311.253 65.1422 310.366C45.8372 282.114 34.5612 248.17 34.5612 211.689C34.5612 179.87 43.1422 149.982 58.1442 124.115C58.7122 123.136 58.2052 121.894 57.0982 121.591C57.0862 121.588 57.0742 121.584 57.0622 121.581C56.2752 121.366 55.4362 121.692 55.0322 122.388C39.7362 148.764 30.9912 179.245 30.9912 211.689C30.9912 248.889 42.4872 283.505 62.1732 312.314C62.6542 313.017 63.5892 313.272 64.3752 312.92L64.4182 312.9Z" fill="#2847CF"/>
<path d="M289.873 375.976C289.486 375.104 288.473 374.693 287.582 375.069C265.611 384.353 241.411 389.503 216.003 389.503C194.966 389.503 174.763 385.956 155.961 379.471C155.142 379.188 154.224 379.516 153.82 380.269C153.814 380.28 153.809 380.29 153.803 380.301C153.299 381.245 153.743 382.418 154.769 382.772C173.945 389.385 194.548 393.002 216.002 393.002C241.914 393.002 266.594 387.749 288.999 378.279C289.891 377.903 290.274 376.881 289.886 376.008C289.883 375.998 289.878 375.987 289.873 375.976Z" fill="#2847CF"/>
<path d="M237.619 181.39H145.056C132.6 181.39 122.503 171.899 122.503 160.191C122.503 148.483 132.6 138.992 145.056 138.992H237.619C250.075 138.992 260.172 148.483 260.172 160.191C260.172 171.899 250.075 181.39 237.619 181.39Z" fill="#789AF6"/>
<path d="M148.23 179.633L156.48 191.264C157.455 192.638 159.612 192.611 160.549 191.214L168.309 179.633H148.23Z" fill="#789AF6"/>
<path d="M158.305 155.306H154.453C154.344 154.675 154.141 154.115 153.846 153.628C153.551 153.134 153.183 152.715 152.744 152.371C152.305 152.028 151.803 151.771 151.24 151.599C150.684 151.421 150.084 151.331 149.438 151.331C148.292 151.331 147.276 151.62 146.39 152.196C145.504 152.766 144.811 153.604 144.31 154.709C143.808 155.808 143.558 157.15 143.558 158.736C143.558 160.349 143.808 161.709 144.31 162.814C144.818 163.912 145.511 164.743 146.39 165.306C147.276 165.862 148.288 166.14 149.428 166.14C150.06 166.14 150.65 166.058 151.199 165.893C151.755 165.721 152.253 165.471 152.692 165.141C153.139 164.812 153.513 164.407 153.815 163.926C154.124 163.446 154.337 162.896 154.453 162.278L158.305 162.299C158.161 163.301 157.848 164.242 157.368 165.121C156.894 166 156.273 166.775 155.504 167.448C154.735 168.114 153.836 168.636 152.806 169.013C151.776 169.384 150.633 169.57 149.376 169.57C147.523 169.57 145.868 169.141 144.413 168.282C142.957 167.424 141.811 166.185 140.973 164.565C140.135 162.944 139.717 161.001 139.717 158.736C139.717 156.463 140.139 154.52 140.983 152.907C141.828 151.287 142.978 150.047 144.433 149.189C145.889 148.331 147.536 147.902 149.376 147.902C150.55 147.902 151.642 148.067 152.651 148.396C153.661 148.726 154.56 149.21 155.349 149.848C156.139 150.48 156.788 151.256 157.296 152.176C157.811 153.089 158.147 154.132 158.305 155.306ZM168.539 169.59C166.994 169.59 165.655 169.25 164.523 168.571C163.39 167.891 162.511 166.94 161.886 165.718C161.268 164.496 160.959 163.068 160.959 161.434C160.959 159.8 161.268 158.368 161.886 157.14C162.511 155.911 163.39 154.956 164.523 154.277C165.655 153.597 166.994 153.257 168.539 153.257C170.084 153.257 171.422 153.597 172.555 154.277C173.688 154.956 174.563 155.911 175.181 157.14C175.806 158.368 176.119 159.8 176.119 161.434C176.119 163.068 175.806 164.496 175.181 165.718C174.563 166.94 173.688 167.891 172.555 168.571C171.422 169.25 170.084 169.59 168.539 169.59ZM168.56 166.604C169.397 166.604 170.097 166.374 170.66 165.914C171.223 165.447 171.642 164.822 171.917 164.039C172.198 163.257 172.339 162.385 172.339 161.424C172.339 160.456 172.198 159.58 171.917 158.798C171.642 158.008 171.223 157.38 170.66 156.913C170.097 156.446 169.397 156.213 168.56 156.213C167.701 156.213 166.987 156.446 166.418 156.913C165.855 157.38 165.432 158.008 165.151 158.798C164.876 159.58 164.739 160.456 164.739 161.424C164.739 162.385 164.876 163.257 165.151 164.039C165.432 164.822 165.855 165.447 166.418 165.914C166.987 166.374 167.701 166.604 168.56 166.604ZM179.283 169.281V153.463H182.846V156.151H183.031C183.361 155.245 183.907 154.538 184.669 154.029C185.431 153.515 186.34 153.257 187.398 153.257C188.469 153.257 189.372 153.518 190.106 154.04C190.848 154.555 191.369 155.258 191.672 156.151H191.836C192.186 155.272 192.777 154.572 193.608 154.05C194.445 153.521 195.437 153.257 196.584 153.257C198.039 153.257 199.227 153.717 200.147 154.637C201.067 155.557 201.527 156.899 201.527 158.664V169.281H197.789V159.24C197.789 158.259 197.528 157.541 197.006 157.088C196.484 156.628 195.846 156.398 195.091 156.398C194.191 156.398 193.487 156.68 192.979 157.243C192.478 157.799 192.228 158.523 192.228 159.415V169.281H188.572V159.086C188.572 158.269 188.325 157.617 187.83 157.129C187.343 156.642 186.704 156.398 185.915 156.398C185.379 156.398 184.892 156.535 184.452 156.81C184.013 157.078 183.663 157.459 183.402 157.953C183.141 158.441 183.011 159.01 183.011 159.663V169.281H179.283ZM205.309 169.281V153.463H209.037V169.281H205.309ZM207.183 151.218C206.593 151.218 206.085 151.022 205.659 150.631C205.234 150.233 205.021 149.756 205.021 149.2C205.021 148.637 205.234 148.159 205.659 147.768C206.085 147.37 206.593 147.171 207.183 147.171C207.781 147.171 208.289 147.37 208.707 147.768C209.133 148.159 209.346 148.637 209.346 149.2C209.346 149.756 209.133 150.233 208.707 150.631C208.289 151.022 207.781 151.218 207.183 151.218ZM216.599 160.013V169.281H212.871V153.463H216.434V156.151H216.619C216.983 155.265 217.563 154.562 218.36 154.04C219.163 153.518 220.155 153.257 221.336 153.257C222.427 153.257 223.378 153.491 224.188 153.957C225.005 154.424 225.637 155.1 226.083 155.986C226.536 156.872 226.76 157.946 226.753 159.21V169.281H223.025V159.786C223.025 158.729 222.75 157.902 222.201 157.304C221.658 156.707 220.907 156.408 219.945 156.408C219.293 156.408 218.713 156.553 218.205 156.841C217.704 157.122 217.309 157.531 217.021 158.066C216.739 158.602 216.599 159.251 216.599 160.013ZM237.422 175.543C236.083 175.543 234.933 175.361 233.972 174.997C233.011 174.64 232.238 174.159 231.655 173.555C231.071 172.951 230.666 172.281 230.439 171.547L233.797 170.733C233.948 171.042 234.167 171.348 234.456 171.65C234.744 171.959 235.132 172.213 235.619 172.412C236.114 172.618 236.735 172.721 237.483 172.721C238.541 172.721 239.416 172.463 240.11 171.949C240.803 171.44 241.15 170.603 241.15 169.436V166.439H240.964C240.772 166.823 240.491 167.218 240.12 167.623C239.756 168.028 239.272 168.368 238.668 168.643C238.07 168.917 237.319 169.055 236.412 169.055C235.197 169.055 234.095 168.77 233.107 168.2C232.125 167.623 231.342 166.765 230.759 165.625C230.182 164.479 229.894 163.044 229.894 161.321C229.894 159.584 230.182 158.118 230.759 156.923C231.342 155.722 232.128 154.812 233.117 154.194C234.106 153.569 235.208 153.257 236.423 153.257C237.35 153.257 238.112 153.415 238.709 153.731C239.313 154.04 239.794 154.414 240.151 154.853C240.508 155.286 240.779 155.694 240.964 156.079H241.17V153.463H244.847V169.539C244.847 170.891 244.524 172.01 243.879 172.896C243.233 173.782 242.351 174.444 241.232 174.884C240.113 175.323 238.843 175.543 237.422 175.543ZM237.453 166.13C238.242 166.13 238.915 165.938 239.471 165.553C240.027 165.169 240.449 164.616 240.738 163.895C241.026 163.174 241.17 162.309 241.17 161.3C241.17 160.305 241.026 159.433 240.738 158.684C240.456 157.936 240.037 157.356 239.481 156.944C238.932 156.525 238.256 156.316 237.453 156.316C236.622 156.316 235.928 156.532 235.372 156.964C234.816 157.397 234.397 157.991 234.116 158.746C233.834 159.494 233.694 160.346 233.694 161.3C233.694 162.268 233.834 163.116 234.116 163.844C234.404 164.565 234.827 165.128 235.383 165.533C235.946 165.931 236.636 166.13 237.453 166.13Z" fill="white"/>
<path d="M116.226 244.835C116.701 246.797 117.528 248.308 118.709 249.366C119.96 250.425 121.318 251.17 122.784 251.601C124.25 251.962 125.647 252.148 126.977 252.158C129.705 252.179 131.843 251.67 133.39 250.633C135.008 249.526 135.823 248.133 135.837 246.454C135.848 245.055 135.332 243.967 134.289 243.189C133.245 242.412 131.886 241.807 130.211 241.374C128.605 240.872 126.931 240.37 125.186 239.867C123.301 239.362 121.277 238.787 119.113 238.141C117.019 237.496 115.033 236.606 113.153 235.472C111.273 234.338 109.746 232.893 108.57 231.135C107.395 229.377 106.818 227.204 106.838 224.616C106.864 221.328 107.796 218.502 109.634 216.137C111.472 213.703 113.971 211.833 117.129 210.528C120.288 209.223 123.826 208.585 127.743 208.615C132.43 208.651 136.479 209.661 139.891 211.646C143.303 213.631 145.764 216.518 147.273 220.307L136.858 223.586C136.376 222.603 135.648 221.758 134.675 221.051C133.771 220.344 132.655 219.846 131.329 219.556C130.072 219.197 128.779 219.012 127.45 219.002C125.212 218.985 123.32 219.425 121.773 220.322C120.227 221.22 119.447 222.508 119.434 224.187C119.427 225.027 119.666 225.763 120.151 226.396C120.706 227.03 121.436 227.56 122.342 227.987C123.249 228.344 124.33 228.702 125.586 229.061C126.843 229.351 128.17 229.711 129.565 230.141C131.799 230.788 133.997 231.504 136.159 232.29C138.392 233.007 140.414 233.932 142.223 235.065C144.103 236.198 145.561 237.679 146.595 239.505C147.7 241.333 148.311 243.646 148.429 246.445C148.405 249.453 147.509 252.21 145.74 254.715C143.971 257.15 141.438 259.089 138.138 260.533C134.909 261.907 131.056 262.577 126.579 262.543C121.403 262.504 116.969 261.35 113.28 259.084C109.59 256.817 107.1 253.195 105.811 248.218L116.226 244.835ZM182.858 262.973C177.822 262.935 173.318 261.816 169.348 259.617C165.379 257.348 162.291 254.212 160.084 250.207C157.878 246.133 156.796 241.367 156.84 235.911C156.884 230.385 158.076 225.602 160.417 221.562C162.757 217.523 165.965 214.434 170.04 212.296C174.115 210.089 178.636 209.004 183.602 209.042C188.639 209.081 193.142 210.234 197.111 212.503C201.151 214.703 204.345 217.84 206.691 221.916C209.037 225.921 210.189 230.652 210.146 236.109C210.102 241.635 208.839 246.417 206.359 250.456C203.948 254.495 200.67 257.618 196.525 259.825C192.45 261.962 187.895 263.012 182.858 262.973ZM182.838 252.375C185.286 252.394 187.599 251.817 189.777 250.644C192.025 249.472 193.858 247.702 195.276 245.334C196.695 242.897 197.419 239.789 197.449 236.012C197.478 232.374 196.837 229.361 195.527 226.972C194.218 224.514 192.483 222.682 190.324 221.476C188.165 220.27 185.826 219.658 183.308 219.638C180.86 219.62 178.582 220.197 176.473 221.37C174.435 222.544 172.777 224.35 171.498 226.789C170.22 229.158 169.566 232.231 169.536 236.008C169.507 239.646 170.078 242.693 171.247 245.151C172.487 247.539 174.117 249.335 176.136 250.54C178.156 251.744 180.389 252.356 182.838 252.375ZM244.443 263.444C239.406 263.406 234.903 262.287 230.933 260.088C226.963 257.819 223.875 254.682 221.668 250.678C219.462 246.603 218.381 241.838 218.424 236.382C218.468 230.856 219.661 226.073 222.001 222.033C224.342 217.993 227.55 214.905 231.624 212.767C235.699 210.56 240.22 209.475 245.187 209.513C250.224 209.551 254.727 210.705 258.696 212.974C262.736 215.174 265.929 218.311 268.275 222.387C270.622 226.392 271.774 231.123 271.73 236.579C271.686 242.106 270.424 246.888 267.943 250.927C265.532 254.966 262.255 258.089 258.11 260.296C254.035 262.433 249.479 263.483 244.443 263.444ZM244.422 252.846C246.871 252.864 249.184 252.287 251.362 251.115C253.61 249.943 255.443 248.173 256.861 245.805C258.279 243.367 259.004 240.26 259.034 236.482C259.063 232.845 258.422 229.832 257.112 227.443C255.802 224.985 254.068 223.153 251.909 221.947C249.75 220.741 247.411 220.128 244.893 220.109C242.444 220.091 240.166 220.668 238.058 221.841C236.02 223.015 234.362 224.821 233.083 227.26C231.805 229.628 231.151 232.701 231.121 236.479C231.092 240.116 231.662 243.164 232.832 245.621C234.072 248.009 235.702 249.806 237.721 251.01C239.74 252.215 241.974 252.827 244.422 252.846ZM283.052 210.537L293.754 210.619L294.553 215.767C296.316 213.961 298.391 212.543 300.778 211.512C303.235 210.481 305.862 209.977 308.66 209.998C312.787 210.03 316.313 210.931 319.237 212.702C322.232 214.404 324.52 216.94 326.102 220.31C327.685 223.61 328.457 227.744 328.417 232.71L328.173 263.35L316.316 263.259L316.548 234.194C316.583 229.787 315.7 226.457 313.899 224.205C312.168 221.953 309.519 220.813 305.951 220.786C302.313 220.758 299.541 221.891 297.634 224.185C295.727 226.409 294.757 229.725 294.722 234.132L294.491 263.092L282.634 263.002L283.052 210.537Z" fill="#FCFDFD"/>
<path d="M378.863 211.683C378.863 251.588 363.834 288.113 339.041 316.125C338.294 316.969 338.546 318.27 339.562 318.776C339.576 318.783 339.59 318.79 339.604 318.797C340.32 319.152 341.194 318.988 341.72 318.394C367.051 289.772 382.406 252.455 382.406 211.682C382.406 155.006 352.748 104.995 307.847 75.7597C306.925 75.1589 305.669 75.5548 305.263 76.5642L305.25 76.5976C304.943 77.36 305.225 78.2244 305.922 78.6781C349.849 107.295 378.863 156.227 378.863 211.683Z" fill="#789AF6"/>
<path d="M209.551 371.16C122.311 367.812 52.4743 296.896 53.1473 210.445C53.8163 124.527 124.538 54.1094 212.189 52.1249C227.899 51.7691 243.12 53.6184 257.565 57.3581C258.322 57.5541 259.183 57.1405 259.482 56.431L259.487 56.4183C259.538 56.2987 259.589 56.1791 259.641 56.0596C260 55.2325 259.536 54.2789 258.65 54.0476C243.946 50.2227 228.453 48.3166 212.463 48.6459C121.643 50.5138 48.7393 124.25 49.6083 213.269C50.4583 300.305 121.238 371.246 209.417 374.627C210.357 374.663 211.152 373.957 211.231 373.039C211.232 373.027 211.233 373.015 211.234 373.004C211.319 372.03 210.546 371.197 209.551 371.16Z" fill="#789AF6"/>
<path d="M354.215 48.2826C349.562 48.2826 345.776 44.5723 345.776 40.0124C345.776 35.4525 349.562 31.7422 354.215 31.7422C358.868 31.7422 362.654 35.4525 362.654 40.0124C362.654 44.5723 358.868 48.2826 354.215 48.2826ZM354.215 34.6822C351.216 34.6822 348.776 37.0734 348.776 40.0124C348.776 42.9524 351.216 45.3426 354.215 45.3426C357.214 45.3426 359.654 42.9514 359.654 40.0124C359.654 37.0724 357.214 34.6822 354.215 34.6822Z" fill="#2847CF"/>
<path d="M48.6011 365.439C43.9481 365.439 40.1621 361.729 40.1621 357.169C40.1621 352.609 43.9481 348.898 48.6011 348.898C53.2541 348.898 57.0401 352.608 57.0401 357.169C57.0401 361.729 53.2541 365.439 48.6011 365.439ZM48.6011 351.838C45.6021 351.838 43.1621 354.229 43.1621 357.169C43.1621 360.108 45.6021 362.499 48.6011 362.499C51.6011 362.499 54.0401 360.108 54.0401 357.169C54.0401 354.229 51.6001 351.838 48.6011 351.838Z" fill="#2847CF"/>
<path d="M419.73 141.642C423.006 141.642 425.662 139.04 425.662 135.829C425.662 132.618 423.006 130.016 419.73 130.016C416.454 130.016 413.798 132.618 413.798 135.829C413.798 139.04 416.454 141.642 419.73 141.642Z" fill="#2847CF"/>
<path d="M21.059 91.8298C24.3351 91.8298 26.991 89.2271 26.991 86.0165C26.991 82.8059 24.3351 80.2031 21.059 80.2031C17.7828 80.2031 15.127 82.8059 15.127 86.0165C15.127 89.2271 17.7828 91.8298 21.059 91.8298Z" fill="#2847CF"/>
<path d="M405.937 347.22C405.109 347.22 404.437 346.561 404.437 345.75V333.681C404.437 332.869 405.109 332.211 405.937 332.211C406.765 332.211 407.437 332.869 407.437 333.681V345.75C407.437 346.561 406.765 347.22 405.937 347.22Z" fill="#2847CF"/>
<path d="M412.093 341.182H399.778C398.95 341.182 398.278 340.524 398.278 339.712C398.278 338.901 398.95 338.242 399.778 338.242H412.093C412.921 338.242 413.593 338.901 413.593 339.712C413.593 340.524 412.921 341.182 412.093 341.182Z" fill="#2847CF"/>
<path d="M177.923 19.6181C177.094 19.6181 176.423 18.9605 176.423 18.1481V6.07938C176.423 5.26696 177.094 4.60938 177.923 4.60938C178.752 4.60938 179.423 5.26696 179.423 6.07938V18.1481C179.423 18.9605 178.752 19.6181 177.923 19.6181Z" fill="#2847CF"/>
<path d="M184.081 13.5806H171.766C170.937 13.5806 170.266 12.923 170.266 12.1106C170.266 11.2982 170.937 10.6406 171.766 10.6406H184.081C184.91 10.6406 185.581 11.2982 185.581 12.1106C185.581 12.9221 184.91 13.5806 184.081 13.5806Z" fill="#2847CF"/>
<path d="M143.738 310.319C143.41 310.319 143.083 310.196 142.833 309.949L134.915 302.099C134.554 301.742 134.448 301.206 134.646 300.742C134.844 300.278 135.307 299.977 135.82 299.977H297.895C298.597 299.977 299.167 300.534 299.167 301.223C299.167 301.912 298.598 302.47 297.895 302.47H138.865L144.642 308.197C145.135 308.687 145.131 309.476 144.632 309.96C144.384 310.199 144.061 310.319 143.738 310.319Z" fill="#789AF6"/>
</svg>
