<svg width="806" height="539" viewBox="0 0 806 539" fill="none" xmlns="http://www.w3.org/2000/svg">
<path d="M780.583 219.386C762.418 136.785 699.205 71.5871 613.127 49.7529C590.495 44.0125 566.425 41.1116 542.473 43.5799C444.582 53.6706 327.807 119.626 267.219 133.453C206.631 147.279 135.585 91.973 55.0104 176.908C-25.5627 261.843 -6.94839 458.378 154.161 496.894C315.27 535.411 404.946 440.6 476.509 461.34C548.072 482.08 676.191 473.191 751.844 411.959C796.703 375.651 796.349 291.076 780.583 219.386Z" fill="#3550DC"/>
<path opacity="0.8" d="M780.583 219.386C762.418 136.785 699.205 71.5871 613.127 49.7529C590.495 44.0125 566.425 41.1116 542.473 43.5799C444.582 53.6706 327.807 119.626 267.219 133.453C206.631 147.279 135.585 91.973 55.0104 176.908C-25.5627 261.843 -6.94839 458.378 154.161 496.894C315.27 535.411 404.946 440.6 476.509 461.34C548.072 482.08 676.191 473.191 751.844 411.959C796.703 375.651 796.349 291.076 780.583 219.386Z" fill="white"/>
<path opacity="0.2" d="M435.921 238.531H402.74V251.978H435.921V238.531Z" fill="black"/>
<path opacity="0.2" d="M423.28 190.68H390.1V204.126H423.28V190.68Z" fill="black"/>
<path opacity="0.2" d="M303.198 238.141H270.018V251.587H303.198V238.141Z" fill="black"/>
<path opacity="0.2" d="M351.389 144.57H318.209V158.017H351.389V144.57Z" fill="black"/>
<path opacity="0.2" d="M387.731 144.57H354.551V158.017H387.731V144.57Z" fill="black"/>
<path opacity="0.2" d="M246.317 337.57H213.137V351.017H246.317V337.57Z" fill="black"/>
<path opacity="0.2" d="M228.938 354.188H195.758V367.634H228.938V354.188Z" fill="black"/>
<path opacity="0.1" d="M405.11 209.266H371.93V222.712H405.11V209.266Z" fill="black"/>
<path opacity="0.1" d="M454.882 284.805H421.701V298.251H454.882V284.805Z" fill="black"/>
<path opacity="0.1" d="M260.538 305.375H227.357V318.822H260.538V305.375Z" fill="black"/>
<path opacity="0.1" d="M298.46 305.375H265.279V318.822H298.46V305.375Z" fill="black"/>
<path opacity="0.1" d="M301.618 286.391H268.438V299.837H301.618V286.391Z" fill="black"/>
<path opacity="0.1" d="M443.03 209.266H409.85V222.712H443.03V209.266Z" fill="black"/>
<path opacity="0.2" d="M426.35 102.18H393.17V115.626H426.35V102.18Z" fill="black"/>
<path opacity="0.2" d="M413.71 54.3281H380.529V67.7749H413.71V54.3281Z" fill="black"/>
<path opacity="0.1" d="M395.54 72.9141H362.359V86.3608H395.54V72.9141Z" fill="black"/>
<path opacity="0.1" d="M433.46 72.9141H400.279V86.3608H433.46V72.9141Z" fill="black"/>
<path opacity="0.2" d="M344.28 352.828H311.1V366.275H344.28V352.828Z" fill="black"/>
<path opacity="0.1" d="M326.11 371.422H292.93V384.869H326.11V371.422Z" fill="black"/>
<path opacity="0.1" d="M364.03 371.422H330.85V384.869H364.03V371.422Z" fill="black"/>
<path opacity="0.2" d="M183.426 185.469H150.246V198.916H183.426V185.469Z" fill="black"/>
<path opacity="0.1" d="M165.257 204.055H132.076V217.501H165.257V204.055Z" fill="black"/>
<path opacity="0.1" d="M203.176 204.055H169.996V217.501H203.176V204.055Z" fill="black"/>
<path opacity="0.2" d="M170.477 285.602H137.297V299.048H170.477V285.602Z" fill="black"/>
<path opacity="0.1" d="M317.419 221.297H284.238V234.744H317.419V221.297Z" fill="black"/>
<path opacity="0.1" d="M267.649 353.391H234.469V366.837H267.649V353.391Z" fill="black"/>
<path opacity="0.1" d="M370.35 127.961H337.17V141.408H370.35V127.961Z" fill="black"/>
<path opacity="0.2" d="M151.516 241.07H118.336V254.517H151.516V241.07Z" fill="black"/>
<path opacity="0.1" d="M170.477 224.461H137.297V237.908H170.477V224.461Z" fill="black"/>
<path opacity="0.1" d="M255.008 143.617H221.828V157.064H255.008V143.617Z" fill="black"/>
<path opacity="0.2" d="M370.35 238.531H337.17V251.978H370.35V238.531Z" fill="black"/>
<path opacity="0.2" d="M516.001 251.984H549.182V238.538H516.001V251.984Z" fill="black"/>
<path opacity="0.2" d="M528.64 204.125H561.82V190.678H528.64V204.125Z" fill="black"/>
<path opacity="0.2" d="M648.722 251.586H681.902V238.139H648.722V251.586Z" fill="black"/>
<path opacity="0.2" d="M600.531 158.016H633.711V144.569H600.531V158.016Z" fill="black"/>
<path opacity="0.2" d="M564.191 158.016H597.371V144.569H564.191V158.016Z" fill="black"/>
<path opacity="0.1" d="M546.81 222.711H579.99V209.264H546.81V222.711Z" fill="black"/>
<path opacity="0.1" d="M497.04 298.25H530.221V284.803H497.04V298.25Z" fill="black"/>
<path opacity="0.1" d="M691.382 318.82H724.562V305.374H691.382V318.82Z" fill="black"/>
<path opacity="0.1" d="M653.462 318.82H686.643V305.374H653.462V318.82Z" fill="black"/>
<path opacity="0.1" d="M650.302 299.836H683.482V286.389H650.302V299.836Z" fill="black"/>
<path opacity="0.1" d="M508.89 222.711H542.07V209.264H508.89V222.711Z" fill="black"/>
<path opacity="0.2" d="M250.122 419.781H283.303V406.334H250.122V419.781Z" fill="black"/>
<path opacity="0.1" d="M268.292 438.367H301.473V424.92H268.292V438.367Z" fill="black"/>
<path opacity="0.1" d="M230.37 438.367H263.551V424.92H230.37V438.367Z" fill="black"/>
<path opacity="0.2" d="M89.5091 419.781H122.689V406.334H89.5091V419.781Z" fill="black"/>
<path opacity="0.1" d="M107.679 438.367H140.859V424.92H107.679V438.367Z" fill="black"/>
<path opacity="0.1" d="M69.7591 438.367H102.939V424.92H69.7591V438.367Z" fill="black"/>
<path opacity="0.2" d="M607.642 366.281H640.822V352.835H607.642V366.281Z" fill="black"/>
<path opacity="0.1" d="M625.812 384.867H658.992V371.42H625.812V384.867Z" fill="black"/>
<path opacity="0.1" d="M587.89 384.867H621.07V371.42H587.89V384.867Z" fill="black"/>
<path opacity="0.1" d="M634.501 234.742H667.682V221.295H634.501V234.742Z" fill="black"/>
<path opacity="0.1" d="M684.273 366.844H717.453V353.397H684.273V366.844Z" fill="black"/>
<path opacity="0.1" d="M522.415 385.75H555.596V372.303H522.415V385.75Z" fill="black"/>
<path opacity="0.1" d="M484.493 385.75H517.674V372.303H484.493V385.75Z" fill="black"/>
<path opacity="0.2" d="M438.673 433.203H471.854V419.756H438.673V433.203Z" fill="black"/>
<path opacity="0.1" d="M722.142 451.797H755.322V438.35H722.142V451.797Z" fill="black"/>
<path opacity="0.1" d="M722.142 417.398H755.322V403.952H722.142V417.398Z" fill="black"/>
<path opacity="0.1" d="M739.144 434.133H772.324V420.686H739.144V434.133Z" fill="black"/>
<path opacity="0.1" d="M701.079 434.133H734.26V420.686H701.079V434.133Z" fill="black"/>
<path opacity="0.1" d="M515.304 433.766H548.484V420.319H515.304V433.766Z" fill="black"/>
<path opacity="0.2" d="M591.962 464.922H558.781V478.369H591.962V464.922Z" fill="black"/>
<path opacity="0.1" d="M573.792 483.508H540.611V496.955H573.792V483.508Z" fill="black"/>
<path opacity="0.1" d="M611.712 483.508H578.531V496.955H611.712V483.508Z" fill="black"/>
<path opacity="0.2" d="M702.44 453.055H669.26V466.501H702.44V453.055Z" fill="black"/>
<path opacity="0.1" d="M684.27 483.508H651.09V496.955H684.27V483.508Z" fill="black"/>
<path opacity="0.1" d="M722.192 483.508H689.012V496.955H722.192V483.508Z" fill="black"/>
<path opacity="0.1" d="M107.649 496.938H74.4688V510.384H107.649V496.938Z" fill="black"/>
<path opacity="0.1" d="M216.495 479.273H183.314V492.72H216.495V479.273Z" fill="black"/>
<path opacity="0.1" d="M155.221 462.539H122.041V475.986H155.221V462.539Z" fill="black"/>
<path opacity="0.1" d="M138.217 479.273H105.037V492.72H138.217V479.273Z" fill="black"/>
<path opacity="0.1" d="M176.282 479.273H143.102V492.72H176.282V479.273Z" fill="black"/>
<path opacity="0.1" d="M581.572 141.406H614.752V127.959H581.572V141.406Z" fill="black"/>
<path opacity="0.1" d="M563.931 84.7031H597.111V71.2564H563.931V84.7031Z" fill="black"/>
<path opacity="0.1" d="M696.913 157.062H730.094V143.616H696.913V157.062Z" fill="black"/>
<path opacity="0.2" d="M581.572 251.984H614.752V238.538H581.572V251.984Z" fill="black"/>
<path opacity="0.2" d="M244.02 52.3125H210.84V65.7593H244.02V52.3125Z" fill="black"/>
<path opacity="0.1" d="M109.964 147.594H76.7832V161.041H109.964V147.594Z" fill="black"/>
<path opacity="0.1" d="M151.339 159.195H118.158V172.642H151.339V159.195Z" fill="black"/>
<path opacity="0.1" d="M70.2428 172.453H37.0625V185.9H70.2428V172.453Z" fill="black"/>
<path opacity="0.1" d="M130.186 173.047H97.0059V186.494H130.186V173.047Z" fill="black"/>
<path opacity="0.2" d="M223.717 71.1719H190.537V84.6186H223.717V71.1719Z" fill="black"/>
<path opacity="0.2" d="M579.173 52.3125H545.992V65.7593H579.173V52.3125Z" fill="black"/>
<path opacity="0.2" d="M558.868 71.1719H525.688V84.6186H558.868V71.1719Z" fill="black"/>
<path d="M98.0153 229.78H12.4277V215.792H91.0299V13.3125H105.001V222.786C105.001 226.649 101.873 229.78 98.0153 229.78Z" fill="white" stroke="#263238" stroke-miterlimit="10" stroke-linecap="round" stroke-linejoin="round"/>
<path d="M746.089 8.50781V88.5945H104.703V102.582H723.643V440.662H558.554C554.696 440.662 551.569 443.793 551.569 447.656V499.154H565.54V454.649H723.643V501.964H737.614V102.581H753.074C756.932 102.581 760.06 99.4503 760.06 95.5874V8.50781H746.089Z" fill="white" stroke="#263238" stroke-miterlimit="10" stroke-linecap="round" stroke-linejoin="round"/>
<path d="M759.941 51.6094H746.293V57.9578H759.941V51.6094Z" fill="white" stroke="#263238" stroke-miterlimit="10" stroke-linecap="round" stroke-linejoin="round"/>
<path d="M614.818 454.547V440.883H608.478V454.547H614.818Z" fill="white" stroke="#263238" stroke-miterlimit="10" stroke-linecap="round" stroke-linejoin="round"/>
<path d="M628.625 454.547V440.883H622.284V454.547H628.625Z" fill="white" stroke="#263238" stroke-miterlimit="10" stroke-linecap="round" stroke-linejoin="round"/>
<path d="M257.467 466.156H32.1777V480.144H257.467V466.156Z" fill="white" stroke="#263238" stroke-miterlimit="10" stroke-linecap="round" stroke-linejoin="round"/>
<path d="M257.467 446.883H32.1777V460.871H257.467V446.883Z" fill="white" stroke="#263238" stroke-miterlimit="10" stroke-linecap="round" stroke-linejoin="round"/>
<path d="M137.925 447.141H128.291V460.734H137.925V447.141Z" fill="white" stroke="#263238" stroke-miterlimit="10" stroke-linecap="round" stroke-linejoin="round"/>
<path d="M157.996 447.141H148.361V460.734H157.996V447.141Z" fill="white" stroke="#263238" stroke-miterlimit="10" stroke-linecap="round" stroke-linejoin="round"/>
<path d="M137.925 466.422H128.291V480.015H137.925V466.422Z" fill="white" stroke="#263238" stroke-miterlimit="10" stroke-linecap="round" stroke-linejoin="round"/>
<path d="M157.996 466.422H148.361V480.015H157.996V466.422Z" fill="white" stroke="#263238" stroke-miterlimit="10" stroke-linecap="round" stroke-linejoin="round"/>
<path d="M288.095 185.78V167.331H276.873C276.332 164.242 275.539 161.24 274.49 158.359L284.187 152.754L274.974 136.777L265.256 142.395C263.265 140.022 261.072 137.827 258.702 135.835L264.311 126.109L248.353 116.885L242.752 126.598C239.874 125.549 236.876 124.756 233.791 124.216V112.984H215.363V124.22C212.278 124.761 209.28 125.555 206.403 126.605L200.805 116.897L184.847 126.121L190.458 135.852C188.088 137.844 185.897 140.04 183.907 142.413L174.193 136.797L164.98 152.775L174.681 158.383C173.633 161.264 172.841 164.267 172.301 167.356H161.084V185.805H172.306C172.846 188.894 173.639 191.896 174.688 194.777L164.991 200.381L174.205 216.359L183.923 210.741C185.913 213.114 188.106 215.309 190.476 217.3L184.867 227.026L200.825 236.251L206.426 226.538C209.304 227.587 212.303 228.38 215.388 228.92V240.151H233.814V228.916C236.9 228.375 239.898 227.581 242.775 226.53L248.373 236.239L264.33 227.015L258.72 217.284C261.089 215.292 263.282 213.095 265.271 210.723L274.985 216.338L284.198 200.361L274.497 194.753C275.545 191.871 276.337 188.869 276.876 185.78H288.095ZM224.59 210.944C205.629 210.944 190.257 195.554 190.257 176.57C190.257 157.585 205.628 142.195 224.59 142.195C243.552 142.195 258.924 157.585 258.924 176.57C258.923 195.554 243.552 210.944 224.59 210.944Z" fill="white" stroke="#263238" stroke-miterlimit="10" stroke-linecap="round" stroke-linejoin="round"/>
<path d="M204.324 355.171V336.722H193.102C192.562 333.632 191.769 330.631 190.72 327.75L200.416 322.145L191.203 306.168L181.485 311.785C179.495 309.413 177.301 307.218 174.932 305.226L180.54 295.5L164.583 286.275L158.982 295.989C156.104 294.939 153.105 294.146 150.02 293.606V282.375H131.594V293.611C128.508 294.152 125.51 294.946 122.633 295.996L117.035 286.287L101.077 295.512L106.688 305.242C104.319 307.235 102.126 309.431 100.137 311.804L90.4232 306.188L81.2101 322.165L90.9111 327.774C89.8633 330.655 89.0713 333.657 88.5318 336.746H77.3145V355.195H88.5361C89.0767 358.285 89.8698 361.287 90.9187 364.167L81.2219 369.772L90.4351 385.75L100.153 380.132C102.144 382.504 104.337 384.698 106.707 386.691L101.098 396.417L117.056 405.642L122.657 395.928C125.535 396.978 128.533 397.771 131.618 398.311V409.542H150.045V398.306C153.13 397.765 156.127 396.971 159.005 395.921L164.603 405.63L180.561 396.405L174.95 386.675C177.32 384.682 179.511 382.486 181.501 380.113L191.215 385.729L200.428 369.752L190.727 364.143C191.775 361.262 192.567 358.26 193.107 355.171H204.324ZM140.82 380.335C121.858 380.335 106.486 364.945 106.486 345.959C106.486 326.973 121.857 311.584 140.82 311.584C159.781 311.584 175.152 326.974 175.152 345.959C175.152 364.944 159.781 380.335 140.82 380.335Z" fill="white" stroke="#263238" stroke-miterlimit="10" stroke-linecap="round" stroke-linejoin="round"/>
<path d="M671.927 352.532V340.077H664.351C663.986 337.992 663.451 335.965 662.742 334.02L669.288 330.236L663.069 319.45L656.508 323.243C655.164 321.642 653.684 320.16 652.084 318.815L655.87 312.249L645.098 306.023L641.317 312.58C639.374 311.872 637.35 311.336 635.268 310.972V303.391H622.828V310.975C620.746 311.341 618.722 311.877 616.779 312.586L612.999 306.032L602.227 312.259L606.015 318.828C604.416 320.173 602.936 321.656 601.593 323.258L595.035 319.467L588.816 330.253L595.365 334.038C594.658 335.984 594.123 338.01 593.76 340.095H586.188V352.55H593.763C594.128 354.635 594.663 356.661 595.372 358.607L588.826 362.391L595.045 373.177L601.606 369.384C602.949 370.985 604.43 372.467 606.03 373.812L602.244 380.377L613.017 386.604L616.797 380.047C618.74 380.755 620.764 381.291 622.847 381.655V389.236H635.286V381.651C637.369 381.285 639.392 380.75 641.335 380.041L645.115 386.594L655.887 380.368L652.099 373.799C653.698 372.453 655.178 370.971 656.521 369.369L663.079 373.16L669.298 362.374L662.749 358.588C663.456 356.643 663.991 354.617 664.354 352.532H671.927ZM629.056 369.519C616.256 369.519 605.879 359.13 605.879 346.313C605.879 333.497 616.256 323.107 629.056 323.107C641.856 323.107 652.233 333.497 652.233 346.313C652.233 359.13 641.856 369.519 629.056 369.519Z" fill="white" stroke="#263238" stroke-miterlimit="10" stroke-linecap="round" stroke-linejoin="round"/>
<path d="M611.129 176.125V163.671H603.553C603.188 161.585 602.653 159.559 601.945 157.614L608.49 153.83L602.27 143.044L595.709 146.837C594.366 145.235 592.885 143.753 591.285 142.409L595.071 135.843L584.299 129.616L580.518 136.173C578.575 135.465 576.551 134.93 574.469 134.566V126.984H562.029V134.569C559.947 134.935 557.923 135.471 555.98 136.18L552.201 129.626L541.428 135.853L545.216 142.422C543.617 143.768 542.137 145.249 540.794 146.852L534.236 143.061L528.017 153.847L534.566 157.632C533.859 159.577 533.324 161.604 532.961 163.689H525.389V176.144H532.964C533.329 178.229 533.865 180.255 534.573 182.2L528.027 185.985L534.247 196.771L540.808 192.978C542.151 194.579 543.632 196.06 545.232 197.405L541.446 203.971L552.219 210.198L555.999 203.641C557.942 204.349 559.966 204.885 562.049 205.248V212.83H574.488V205.245C576.571 204.879 578.594 204.343 580.537 203.634L584.317 210.188L595.089 203.961L591.301 197.392C592.9 196.046 594.38 194.565 595.723 192.963L602.281 196.753L608.5 185.967L601.951 182.182C602.658 180.237 603.193 178.211 603.557 176.125H611.129ZM568.258 193.113C555.458 193.113 545.081 182.723 545.081 169.907C545.081 157.091 555.458 146.701 568.258 146.701C581.059 146.701 591.436 157.091 591.436 169.907C591.436 182.723 581.059 193.113 568.258 193.113Z" fill="white" stroke="#263238" stroke-miterlimit="10" stroke-linecap="round" stroke-linejoin="round"/>
<path d="M160.708 420.274V334H48.5547V278.767L144.751 50.5312H226.814V280.137H262.375V334.001H226.814V420.275L160.708 420.274ZM104.175 280.137H160.707V123.111L104.175 280.137Z" fill="#01060B"/>
<path d="M226.814 420.811H160.708C160.412 420.811 160.171 420.57 160.171 420.273V334.537H48.5549C48.2583 334.537 48.0176 334.296 48.0176 333.999V278.766C48.0176 278.695 48.0315 278.623 48.0606 278.557L144.257 50.3214C144.341 50.1224 144.536 49.9922 144.753 49.9922H226.815C227.112 49.9922 227.353 50.2332 227.353 50.5302V279.598H262.376C262.673 279.598 262.913 279.839 262.913 280.136V334C262.913 334.297 262.673 334.538 262.376 334.538H227.353V420.274C227.352 420.57 227.112 420.811 226.814 420.811ZM161.246 419.735H226.277V333.999C226.277 333.702 226.518 333.461 226.814 333.461H261.838V280.673H226.814C226.518 280.673 226.277 280.432 226.277 280.135V51.0682H145.107L49.0922 278.876V333.461H160.708C161.005 333.461 161.246 333.702 161.246 333.999V419.735ZM160.708 280.674H104.176C104.001 280.674 103.838 280.589 103.737 280.445C103.636 280.301 103.612 280.117 103.671 279.953L160.204 122.927C160.292 122.68 160.548 122.539 160.802 122.579C161.059 122.624 161.247 122.848 161.247 123.11V280.136C161.246 280.433 161.006 280.674 160.708 280.674ZM104.941 279.598H160.171V126.188L104.941 279.598Z" fill="#263238"/>
<path d="M394.588 426.661C372.398 426.661 354.013 422.097 339.423 412.966C324.835 403.837 313.892 391.285 306.599 375.307C299.304 359.331 295.656 340.844 295.656 319.846V154.147C295.656 132.543 299.147 113.599 306.142 97.3172C313.13 81.0406 323.922 68.3308 338.512 59.2021C353.1 50.0733 371.793 45.5078 394.588 45.5078C417.077 45.5078 435.541 50.0733 449.981 59.2021C464.413 68.3308 475.127 81.0416 482.123 97.3172C489.111 113.6 492.609 132.544 492.609 154.147V319.847C492.609 340.845 488.961 359.332 481.667 375.308C474.371 391.286 463.43 403.838 448.841 412.967C434.252 422.096 416.165 426.661 394.588 426.661ZM394.588 364.581C402.794 364.581 408.721 361.998 412.368 356.82C416.016 351.649 418.444 345.487 419.663 338.333C420.873 331.186 421.487 324.567 421.487 318.476V155.516C421.487 148.825 420.953 141.822 419.891 134.518C418.823 127.214 416.471 120.902 412.824 115.575C409.177 110.254 403.093 107.587 394.588 107.587C386.075 107.587 379.921 110.254 376.124 115.575C372.321 120.903 369.891 127.215 368.829 134.518C367.76 141.822 367.233 148.825 367.233 155.516V318.476C367.233 324.567 367.838 331.187 369.057 338.333C370.268 345.486 372.854 351.649 376.808 356.82C380.754 361.999 386.681 364.581 394.588 364.581Z" fill="#01060B"/>
<path d="M394.588 427.198C372.402 427.198 353.745 422.563 339.139 413.421C324.526 404.277 313.414 391.529 306.11 375.53C298.817 359.557 295.119 340.823 295.119 319.845V154.146C295.119 132.558 298.661 113.367 305.649 97.1031C312.651 80.7952 323.612 67.8897 338.227 58.7448C352.835 49.6031 371.798 44.9688 394.588 44.9688C417.074 44.9688 435.808 49.6042 450.268 58.7459C464.724 67.8908 475.607 80.7952 482.615 97.1031C489.603 113.383 493.146 132.576 493.146 154.146V319.846C493.146 340.821 489.449 359.557 482.155 375.531C474.85 391.53 463.736 404.28 449.125 413.422C434.518 422.564 416.17 427.198 394.588 427.198ZM394.588 46.0448C372.002 46.0448 353.232 50.6242 338.797 59.6572C324.371 68.6849 313.55 81.4258 306.636 97.5292C299.707 113.657 296.194 132.707 296.194 154.147V319.847C296.194 340.669 299.858 359.253 307.087 375.084C314.302 390.89 325.278 403.481 339.708 412.511C354.142 421.544 372.606 426.124 394.588 426.124C415.965 426.124 434.123 421.543 448.556 412.511C462.986 403.48 473.961 390.889 481.177 375.084C488.407 359.252 492.071 340.669 492.071 319.847V154.146C492.071 132.722 488.557 113.674 481.629 97.5281C474.708 81.4236 463.962 68.6806 449.694 59.6551C435.408 50.6231 416.868 46.0448 394.588 46.0448ZM394.588 365.119C386.538 365.119 380.412 362.437 376.381 357.148C372.39 351.927 369.748 345.627 368.527 338.424C367.313 331.295 366.696 324.584 366.696 318.477V155.517C366.696 148.793 367.235 141.702 368.298 134.441C369.366 127.087 371.853 120.634 375.686 115.263C379.575 109.813 385.934 107.049 394.587 107.049C403.242 107.049 409.527 109.815 413.266 115.271C416.938 120.634 419.345 127.084 420.421 134.441C421.484 141.752 422.022 148.843 422.022 155.517V318.477C422.022 324.54 421.406 331.251 420.191 338.424C418.964 345.629 416.478 351.924 412.805 357.131C409.075 362.431 402.945 365.119 394.588 365.119ZM394.588 108.125C386.301 108.125 380.237 110.736 376.562 115.888C372.828 121.118 370.406 127.413 369.361 134.596C368.306 141.807 367.772 148.845 367.772 155.517V318.477C367.772 324.523 368.382 331.174 369.587 338.243C370.778 345.273 373.351 351.414 377.234 356.494C381.053 361.503 386.89 364.044 394.588 364.044C402.575 364.044 408.409 361.51 411.929 356.512C415.51 351.435 417.933 345.289 419.134 338.243C420.338 331.131 420.949 324.48 420.949 318.477V155.517C420.949 148.894 420.413 141.856 419.359 134.596C418.307 127.403 415.959 121.107 412.38 115.879C408.854 110.734 402.868 108.125 394.588 108.125Z" fill="#263238"/>
<path d="M643.057 420.274V334H530.904V278.767L627.1 50.5312H709.164V280.137H744.724V334.001H709.164V420.275L643.057 420.274ZM586.525 280.137H643.058V123.111L586.525 280.137Z" fill="#01060B"/>
<path d="M709.164 420.811H643.057C642.76 420.811 642.519 420.57 642.519 420.273V334.537H530.905C530.608 334.537 530.367 334.296 530.367 333.999V278.766C530.367 278.695 530.382 278.623 530.409 278.557L626.605 50.3214C626.688 50.1224 626.884 49.9922 627.1 49.9922H709.164C709.46 49.9922 709.701 50.2332 709.701 50.5302V279.598H744.724C745.021 279.598 745.262 279.839 745.262 280.136V334C745.262 334.297 745.021 334.538 744.724 334.538H709.701V420.274C709.701 420.57 709.46 420.811 709.164 420.811ZM643.594 419.735H708.626V333.999C708.626 333.702 708.867 333.461 709.164 333.461H744.187V280.673H709.164C708.867 280.673 708.626 280.432 708.626 280.135V51.0682H627.457L531.442 278.876V333.461H643.057C643.353 333.461 643.594 333.702 643.594 333.999V419.735ZM643.057 280.674H586.525C586.35 280.674 586.185 280.589 586.085 280.445C585.984 280.301 585.961 280.117 586.02 279.953L642.552 122.927C642.641 122.68 642.889 122.534 643.15 122.579C643.407 122.624 643.595 122.848 643.595 123.11V280.136C643.594 280.433 643.353 280.674 643.057 280.674ZM587.289 279.598H642.519V126.189L587.289 279.598Z" fill="#01060B"/>
<path d="M313.529 502.99V447.242H333.67V451.302H318.822V472.225H330.921V476.078H318.822V499.066H333.807V502.988H313.529V502.99Z" fill="#263238"/>
<path d="M340.955 502.99V447.242H353.534C357.016 447.242 359.755 447.805 361.749 448.928C363.742 450.053 365.174 451.681 366.044 453.814C366.915 455.947 367.35 458.483 367.35 461.419C367.35 463.483 367.12 465.434 366.662 467.27C366.203 469.105 365.425 470.666 364.325 471.95C363.225 473.234 361.666 474.083 359.65 474.496L368.174 502.989H363.088L354.909 475.597H346.178V502.989H340.955V502.99ZM346.179 471.744H353.259C355.596 471.744 357.406 471.355 358.689 470.574C359.971 469.794 360.889 468.647 361.439 467.133C361.99 465.619 362.265 463.715 362.265 461.42C362.265 457.979 361.668 455.41 360.477 453.712C359.286 452.015 356.926 451.165 353.398 451.165H346.18V471.744H346.179Z" fill="#263238"/>
<path d="M376.148 502.99V447.242H388.727C392.209 447.242 394.949 447.805 396.942 448.928C398.936 450.052 400.367 451.681 401.239 453.814C402.109 455.947 402.544 458.483 402.544 461.419C402.544 463.483 402.314 465.434 401.857 467.27C401.398 469.105 400.62 470.666 399.519 471.95C398.42 473.234 396.86 474.083 394.844 474.496L403.369 502.989H398.282L390.103 475.598H381.372V502.99H376.148ZM381.372 471.744H388.452C390.79 471.744 392.599 471.355 393.883 470.574C395.165 469.794 396.082 468.647 396.633 467.133C397.183 465.619 397.458 463.715 397.458 461.42C397.458 457.979 396.862 455.41 395.671 453.712C394.479 452.015 392.119 451.165 388.591 451.165H381.373V471.744H381.372Z" fill="#263238"/>
<path d="M424.473 503.681C420.806 503.681 417.932 502.958 415.847 501.513C413.761 500.067 412.295 498.048 411.447 495.456C410.599 492.865 410.176 489.893 410.176 486.544V463.42C410.176 460.025 410.622 457.077 411.516 454.575C412.41 452.075 413.898 450.136 415.984 448.76C418.069 447.384 420.899 446.695 424.473 446.695C428.093 446.695 430.945 447.384 433.031 448.76C435.116 450.136 436.593 452.075 437.464 454.575C438.334 457.077 438.769 460.024 438.769 463.42V486.614C438.769 489.962 438.345 492.922 437.497 495.492C436.649 498.062 435.194 500.068 433.133 501.514C431.072 502.958 428.185 503.681 424.473 503.681ZM424.473 499.483C426.948 499.483 428.826 498.99 430.11 498.002C431.392 497.017 432.275 495.64 432.757 493.874C433.238 492.107 433.478 490.053 433.478 487.714V462.454C433.478 460.114 433.237 458.074 432.757 456.33C432.275 454.587 431.393 453.244 430.11 452.303C428.827 451.363 426.948 450.893 424.473 450.893C422.043 450.893 420.177 451.364 418.871 452.303C417.565 453.243 416.671 454.587 416.19 456.33C415.708 458.074 415.467 460.115 415.467 462.454V487.714C415.467 490.053 415.708 492.107 416.19 493.874C416.671 495.64 417.564 497.017 418.871 498.002C420.177 498.99 422.043 499.483 424.473 499.483Z" fill="#263238"/>
<path d="M447.43 502.99V447.242H460.009C463.491 447.242 466.23 447.805 468.223 448.928C470.217 450.053 471.649 451.681 472.52 453.814C473.39 455.947 473.826 458.483 473.826 461.419C473.826 463.483 473.596 465.434 473.138 467.27C472.679 469.105 471.901 470.666 470.8 471.95C469.701 473.234 468.142 474.083 466.126 474.496L474.65 502.989H469.564L461.384 475.597H452.654V502.989H447.43V502.99ZM452.654 471.744H459.734C462.071 471.744 463.881 471.355 465.164 470.574C466.446 469.794 467.364 468.647 467.914 467.133C468.464 465.619 468.739 463.715 468.739 461.42C468.739 457.979 468.143 455.41 466.952 453.712C465.76 452.015 463.4 451.165 459.872 451.165H452.655V471.744H452.654Z" fill="#263238"/>
<path d="M295.7 235.595L299.689 293.171L274.759 281.522L268.443 306.816C268.443 306.816 321.96 336.769 327.277 335.77C332.596 334.771 319.3 218.289 319.3 218.289L295.7 235.595Z" fill="#3550DC" stroke="#263238" stroke-miterlimit="10" stroke-linecap="round" stroke-linejoin="round"/>
<path d="M331.63 374.49C331.63 374.49 360.337 364.61 371.551 355.178C382.766 345.747 324.004 231.672 324.004 231.672C324.004 231.672 324.901 336.315 331.63 374.49Z" fill="#3550DC" stroke="#263238" stroke-miterlimit="10" stroke-linecap="round" stroke-linejoin="round"/>
<path d="M451.804 337.641L448.485 338.136C448.511 338.337 448.527 338.511 448.52 338.626C448.269 342.898 425.199 354.27 408.911 360.423C405.35 363.185 400.585 364.578 394.589 364.578C394.535 364.578 394.485 364.572 394.43 364.572C381.859 365.783 357.708 360.242 352.247 356.503L346.359 416.801L346.362 416.802C347.309 417.268 348.277 417.714 349.252 418.153C362.012 423.815 377.116 426.658 394.589 426.658C414.744 426.658 431.851 422.673 445.909 414.707C446.011 414.649 446.114 414.591 446.216 414.533C447.103 414.025 447.981 413.504 448.843 412.964C449.883 412.313 450.9 411.64 451.902 410.954C452.21 410.744 452.509 410.528 452.813 410.315C453.515 409.821 454.212 409.319 454.896 408.808C455.222 408.565 455.544 408.32 455.866 408.073C456.55 407.546 457.225 407.009 457.89 406.465C458.16 406.244 458.434 406.026 458.702 405.802C459.615 405.036 460.515 404.257 461.391 403.456C461.393 403.454 461.395 403.453 461.396 403.451C457.64 376.778 451.804 337.641 451.804 337.641Z" fill="#737373" stroke="#263238" stroke-miterlimit="10" stroke-linecap="round" stroke-linejoin="round"/>
<path d="M323.093 267.612C323.093 267.612 349.689 332.703 350.017 335.005C350.346 337.306 347.39 352.1 351.659 356.045C355.928 359.989 384.493 366.565 396.641 364.263C408.79 361.962 448.191 344.21 448.519 338.621C448.847 333.032 409.446 223.888 404.521 210.739C399.596 197.589 379.567 192.987 366.105 194.302C352.642 195.616 320.137 204.164 314.227 212.383C308.318 220.601 323.093 267.612 323.093 267.612Z" fill="white" stroke="#263238" stroke-miterlimit="10" stroke-linecap="round" stroke-linejoin="round"/>
<path d="M325.392 207.123C325.392 207.123 322.109 237.039 324.079 243.285C326.049 249.531 335.01 266.714 335.01 266.714C335.01 266.714 350.017 247.887 352.972 245.915C355.927 243.942 383.18 261.366 383.18 261.366C383.18 261.366 384.165 242.627 380.225 227.176C376.285 211.725 369.39 194.959 367.091 192C364.792 189.041 364.792 199.89 356.256 207.122C347.719 214.356 325.392 207.123 325.392 207.123Z" fill="white" stroke="#263238" stroke-miterlimit="10" stroke-linecap="round" stroke-linejoin="round"/>
<path d="M322.969 212.335C322.969 212.335 326.868 222.272 335.375 234.338C343.882 246.405 355.578 255.276 355.578 255.276C355.578 255.276 364.794 231.499 367.275 217.304C369.757 203.109 365.503 188.914 365.503 188.914C365.503 188.914 363.731 210.207 356.288 214.466C348.842 218.724 322.969 212.335 322.969 212.335Z" fill="white" stroke="#263238" stroke-miterlimit="10" stroke-linecap="round" stroke-linejoin="round"/>
<path d="M342.432 215.659C333.046 214.824 322.969 212.336 322.969 212.336C322.969 212.336 326.868 222.273 335.375 234.339C336.196 235.503 337.051 236.627 337.917 237.726L352.581 220.742L342.432 215.659Z" fill="#263238" stroke="#263238" stroke-miterlimit="10" stroke-linecap="round" stroke-linejoin="round"/>
<path d="M365.502 188.91C365.502 188.91 376.285 232.108 380.225 264.654C384.165 297.2 393.687 393.523 393.687 393.523C393.687 393.523 423.237 384.976 438.67 373.798C454.102 362.621 459.027 355.06 459.027 355.06C459.027 355.06 433.744 244.271 433.744 242.627C433.744 240.983 436.371 224.546 436.371 224.546C436.371 224.546 481.025 203.506 498.099 190.685C515.172 177.864 510.904 170.96 502.695 167.673C494.487 164.386 468.876 168.002 454.757 171.947C440.638 175.892 433.416 178.522 433.416 178.522C433.416 178.522 417.656 177.207 403.208 180.495C388.762 183.783 365.502 188.91 365.502 188.91Z" fill="#3550DC" stroke="#263238" stroke-miterlimit="10" stroke-linecap="round" stroke-linejoin="round"/>
<path d="M388.179 299.438C387.658 301.075 387.089 302.834 386.463 304.763L388.179 299.438Z" fill="white"/>
<path d="M388.179 299.438C387.658 301.075 387.089 302.834 386.463 304.763" stroke="#263238" stroke-miterlimit="10" stroke-linecap="round" stroke-linejoin="round"/>
<path d="M393.239 226.266L398.283 229.48C398.283 229.48 396.621 255.672 394.343 272.217C392.971 282.183 391.769 287.65 389.549 295.026" stroke="#263238" stroke-miterlimit="10" stroke-linecap="round" stroke-linejoin="round"/>
<path d="M384.32 195.07C387.625 201.151 392.374 210.111 392.374 211.396C392.374 213.369 387.449 222.574 387.449 222.574L390.527 224.535" stroke="#263238" stroke-miterlimit="10" stroke-linecap="round" stroke-linejoin="round"/>
<path d="M381.203 189.398C381.203 189.398 381.727 190.336 382.545 191.825L381.203 189.398Z" fill="white"/>
<path d="M381.203 189.398C381.203 189.398 381.727 190.336 382.545 191.825" stroke="#263238" stroke-miterlimit="10" stroke-linecap="round" stroke-linejoin="round"/>
<path d="M441.664 334.219C438.009 336.751 432.479 339.983 424.879 342.898C409.447 348.816 406.82 349.801 406.82 349.801L409.119 357.692C409.119 357.692 436.043 352.76 448.52 338.624" stroke="#263238" stroke-miterlimit="10" stroke-linecap="round" stroke-linejoin="round"/>
<path d="M447.207 329.75C447.207 329.75 446.49 330.502 445.002 331.719L447.207 329.75Z" fill="white"/>
<path d="M447.207 329.75C447.207 329.75 446.49 330.502 445.002 331.719" stroke="#263238" stroke-miterlimit="10" stroke-linecap="round" stroke-linejoin="round"/>
<path d="M442.259 207.09L436.371 224.547L450.161 203.836" stroke="#263238" stroke-miterlimit="10" stroke-linecap="round" stroke-linejoin="round"/>
<path d="M444.907 199.234L443.547 203.268" stroke="#263238" stroke-miterlimit="10" stroke-linecap="round" stroke-linejoin="round"/>
<path d="M325.393 207.119C325.393 207.119 328.676 266.951 332.288 296.21C335.9 325.468 341.809 397.793 341.809 397.793C341.809 397.793 330.317 396.806 322.765 387.602C315.213 378.397 311.601 371.493 311.601 371.493C311.601 371.493 311.601 309.031 311.601 306.4C311.601 303.771 306.349 273.855 301.423 259.061C296.498 244.267 289.274 227.172 293.543 219.94C297.811 212.707 311.273 201.858 316.198 200.544C321.124 199.23 325.064 200.545 325.393 207.119Z" fill="#3550DC" stroke="#263238" stroke-miterlimit="10" stroke-linecap="round" stroke-linejoin="round"/>
<path d="M323.549 282.266C325.405 288.074 327.207 293.232 328.675 296.54L323.549 282.266Z" fill="white"/>
<path d="M323.549 282.266C325.405 288.074 327.207 293.232 328.675 296.54" stroke="#263238" stroke-miterlimit="10" stroke-linecap="round" stroke-linejoin="round"/>
<path d="M312.323 218.516C311.769 222.785 311.503 226.091 311.93 226.518C313.243 227.833 318.497 232.436 318.497 232.436C318.497 232.436 311.93 240.654 312.915 244.928C313.562 247.737 317.895 264.028 322.281 278.229" stroke="#263238" stroke-miterlimit="10" stroke-linecap="round" stroke-linejoin="round"/>
<path d="M315.87 196.602C315.87 196.602 314.138 206.024 312.912 214.302L315.87 196.602Z" fill="white"/>
<path d="M315.87 196.602C315.87 196.602 314.138 206.024 312.912 214.302" stroke="#263238" stroke-miterlimit="10" stroke-linecap="round" stroke-linejoin="round"/>
<path d="M319.708 348.58L313.9 345.852" stroke="#263238" stroke-miterlimit="10" stroke-linecap="round" stroke-linejoin="round"/>
<path d="M313.9 336.977L329.989 343.551V353.414L322.63 349.955" stroke="#263238" stroke-miterlimit="10" stroke-linecap="round" stroke-linejoin="round"/>
<path d="M300.861 167.568L306.473 181.335C306.473 181.335 299.177 173.75 297.493 180.493C295.809 187.236 300.86 195.103 304.228 195.103C307.595 195.103 311.524 195.384 311.524 195.384C311.524 195.384 323.31 216.174 330.606 220.108C337.902 224.042 347.723 227.413 353.896 224.042C360.07 220.671 363.437 211.399 365.401 204.375C367.366 197.351 365.962 176.279 365.962 176.279L355.86 134.697C355.86 134.697 362.876 132.169 362.876 127.392C362.876 122.616 346.6 121.212 346.6 121.212C346.6 121.212 353.053 113.626 344.916 112.503C336.779 111.379 310.401 127.113 309.56 127.674C308.718 128.236 314.049 117.841 307.315 121.494C300.58 125.147 292.723 143.128 293.564 147.341C294.408 151.553 300.861 167.568 300.861 167.568Z" fill="white" stroke="#263238" stroke-miterlimit="10" stroke-linecap="round" stroke-linejoin="round"/>
<path d="M346.6 121.212C346.6 121.212 353.053 113.626 344.916 112.503C336.779 111.379 310.401 127.113 309.56 127.674C308.718 128.236 314.049 117.841 307.315 121.494C300.58 125.147 292.723 143.128 293.564 147.341C294.406 151.556 300.86 167.57 300.86 167.57L306.472 181.338C306.472 181.338 312.926 187.237 310.681 182.743C308.436 178.247 303.947 168.133 305.07 166.729C306.191 165.324 311.804 163.076 312.085 159.986C312.365 156.895 306.754 147.904 308.438 145.656C310.122 143.409 333.973 147.623 338.182 145.095C342.392 142.566 337.06 136.385 337.06 136.385L355.862 134.698C355.862 134.698 362.877 132.17 362.877 127.393C362.876 122.617 346.6 121.212 346.6 121.212Z" fill="#737373" stroke="#263238" stroke-miterlimit="10" stroke-linecap="round" stroke-linejoin="round"/>
<path d="M350.249 190.609C350.249 190.609 347.724 195.386 343.795 195.667L350.249 190.609Z" fill="white"/>
<path d="M350.249 190.609C350.249 190.609 347.724 195.386 343.795 195.667" stroke="#263238" stroke-miterlimit="10" stroke-linecap="round" stroke-linejoin="round"/>
<path d="M332.85 177.684C333.633 179.373 333.299 181.191 332.104 181.748C330.909 182.303 329.306 181.384 328.523 179.695C327.74 178.005 328.074 176.187 329.269 175.631C330.463 175.075 332.066 175.994 332.85 177.684Z" fill="#263238"/>
<path d="M355.21 173.256C355.502 175.095 354.686 176.754 353.384 176.961C352.084 177.169 350.792 175.846 350.499 174.007C350.206 172.169 351.023 170.509 352.325 170.303C353.626 170.095 354.918 171.417 355.21 173.256Z" fill="#263238"/>
<path d="M343.795 206.341C343.795 206.341 348.565 206.341 351.932 203.812L343.795 206.341Z" fill="white"/>
<path d="M343.795 206.341C343.795 206.341 348.565 206.341 351.932 203.812" stroke="#263238" stroke-miterlimit="10" stroke-linecap="round" stroke-linejoin="round"/>
<path d="M318.82 174.028C318.82 174.028 322.749 168.409 333.412 171.78" stroke="#263238" stroke-width="2" stroke-miterlimit="10" stroke-linecap="round" stroke-linejoin="round"/>
<path d="M347.162 168.696C347.162 168.696 349.127 162.234 356.703 161.672" stroke="#263238" stroke-width="2" stroke-miterlimit="10" stroke-linecap="round" stroke-linejoin="round"/>
<path d="M362.875 163.079C362.875 163.079 364.839 158.583 367.084 161.392C369.329 164.202 370.171 169.821 368.768 173.474C367.365 177.127 366.524 180.217 366.524 180.217L365.963 176.283L362.875 163.079Z" fill="white" stroke="#263238" stroke-miterlimit="10" stroke-linecap="round" stroke-linejoin="round"/>
<path d="M414.509 141.158C414.509 141.158 383.642 135.539 381.678 135.539C379.713 135.539 356.704 139.754 353.337 141.158C349.97 142.563 324.433 149.868 324.995 151.553C325.556 153.239 328.643 153.801 328.643 153.801C328.643 153.801 329.204 156.33 338.184 157.454C347.164 158.577 368.209 155.768 368.489 157.735C368.77 159.702 367.086 161.387 367.086 161.387L369.611 165.882C369.611 165.882 378.872 164.477 381.958 162.229C385.045 159.981 393.744 152.957 393.744 152.957L412.545 154.362L414.509 141.158Z" fill="white" stroke="#263238" stroke-miterlimit="10" stroke-linecap="round" stroke-linejoin="round"/>
<path d="M346.04 145.094C346.04 145.094 333.412 150.432 331.448 151.556C329.483 152.68 335.095 154.927 338.463 154.366C341.83 153.804 354.739 148.747 356.702 148.184C358.667 147.622 367.646 149.87 374.1 150.713C380.555 151.555 385.043 149.589 386.167 149.027" fill="white"/>
<path d="M346.04 145.094C346.04 145.094 333.412 150.432 331.448 151.556C329.483 152.68 335.095 154.927 338.463 154.366C341.83 153.804 354.739 148.747 356.702 148.184C358.667 147.622 367.646 149.87 374.1 150.713C380.555 151.555 385.043 149.589 386.167 149.027" stroke="#263238" stroke-miterlimit="10" stroke-linecap="round" stroke-linejoin="round"/>
<path d="M490.546 186.085C490.546 186.085 480.696 188.715 468.876 186.085C457.056 183.456 425.863 168.004 425.863 168.004L404.521 161.758L409.447 136.773C409.447 136.773 463.295 143.348 478.398 148.937C493.502 154.525 515.501 167.347 514.845 171.949C514.188 176.551 502.039 186.414 502.039 186.414" fill="#3550DC"/>
<path d="M490.546 186.085C490.546 186.085 480.696 188.715 468.876 186.085C457.056 183.456 425.863 168.004 425.863 168.004L404.521 161.758L409.447 136.773C409.447 136.773 463.295 143.348 478.398 148.937C493.502 154.525 515.501 167.347 514.845 171.949C514.188 176.551 502.039 186.414 502.039 186.414" stroke="#263238" stroke-miterlimit="10" stroke-linecap="round" stroke-linejoin="round"/>
<path d="M305.598 293.504C305.598 293.504 325.355 316.171 342.026 308.547C358.696 300.922 366.928 252.086 366.928 252.086" stroke="#263238" stroke-miterlimit="10" stroke-linecap="round" stroke-linejoin="round"/>
<path d="M279.666 276.396C279.666 276.396 295.308 295.972 316.094 294.118C336.88 292.264 343.878 268.154 343.672 256.203" stroke="#263238" stroke-miterlimit="10" stroke-linecap="round" stroke-linejoin="round"/>
<path d="M288.687 264.142L282.088 261.922L271.69 292.906L278.289 295.126L288.687 264.142Z" fill="#7D7D7D" stroke="#263238" stroke-miterlimit="10" stroke-linecap="round" stroke-linejoin="round"/>
<path d="M291.654 261.335L281.414 257.891L279.885 262.448L290.124 265.893L291.654 261.335Z" fill="#263238" stroke="#263238" stroke-miterlimit="10" stroke-linecap="round" stroke-linejoin="round"/>
<path d="M303.251 269.04L296.652 266.82L286.255 297.804L292.854 300.024L303.251 269.04Z" fill="#7D7D7D" stroke="#263238" stroke-miterlimit="10" stroke-linecap="round" stroke-linejoin="round"/>
<path d="M306.216 266.234L295.977 262.789L294.448 267.345L304.687 270.79L306.216 266.234Z" fill="#263238" stroke="#263238" stroke-miterlimit="10" stroke-linecap="round" stroke-linejoin="round"/>
<path d="M300.801 276.329L279.412 269.133L271.461 292.827L292.85 300.023L300.801 276.329Z" fill="#263238" stroke="#263238" stroke-miterlimit="10" stroke-linecap="round" stroke-linejoin="round"/>
<path d="M273.308 308.659L253.354 301.947L263.933 284.461L275.42 288.325L273.308 308.659Z" fill="#7D7D7D" stroke="#263238" stroke-miterlimit="10" stroke-linecap="round" stroke-linejoin="round"/>
<path d="M273.292 308.65L253.338 301.938L246.223 323.139L266.177 329.852L273.292 308.65Z" fill="#636363" stroke="#263238" stroke-miterlimit="10" stroke-linecap="round" stroke-linejoin="round"/>
<path d="M285.261 268.311L268.127 262.547L261.012 283.748L278.146 289.513L285.261 268.311Z" fill="#636363" stroke="#263238" stroke-miterlimit="10" stroke-linecap="round" stroke-linejoin="round"/>
<path d="M302.435 318.456L282.48 311.744L293.059 294.258L304.547 298.122L302.435 318.456Z" fill="#7D7D7D" stroke="#263238" stroke-miterlimit="10" stroke-linecap="round" stroke-linejoin="round"/>
<path d="M302.419 318.447L282.465 311.734L275.35 332.936L295.304 339.649L302.419 318.447Z" fill="#636363" stroke="#263238" stroke-miterlimit="10" stroke-linecap="round" stroke-linejoin="round"/>
<path d="M314.384 278.108L297.25 272.344L290.135 293.545L307.269 299.31L314.384 278.108Z" fill="#636363" stroke="#263238" stroke-miterlimit="10" stroke-linecap="round" stroke-linejoin="round"/>
<path d="M261.363 261.133C261.363 261.133 259.037 264.968 259.722 266.063C260.405 267.159 267.108 270.857 268.066 271.13C269.023 271.403 271.622 270.035 271.485 268.254C271.349 266.473 266.15 262.639 264.509 261.681C262.867 260.722 262.046 260.585 261.363 261.133Z" fill="white" stroke="#263238" stroke-miterlimit="10" stroke-linecap="round" stroke-linejoin="round"/>
<path d="M257.679 268.712C257.679 268.712 256.558 273.055 257.528 273.907C258.499 274.758 265.982 276.361 266.978 276.347C267.974 276.333 270.066 274.27 269.423 272.605C268.779 270.94 262.696 268.77 260.849 268.326C259.001 267.883 258.175 267.99 257.679 268.712Z" fill="white" stroke="#263238" stroke-miterlimit="10" stroke-linecap="round" stroke-linejoin="round"/>
<path d="M255.628 276.243C255.628 276.243 254.507 280.587 255.478 281.438C256.448 282.289 263.931 283.892 264.927 283.878C265.922 283.863 268.016 281.802 267.372 280.136C266.728 278.471 260.646 276.301 258.798 275.858C256.95 275.415 256.124 275.52 255.628 276.243Z" fill="white" stroke="#263238" stroke-miterlimit="10" stroke-linecap="round" stroke-linejoin="round"/>
<path d="M256.585 283.501C256.585 283.501 255.464 287.845 256.435 288.696C257.405 289.547 264.888 291.15 265.884 291.136C266.879 291.121 268.973 289.059 268.329 287.394C267.685 285.728 261.603 283.559 259.755 283.115C257.907 282.672 257.081 282.779 256.585 283.501Z" fill="white" stroke="#263238" stroke-miterlimit="10" stroke-linecap="round" stroke-linejoin="round"/>
</svg>
