<svg width="701" height="520" viewBox="0 0 701 520" fill="none" xmlns="http://www.w3.org/2000/svg">
<path d="M304.319 203.783H290.024L270.052 184.211C269.33 183.504 268.353 183.107 267.331 183.107H115.604L96.7932 173.309C96.8964 172.871 96.961 172.422 96.961 171.953C96.961 168.609 94.1952 165.898 90.783 165.898C87.3707 165.898 84.6049 168.609 84.6049 171.953C84.6049 172.799 84.7835 173.603 85.1036 174.333L45.0095 203.783H44.9203C43.869 202.973 42.5608 202.47 41.1202 202.47C39.6795 202.47 38.3713 202.973 37.3201 203.783H36.2273C33.677 203.783 31.6099 205.809 31.6099 208.308C31.6099 210.808 33.677 212.833 36.2273 212.833H36.7845C37.5463 213.571 38.5114 214.097 39.5795 214.367V290.354C36.9168 291.027 34.9406 293.377 34.9406 296.196C34.9406 299.017 36.9168 301.365 39.5795 302.038V342.636C36.9168 343.311 34.9406 345.659 34.9406 348.478C34.9406 351.297 36.9168 353.647 39.5795 354.32V403.554C35.8348 404.044 32.6627 406.29 30.9558 409.43C30.1001 411.011 29.6152 412.81 29.6152 414.72V450.383C29.6152 456.62 34.7651 461.667 41.1171 461.667C41.725 461.667 42.3207 461.619 42.8917 461.533C48.4002 460.694 52.6189 456.024 52.6189 450.383V414.721C52.6189 412.691 52.0725 410.782 51.106 409.129C50.1132 407.439 48.6865 406.015 46.9734 405.018C45.6806 404.266 44.2153 403.757 42.6577 403.552V354.322C45.3204 353.649 47.2967 351.299 47.2967 348.48C47.2967 345.659 45.3204 343.311 42.6577 342.638V302.04C45.3204 301.367 47.2967 299.017 47.2967 296.198C47.2967 293.377 45.3204 291.029 42.6577 290.356V214.369C43.7274 214.099 44.6909 213.573 45.4543 212.835H61.0195V487.108H29.6183V499.644V519.476H109.436H135.776V487.108H104.295V212.833H278.885V222.181H267.332V228.285L279.381 246.742H283.051C282.99 248.297 282.942 249.854 282.904 251.409L282.854 253.479L285.052 253.515C287.583 253.557 289.957 255.323 290.616 257.702C291.369 260.064 290.372 262.839 288.175 264.245C287.105 264.978 285.779 265.281 284.441 265.257C283.113 265.192 281.768 264.75 280.64 263.912C278.336 262.287 277.055 259.053 277.934 255.679C275.559 258.331 275.711 263.138 278.62 266.051C280.001 267.548 281.989 268.512 284.087 268.808C286.18 269.079 288.405 268.657 290.264 267.58C292.138 266.533 293.651 264.85 294.467 262.856C295.295 260.868 295.448 258.619 294.86 256.533C294.27 254.448 292.973 252.569 291.209 251.273C290.019 250.387 288.609 249.812 287.147 249.525C287.122 248.598 287.069 247.67 287.033 246.742H288.746H290.732L302.778 228.285V222.181H291.226V212.833H304.318C306.868 212.833 308.935 210.808 308.935 208.308C308.936 205.809 306.869 203.783 304.319 203.783ZM279.141 203.783H253.58L266.36 191.26L279.141 203.783ZM242.843 203.783L229.441 190.649H260.456L247.053 203.783H242.843ZM197.84 203.783L184.437 190.649H215.452L202.049 203.783H197.84ZM152.834 203.783L139.431 190.649H170.446L157.044 203.783H152.834ZM107.83 203.783L94.4276 190.649H125.442L112.04 203.783H107.83ZM79.4381 228.685L68.7166 239.192V218.179L79.4381 228.685ZM69.7909 212.833H95.6127L82.7026 225.485L69.7909 212.833ZM96.5993 427.984V448.822L85.9671 438.402L96.5993 427.984ZM82.7026 435.203L70.442 423.189H94.9617L82.7026 435.203ZM70.442 418.664L82.7026 406.649L94.9632 418.664H70.442ZM68.7166 413.957V392.943L79.4381 403.45L68.7166 413.957ZM68.7166 386.544V385.401L82.7026 371.696L96.5993 385.315V386.632L82.7026 400.25L68.7166 386.544ZM85.9671 368.497L96.5993 358.077V378.915L85.9671 368.497ZM82.7026 365.298L70.442 353.284H94.9617L82.7026 365.298ZM70.442 348.757L82.7026 336.743L94.9617 348.757H70.442ZM68.7166 344.05V323.037L79.4381 333.543L68.7166 344.05ZM68.7166 316.639V315.495L82.7026 301.789L96.5993 315.408V316.725L82.7026 330.344L68.7166 316.639ZM85.9671 298.591L96.5993 288.172V309.011L85.9671 298.591ZM82.7026 295.391L70.442 283.375H94.9617L82.7026 295.391ZM70.442 278.852L82.7026 266.838L94.9617 278.852H70.442ZM68.7166 274.144V253.132L79.4381 263.637L68.7166 274.144ZM79.4381 298.591L68.7166 309.099V288.086L79.4381 298.591ZM79.4381 368.497L68.7166 379.003V357.99L79.4381 368.497ZM79.4381 438.402L68.7166 448.908V427.895L79.4381 438.402ZM68.7166 455.308L82.7026 441.603L96.5993 455.222V456.539L82.7026 470.157L68.7166 456.451V455.308ZM85.9671 403.45L96.5993 393.03V413.869L85.9671 403.45ZM85.9671 333.544L96.5993 323.125V343.964L85.9671 333.544ZM85.9671 263.637L96.5993 253.218V274.057L85.9671 263.637ZM96.5993 246.819L82.7026 260.438L68.7166 246.733V245.59L82.7026 231.884L96.5993 245.502V246.819ZM79.4381 473.357L68.7166 483.864V462.85L79.4381 473.357ZM71.938 487.105L82.7026 476.556L93.4672 487.105H71.938ZM85.9671 473.357L96.5993 462.937V483.776L85.9671 473.357ZM85.9671 228.685L96.5993 218.265V239.104L85.9671 228.685ZM75.5057 203.783L88.4035 191.143L101.301 203.783H75.5057ZM131.971 190.649H132.903L146.305 203.783H118.567L131.971 190.649ZM176.975 190.649H177.906L191.309 203.783H163.571L176.975 190.649ZM221.979 190.649H222.91L236.313 203.783H208.576L221.979 190.649ZM87.0029 176.709C88.051 177.51 89.3516 178.007 90.7845 178.007C92.6114 178.007 94.2352 177.216 95.3665 175.98L109.048 183.106H87.3153C86.2949 183.106 85.316 183.502 84.5942 184.21L64.6225 203.782H50.1425L87.0029 176.709ZM288.149 222.181H281.962V212.833H288.149V222.181Z" fill="#D2DEFC"/>
<path d="M649.119 351.29C646.604 352.755 644.508 354.844 643.05 357.327C641.628 359.755 640.828 362.559 640.828 365.541V417.921C640.828 426.208 647.024 433.065 655.115 434.297C655.954 434.422 656.828 434.493 657.721 434.493C667.051 434.493 674.614 427.081 674.614 417.919V365.539C674.614 362.735 673.903 360.093 672.646 357.77C670.032 352.96 665.067 349.604 659.259 349.088V277C663.536 276.282 666.794 272.641 666.794 268.244C666.794 263.847 663.536 260.206 659.259 259.488V200.207C663.536 199.49 666.794 195.848 666.794 191.452C666.794 187.055 663.536 183.414 659.259 182.696V71.4421C662.087 70.967 664.467 69.2173 665.755 66.8085C667.899 66.4163 669.523 64.5807 669.523 62.368C669.523 60.018 667.69 58.1099 665.35 57.8867C663.736 55.4266 660.925 53.7931 657.719 53.7931C655.306 53.7931 653.119 54.7222 651.494 56.2275L592.802 13.1177C593.47 11.8794 593.852 10.4691 593.852 8.97129C593.852 4.06014 589.789 0.078125 584.777 0.078125C579.766 0.078125 575.703 4.06014 575.703 8.97129C575.703 9.91249 575.854 10.8175 576.131 11.6697L546.463 27.1226H325.47C324.449 27.1226 323.47 27.5193 322.748 28.2267L292.528 57.8429H271.145C268.594 57.8429 266.527 59.8686 266.527 62.368C266.527 64.8673 268.594 66.893 271.145 66.893H291.095V82.7441H273.406V91.7097L291.101 118.819H294.018H296.499C296.446 120.181 296.405 121.545 296.368 122.907C294.221 123.329 292.151 124.172 290.404 125.474C287.813 127.376 285.908 130.136 285.043 133.198C284.178 136.261 284.403 139.565 285.619 142.485C286.816 145.413 289.039 147.885 291.792 149.423C294.522 151.004 297.79 151.625 300.864 151.226C303.945 150.79 306.865 149.375 308.893 147.174C313.164 142.898 313.389 135.838 309.901 131.943C311.193 136.899 309.31 141.649 305.926 144.035C304.268 145.266 302.292 145.916 300.342 146.011C298.376 146.048 296.428 145.603 294.856 144.526C291.632 142.462 290.168 138.387 291.272 134.916C292.24 131.423 295.729 128.828 299.445 128.765L302.674 128.711L302.601 125.671C302.546 123.386 302.475 121.103 302.386 118.818H307.777L325.473 91.7082V82.7426H307.783V66.8945H566.739V471.856H518.697V519.397H557.386H674.617V490.27V471.858H626.692V66.8945H649.728C651.027 69.2596 653.388 70.9745 656.185 71.4436V182.702C651.908 183.42 648.649 187.061 648.649 191.458C648.649 195.854 651.908 199.496 656.185 200.214V259.494C651.908 260.212 648.649 263.853 648.649 268.25C648.649 272.647 651.908 276.288 656.185 277.006V349.091C653.624 349.317 651.215 350.07 649.119 351.29ZM577.557 14.344C579.215 16.4798 581.829 17.866 584.777 17.866C587.149 17.866 589.301 16.967 590.919 15.5069L648.559 57.8445H622.815L592.593 28.2282C591.871 27.5208 590.892 27.1241 589.872 27.1241H553.021L577.557 14.344ZM554.192 57.8445L530.539 34.6643H582.76L559.106 57.8445H554.192ZM488.093 57.8445L464.44 34.6643H516.659L493.007 57.8445H488.093ZM421.991 57.8445L398.338 34.6643H450.558L426.905 57.8445H421.991ZM355.89 57.8445L332.237 34.6643H384.458L360.805 57.8445H355.89ZM390.988 34.6643H391.81L415.463 57.8445H367.337L390.988 34.6643ZM457.089 34.6643H457.911L481.564 57.8445H433.437L457.089 34.6643ZM523.188 34.6643H524.01L547.663 57.8445H499.536L523.188 34.6643ZM588.784 35.1591L611.932 57.8445H565.635L588.784 35.1591ZM618.992 118.538L596.647 140.437L574.431 118.665V117.268L596.647 95.4971L618.992 117.395V118.538ZM618.992 381.624V419.021L599.912 400.322L618.992 381.624ZM596.647 397.124L576.028 376.918H617.267L596.647 397.124ZM576.028 372.393L596.647 352.186L617.267 372.393H576.028ZM574.431 367.558V330.413L593.383 348.985L574.431 367.558ZM574.431 324.015V322.618L596.647 300.847L618.992 322.745V323.888L596.647 345.786L574.431 324.015ZM599.912 297.648L618.992 278.949V316.346L599.912 297.648ZM596.647 294.448L576.028 274.241H617.267L596.647 294.448ZM576.028 269.716L596.647 249.509L617.267 269.716H576.028ZM574.431 264.882V227.738L593.383 246.31L574.431 264.882ZM574.431 221.339V219.943L596.647 198.173L618.992 220.071V221.214L596.647 243.112L574.431 221.339ZM599.912 194.974L618.992 176.275V213.672L599.912 194.974ZM596.647 191.773L576.028 171.566H617.267L596.647 191.773ZM576.028 167.041L596.647 146.833L617.267 167.041H576.028ZM574.431 162.208V125.064L593.383 143.636L574.431 162.208ZM574.431 110.87V73.7258L593.383 92.2979L574.431 110.87ZM574.431 176.401L593.383 194.974L574.431 213.546V176.401ZM574.431 279.075L593.383 297.648L574.431 316.22V279.075ZM574.431 381.753L593.383 400.325L574.431 418.897V381.753ZM574.431 425.294L596.647 403.522L618.992 425.42V426.564L596.647 448.462L574.431 426.69V425.294ZM618.992 367.684L599.912 348.985L618.992 330.287V367.684ZM618.992 265.009L599.912 246.31L618.992 227.611V265.009ZM618.992 162.335L599.912 143.636L618.992 124.937V162.335ZM599.912 92.2979L618.992 73.5991V110.997L599.912 92.2979ZM596.647 89.0987L574.431 67.3274V66.8945H618.992V67.2007L596.647 89.0987ZM593.383 451.661L574.431 470.233V433.089L593.383 451.661ZM579.306 471.856L596.649 454.86L613.992 471.856H579.306ZM599.912 451.661L618.992 432.962V470.36L599.912 451.661ZM326.387 35.328L349.361 57.8429H303.411L326.387 35.328ZM304.704 82.7441H294.175V66.8945H304.704V82.7441Z" fill="#D2DEFC"/>
<path d="M499.025 447.045V437.407H482.448V395.79H413.667V437.407H406.01V347.602H329.303V437.407H257.033V403.145H101.769V502.893H244.693H257.033H329.303H346.627H397.09H406.01H483.537H499.025H570.469V447.045H499.025Z" fill="#D2DEFC"/>
<path d="M700.663 497.367H0V508.377H700.663V497.367Z" fill="#4F5051"/>
<path d="M700.663 508.375H0V519.384H700.663V508.375Z" fill="#838889"/>
<path d="M357.163 183.102H343.502V488.148H357.163V183.102Z" fill="#697172"/>
<path d="M394.908 486.375H305.798V497.38H394.908V486.375Z" fill="#697172"/>
<path d="M394.908 486.375V497.38H373.805C373.805 495.105 372.656 493.093 370.895 491.873C369.773 491.095 368.403 490.638 366.926 490.638H305.798V486.375H394.908Z" fill="#606060"/>
<path d="M357.184 183.102V486.37H349.791V286.934C349.791 285.106 349.39 283.332 348.645 281.717C347.58 279.404 345.813 277.419 343.522 276.069V183.102H357.184Z" fill="#606060"/>
<path d="M434.945 183.094C434.945 184.604 434.358 186.112 433.184 187.263L354.577 264.299C352.229 266.599 348.431 266.599 346.084 264.299L267.476 187.263C265.129 184.963 265.129 181.24 267.476 178.94L327.762 119.874L346.082 101.905C348.429 99.6046 352.228 99.6046 354.575 101.905L433.182 178.94C434.358 180.091 434.945 181.599 434.945 183.094Z" fill="#D0493A"/>
<path d="M350.332 255.748C348.685 255.748 347.137 255.12 345.972 253.978L278.001 187.367C275.599 185.011 275.599 181.178 278.001 178.824L345.972 112.213C348.302 109.929 352.364 109.929 354.689 112.213L422.663 178.824C423.827 179.966 424.469 181.482 424.469 183.096C424.469 184.709 423.827 186.227 422.663 187.369L354.689 253.98C353.526 255.12 351.977 255.748 350.332 255.748Z" fill="white"/>
<path d="M333.514 163.18C333.739 162.433 333.705 161.658 333.449 160.959C333.195 160.261 332.72 159.641 332.063 159.202L324.096 153.894C322.431 152.786 320.147 153.499 319.443 155.348C318.945 156.661 319.425 158.137 320.607 158.925L327.801 163.718L326.471 168.142L322.762 170.982L315.568 166.189C314.386 165.401 312.808 165.507 311.746 166.444C310.25 167.763 310.413 170.109 312.079 171.218L320.045 176.525C321.36 177.402 323.1 177.344 324.353 176.387L328.076 173.536L367.396 199.736L366.06 204.176C365.611 205.671 366.197 207.279 367.512 208.154L375.478 213.462C377.144 214.57 379.428 213.857 380.131 212.009C380.63 210.697 380.149 209.22 378.967 208.433L371.774 203.639L373.105 199.215L376.814 196.375L384.008 201.169C385.19 201.956 386.768 201.85 387.83 200.914C389.326 199.594 389.163 197.248 387.497 196.14L379.531 190.832C378.874 190.395 378.11 190.189 377.353 190.214C376.597 190.238 375.848 190.493 375.221 190.972L371.498 193.823L332.178 167.623L333.514 163.18Z" fill="#606060"/>
<path d="M373.759 149.567L390.131 169.021L377.156 179.507L369.947 170.94L322.636 209.178C320.619 210.808 317.637 210.526 315.973 208.55C315.134 207.553 314.791 206.315 314.915 205.125C315.039 203.954 315.613 202.829 316.613 202.021L363.924 163.783L350.908 148.316L357.939 142.633L373.759 149.567Z" fill="#606060"/>
<path opacity="0.2" d="M434.945 183.094C434.945 184.604 434.358 186.112 433.184 187.263L354.576 264.299C352.229 266.599 348.431 266.599 346.083 264.299L331.092 249.607L363.773 217.566C381.36 200.33 381.36 172.4 363.773 155.164L327.762 119.874L346.082 101.905C348.429 99.6046 352.228 99.6046 354.575 101.905L433.182 178.94C434.358 180.091 434.945 181.599 434.945 183.094Z" fill="#606060"/>
<path d="M352.634 246.57C352.634 247.804 351.614 248.804 350.355 248.804C349.096 248.804 348.075 247.804 348.075 246.57C348.075 245.336 349.096 244.336 350.355 244.336C351.614 244.336 352.634 245.336 352.634 246.57Z" fill="#494947"/>
<path d="M352.634 246.117C352.634 247.35 351.614 248.351 350.355 248.351C349.096 248.351 348.075 247.35 348.075 246.117C348.075 244.883 349.096 243.883 350.355 243.883C351.614 243.883 352.634 244.883 352.634 246.117Z" fill="#606060"/>
<path d="M348.075 120.148C348.075 118.914 349.096 117.914 350.355 117.914C351.614 117.914 352.634 118.914 352.634 120.148C352.634 121.382 351.614 122.382 350.355 122.382C349.096 122.382 348.075 121.382 348.075 120.148Z" fill="#494947"/>
<path d="M348.075 120.601C348.075 119.367 349.096 118.367 350.355 118.367C351.614 118.367 352.634 119.367 352.634 120.601C352.634 121.835 351.614 122.835 350.355 122.835C349.096 122.835 348.075 121.835 348.075 120.601Z" fill="#606060"/>
<path d="M246.334 334.647V340.023H223.997V334.647C223.997 334.568 223.997 334.492 224.009 334.413C224.128 331.228 226.798 328.688 230.077 328.688H240.267C242.131 328.688 243.809 329.529 244.932 330.838C245.806 331.863 246.334 333.197 246.334 334.647Z" fill="#697172"/>
<path d="M227.058 339.273L249.372 486.367H263.038L240.725 339.273H227.058Z" fill="#606060"/>
<path d="M235.193 486.305L236.873 497.379H278.877L277.197 486.305H235.193Z" fill="#606060"/>
<path d="M241.999 339.266L216.151 486.359H202.483L228.331 339.266H241.999Z" fill="#697172"/>
<path d="M230.331 486.289L228.384 497.363H186.38L188.327 486.289H230.331Z" fill="#697172"/>
<path d="M230.331 486.289L228.385 497.363H207.264C207.307 493.58 204.469 490.705 200.438 490.705H187.551L188.326 486.289H230.331Z" fill="#606060"/>
<path d="M241.524 328.288C250.45 324.936 254.914 315.128 251.493 306.381C248.073 297.633 238.065 293.259 229.139 296.611C220.213 299.963 215.75 309.771 219.17 318.518C222.59 327.265 232.599 331.639 241.524 328.288Z" fill="#FF0000"/>
<path d="M243.522 325.16C243.274 325.16 243.033 325.044 242.883 324.827C242.646 324.483 242.739 324.012 243.091 323.78C244.887 322.594 246.399 320.987 247.461 319.136C247.668 318.774 248.136 318.641 248.509 318.848C248.88 319.051 249.011 319.511 248.803 319.875C247.622 321.931 245.945 323.714 243.951 325.032C243.821 325.118 243.67 325.16 243.522 325.16Z" fill="#F5DA34"/>
<path d="M235.874 327.599C235.463 327.599 235.121 327.279 235.106 326.874C235.089 326.459 235.422 326.107 235.845 326.091C236.882 326.053 237.91 325.902 238.898 325.644C239.311 325.533 239.731 325.777 239.84 326.178C239.95 326.582 239.705 326.994 239.294 327.101C238.195 327.386 237.055 327.555 235.903 327.598C235.894 327.599 235.883 327.599 235.874 327.599Z" fill="#F5DA34"/>
<path d="M223.307 304.94C223.153 304.94 222.999 304.895 222.864 304.803C222.516 304.563 222.433 304.093 222.678 303.752C223.112 303.148 223.593 302.572 224.111 302.04C224.403 301.738 224.889 301.724 225.199 302.013C225.506 302.299 225.519 302.777 225.226 303.079C224.762 303.557 224.328 304.076 223.937 304.619C223.787 304.829 223.549 304.94 223.307 304.94Z" fill="#F5DA34"/>
<path d="M227.432 301.077C227.178 301.077 226.929 300.953 226.783 300.728C226.555 300.377 226.659 299.911 227.017 299.688C231.745 296.731 238.089 296.579 242.957 299.296C243.327 299.502 243.456 299.962 243.245 300.324C243.033 300.685 242.563 300.81 242.195 300.606C237.813 298.16 232.1 298.298 227.845 300.959C227.717 301.039 227.574 301.077 227.432 301.077Z" fill="#F5DA34"/>
<path opacity="0.4" d="M243.622 320.593C248.209 316.097 248.209 308.809 243.622 304.313C239.035 299.818 231.597 299.818 227.01 304.313C222.423 308.809 222.423 316.097 227.01 320.593C231.597 325.089 239.035 325.089 243.622 320.593Z" fill="#F5DA34"/>
<path d="M243.035 312.46C243.035 316.636 239.581 320.021 235.319 320.021C231.057 320.021 227.604 316.636 227.604 312.46C227.604 308.283 231.057 304.898 235.319 304.898C239.581 304.898 243.035 308.283 243.035 312.46Z" fill="#F5DA34"/>
<path d="M481.743 334.631V340.007H459.405V334.631C459.405 334.553 459.405 334.476 459.419 334.398C459.538 331.212 462.208 328.672 465.486 328.672H475.677C477.541 328.672 479.218 329.514 480.342 330.823C481.213 331.847 481.743 333.182 481.743 334.631Z" fill="#697172"/>
<path d="M462.464 339.266L484.776 486.359H498.444L476.13 339.266H462.464Z" fill="#606060"/>
<path d="M470.599 486.297L472.279 497.371H514.283L512.603 486.297H470.599Z" fill="#606060"/>
<path d="M470.599 486.297L472.278 497.371H493.399C493.447 493.588 496.354 490.713 500.385 490.713H513.272L512.603 486.297H470.599Z" fill="#4F5051"/>
<path d="M477.406 339.266L451.558 486.359H437.891L463.74 339.266H477.406Z" fill="#697172"/>
<path d="M465.738 486.289L463.792 497.363H421.788L423.734 486.289H465.738Z" fill="#697172"/>
<path d="M465.737 486.289L463.791 497.363H442.67C442.713 493.58 439.875 490.705 435.844 490.705H422.957L423.733 486.289H465.737Z" fill="#606060"/>
<path d="M476.974 328.287C485.891 324.913 490.329 315.093 486.886 306.354C483.443 297.615 473.423 293.266 464.505 296.641C455.588 300.015 451.15 309.834 454.594 318.573C458.037 327.312 468.056 331.661 476.974 328.287Z" fill="#FF0000"/>
<path d="M478.927 325.16C478.681 325.16 478.438 325.044 478.288 324.827C478.051 324.483 478.144 324.012 478.498 323.78C480.296 322.593 481.805 320.987 482.867 319.136C483.072 318.774 483.542 318.641 483.916 318.848C484.285 319.051 484.417 319.511 484.208 319.875C483.031 321.929 481.353 323.712 479.358 325.032C479.226 325.118 479.077 325.16 478.927 325.16Z" fill="#F5DA34"/>
<path d="M471.282 327.591C470.869 327.591 470.529 327.271 470.512 326.865C470.497 326.45 470.828 326.099 471.253 326.082C472.29 326.045 473.316 325.894 474.305 325.636C474.72 325.526 475.137 325.769 475.247 326.17C475.354 326.574 475.111 326.986 474.702 327.093C473.601 327.378 472.461 327.547 471.31 327.589C471.3 327.591 471.291 327.591 471.282 327.591Z" fill="#F5DA34"/>
<path d="M458.716 304.931C458.563 304.931 458.409 304.887 458.275 304.793C457.925 304.554 457.844 304.083 458.087 303.742C458.516 303.143 459 302.567 459.52 302.03C459.814 301.73 460.302 301.718 460.608 302.003C460.916 302.29 460.928 302.768 460.634 303.069C460.166 303.552 459.732 304.071 459.346 304.609C459.195 304.819 458.958 304.931 458.716 304.931Z" fill="#F5DA34"/>
<path d="M462.837 301.061C462.583 301.061 462.336 300.938 462.188 300.713C461.96 300.361 462.065 299.895 462.423 299.672C467.153 296.716 473.496 296.563 478.362 299.28C478.732 299.487 478.861 299.947 478.652 300.309C478.441 300.669 477.972 300.794 477.602 300.591C473.22 298.144 467.505 298.283 463.25 300.944C463.124 301.024 462.98 301.061 462.837 301.061Z" fill="#F5DA34"/>
<path opacity="0.4" d="M479.027 320.593C483.615 316.097 483.615 308.809 479.027 304.313C474.44 299.818 467.003 299.818 462.415 304.313C457.828 308.809 457.828 316.097 462.415 320.593C467.003 325.089 474.44 325.089 479.027 320.593Z" fill="#F5DA34"/>
<path d="M478.442 312.46C478.442 316.636 474.988 320.021 470.726 320.021C466.465 320.021 463.011 316.636 463.011 312.46C463.011 308.283 466.465 304.898 470.726 304.898C474.987 304.898 478.442 308.283 478.442 312.46Z" fill="#F5DA34"/>
<path d="M496.345 339.266H204.32V371.764H496.345V339.266Z" fill="#FEFCF3"/>
<path d="M236.533 339.266L204.32 364.005V350.717L219.227 339.266H236.533Z" fill="#FF0000"/>
<path d="M270.435 339.266L228.116 371.764H210.793L253.113 339.266H270.435Z" fill="#FF0000"/>
<path d="M304.321 339.266L262.003 371.764H244.695L287.015 339.266H304.321Z" fill="#FF0000"/>
<path d="M338.223 339.266L295.905 371.764H278.582L320.9 339.266H338.223Z" fill="#FF0000"/>
<path d="M372.127 339.266L329.807 371.764H312.484L354.803 339.266H372.127Z" fill="#FF0000"/>
<path d="M406.011 339.266L363.691 371.764H346.368L388.688 339.266H406.011Z" fill="#FF0000"/>
<path d="M439.914 339.266L397.594 371.764H380.271L422.591 339.266H439.914Z" fill="#FF0000"/>
<path d="M473.798 339.266L431.48 371.764H414.173L456.493 339.266H473.798Z" fill="#FF0000"/>
<path d="M496.344 339.266V347.996L465.383 371.764H448.061L490.379 339.266H496.344Z" fill="#FF0000"/>
<path d="M496.343 360.711V371.759H481.962L496.343 360.711Z" fill="#FF0000"/>
<path d="M161.144 486.295V497.365H101.77V486.295H124.493V321.945H138.171V486.295H161.144Z" fill="#697172"/>
<path d="M161.143 486.295V491.822H133.44V423.699C133.44 418.856 129.434 414.931 124.493 414.931V321.945H138.171V486.295H161.143Z" fill="#606060"/>
<path d="M187.157 355.504C187.157 385.651 162.217 410.092 131.455 410.092C124.987 410.092 118.802 409.023 113.03 407.045C91.3146 399.59 75.751 379.33 75.751 355.504C75.751 331.435 91.6439 310.996 113.707 303.735C119.28 301.904 125.252 300.914 131.453 300.914C162.216 300.914 187.157 325.357 187.157 355.504Z" fill="#3550DC"/>
<path d="M131.447 403.106C104.659 403.106 82.8633 381.748 82.8633 355.495C82.8633 329.242 104.657 307.883 131.447 307.883C158.237 307.883 180.031 329.241 180.031 355.495C180.029 381.746 158.236 403.106 131.447 403.106ZM131.447 312.746C107.394 312.746 87.8254 331.923 87.8254 355.495C87.8254 379.067 107.394 398.244 131.447 398.244C155.501 398.244 175.069 379.067 175.069 355.495C175.069 331.923 155.499 312.746 131.447 312.746Z" fill="white"/>
<path d="M176.278 343.434H127.547V333.852L97.9033 355.498L127.547 377.657V368.074H176.278V343.434Z" fill="white"/>
<path opacity="0.3" d="M187.156 355.502C187.156 385.649 162.217 410.091 131.454 410.091C124.987 410.091 118.801 409.021 113.029 407.044C115.378 406.379 117.661 405.845 119.083 405.213C125.499 402.344 131.339 398.292 136.216 393.3C146.123 383.201 151.729 369.522 151.729 355.502C151.729 340.089 144.932 325.177 133.238 314.869C127.548 309.877 120.916 306.166 113.705 303.735C119.278 301.904 125.25 300.914 131.451 300.914C162.215 300.913 187.156 325.355 187.156 355.502Z" fill="#0186E3"/>
<path d="M598.895 486.295V497.365H539.521V486.295H562.245V321.945H575.923V486.295H598.895Z" fill="#697172"/>
<path d="M598.894 486.295V491.822H571.191V423.699C571.191 418.856 567.185 414.931 562.244 414.931V321.945H575.922V486.295H598.894Z" fill="#606060"/>
<path d="M624.91 355.504C624.91 385.651 599.97 410.092 569.208 410.092C562.74 410.092 556.556 409.023 550.783 407.045C529.068 399.59 513.504 379.33 513.504 355.504C513.504 331.435 529.398 310.996 551.46 303.735C557.033 301.904 563.005 300.914 569.206 300.914C599.969 300.914 624.91 325.357 624.91 355.504Z" fill="#3550DC"/>
<path d="M569.198 403.106C542.41 403.106 520.614 381.748 520.614 355.495C520.614 329.242 542.408 307.883 569.198 307.883C595.987 307.883 617.782 329.241 617.782 355.495C617.782 381.746 595.988 403.106 569.198 403.106ZM569.198 312.746C545.145 312.746 525.576 331.923 525.576 355.495C525.576 379.067 545.145 398.244 569.198 398.244C593.252 398.244 612.82 379.067 612.82 355.495C612.821 331.923 593.252 312.746 569.198 312.746Z" fill="white"/>
<path d="M523.057 343.434H571.79V333.852L601.432 355.498L571.79 377.657V368.074H523.057V343.434Z" fill="white"/>
<path opacity="0.3" d="M624.909 355.502C624.909 385.649 599.969 410.091 569.207 410.091C562.74 410.091 556.555 409.021 550.782 407.044C553.131 406.379 555.413 405.845 556.836 405.213C563.252 402.344 569.09 398.292 573.969 393.3C583.876 383.201 589.482 369.522 589.482 355.502C589.482 340.089 582.685 325.177 570.991 314.869C565.301 309.877 558.67 306.166 551.458 303.735C557.031 301.904 563.003 300.914 569.204 300.914C599.968 300.913 624.909 325.355 624.909 355.502Z" fill="#0186E3"/>
<path d="M373.004 488.206H327.661L331.063 475.334L333.93 464.412L336.328 455.348L339.195 444.434L346.174 417.969H354.491L361.46 444.434L364.337 455.348L366.726 464.412L369.602 475.334L373.004 488.206Z" fill="#FF0000"/>
<path d="M364.336 455.347H336.327L339.198 444.43H361.466L364.336 455.347Z" fill="#FEFCF3"/>
<path d="M369.599 475.339H331.062L333.933 464.422H366.729L369.599 475.339Z" fill="#FEFCF3"/>
<path opacity="0.3" d="M351.654 488.206C361.356 445.144 346.173 417.969 346.173 417.969H354.489L361.459 444.434L364.334 455.348L366.725 464.412L369.6 475.334L373.001 488.208H351.654V488.206Z" fill="#606060"/>
<path d="M382.784 486.375H317.879V497.383H382.784V486.375Z" fill="#FF7F00"/>
<path opacity="0.3" d="M382.783 486.375V497.383H353.314C352.797 493.624 350.009 490.766 346.649 490.766H317.877V486.376L382.783 486.375Z" fill="#606060"/>
<path opacity="0.3" d="M347.262 459.585C345.003 471 341.415 479.921 339.246 479.509C337.079 479.097 337.153 469.509 339.411 458.094C341.67 446.679 345.258 437.758 347.427 438.17C349.595 438.582 349.521 448.169 347.262 459.585Z" fill="#FEFCF3"/>
<path d="M642.366 488.206H597.021L600.423 475.334L603.292 464.412L605.688 455.348L608.557 444.434L615.536 417.969H623.851L630.822 444.434L633.697 455.348L636.087 464.412L638.963 475.334L642.366 488.206Z" fill="#FF0000"/>
<path d="M633.696 455.347H605.688L608.559 444.43H630.825L633.696 455.347Z" fill="#FEFCF3"/>
<path d="M638.961 475.339H600.425L603.294 464.422H636.091L638.961 475.339Z" fill="#FEFCF3"/>
<path opacity="0.3" d="M621.015 488.206C630.718 445.144 615.534 417.969 615.534 417.969H623.852L630.822 444.434L633.697 455.348L636.088 464.412L638.963 475.334L642.364 488.208H621.015V488.206Z" fill="#606060"/>
<path d="M652.143 486.312H587.238V497.387H652.143V486.312Z" fill="#FF7F00"/>
<path opacity="0.3" d="M652.145 486.312V497.387H622.675C622.158 493.604 619.37 490.729 616.011 490.729H587.238V486.312H652.145Z" fill="#606060"/>
<path opacity="0.3" d="M616.623 459.585C614.364 471 610.776 479.921 608.608 479.509C606.44 479.097 606.514 469.509 608.772 458.094C611.032 446.679 614.619 437.758 616.786 438.17C618.957 438.582 618.883 448.169 616.623 459.585Z" fill="#FEFCF3"/>
<path d="M103.644 488.206H58.3018L61.7032 475.334L64.5706 464.412L66.9685 455.348L69.8375 444.434L76.8143 417.969H85.1317L92.1024 444.434L94.9775 455.348L97.3677 464.412L100.243 475.334L103.644 488.206Z" fill="#FF0000"/>
<path d="M94.9761 455.347H66.9688L69.8392 444.43H92.1057L94.9761 455.347Z" fill="#FEFCF3"/>
<path d="M100.24 475.339H61.7031L64.5736 464.422H97.3707L100.24 475.339Z" fill="#FEFCF3"/>
<path opacity="0.3" d="M82.2933 488.206C91.9959 445.144 76.8125 417.969 76.8125 417.969H85.1299L92.1006 444.434L94.9757 455.348L97.3659 464.412L100.241 475.334L103.642 488.208H82.2933V488.206Z" fill="#606060"/>
<path d="M113.422 486.375H48.5176V497.384H113.422V486.375Z" fill="#FF7F00"/>
<path opacity="0.3" d="M113.424 486.375V497.384H83.9543C83.4371 493.624 80.6498 490.766 77.2899 490.766H48.5176V486.375H113.424Z" fill="#606060"/>
<path opacity="0.3" d="M77.9026 459.585C75.6431 471 72.0554 479.921 69.8868 479.509C67.7197 479.097 67.7936 469.509 70.0515 458.094C72.3109 446.679 75.8986 437.758 78.0672 438.17C80.2343 438.582 80.1604 448.169 77.9026 459.585Z" fill="#FEFCF3"/>
</svg>
